<svg width="323" height="312" viewBox="0 0 323 312" fill="none" xmlns="http://www.w3.org/2000/svg">
<path d="M111.188 7.90909H113.585L117.753 18.0852H117.906L122.074 7.90909H124.471V21H122.592V11.527H122.47L118.609 20.9808H117.05L113.189 11.5206H113.067V21H111.188V7.90909ZM130.046 21.2173C129.424 21.2173 128.862 21.1023 128.359 20.8722C127.856 20.6378 127.458 20.299 127.164 19.8558C126.874 19.4126 126.729 18.8693 126.729 18.2259C126.729 17.6719 126.835 17.2159 127.048 16.858C127.262 16.5 127.549 16.2166 127.911 16.0078C128.274 15.799 128.678 15.6413 129.126 15.5348C129.573 15.4283 130.029 15.3473 130.494 15.2919C131.082 15.2237 131.559 15.1683 131.926 15.1257C132.292 15.0788 132.558 15.0043 132.725 14.902C132.891 14.7997 132.974 14.6335 132.974 14.4034V14.3587C132.974 13.8004 132.816 13.3679 132.501 13.0611C132.19 12.7543 131.725 12.6009 131.107 12.6009C130.464 12.6009 129.957 12.7436 129.586 13.0291C129.22 13.3104 128.966 13.6236 128.825 13.9688L127.029 13.5597C127.242 12.9631 127.553 12.4815 127.963 12.1151C128.376 11.7443 128.851 11.4759 129.388 11.3097C129.925 11.1392 130.49 11.054 131.082 11.054C131.474 11.054 131.889 11.1009 132.328 11.1946C132.771 11.2841 133.185 11.4503 133.568 11.6932C133.956 11.9361 134.274 12.2834 134.521 12.7351C134.768 13.1825 134.892 13.7642 134.892 14.4801V21H133.025V19.6577H132.948C132.825 19.9048 132.639 20.1477 132.392 20.3864C132.145 20.625 131.828 20.8232 131.44 20.9808C131.052 21.1385 130.588 21.2173 130.046 21.2173ZM130.462 19.6832C130.99 19.6832 131.442 19.5788 131.817 19.37C132.196 19.1612 132.484 18.8885 132.68 18.5518C132.88 18.2109 132.98 17.8466 132.98 17.4588V16.1932C132.912 16.2614 132.78 16.3253 132.584 16.3849C132.392 16.4403 132.173 16.4893 131.926 16.532C131.678 16.5703 131.438 16.6065 131.203 16.6406C130.969 16.6705 130.773 16.696 130.615 16.7173C130.244 16.7642 129.906 16.843 129.599 16.9538C129.296 17.0646 129.053 17.2244 128.87 17.4332C128.691 17.6378 128.602 17.9105 128.602 18.2514C128.602 18.7244 128.776 19.0824 129.126 19.3253C129.475 19.5639 129.921 19.6832 130.462 19.6832ZM137.437 21V11.1818H139.284V12.7415H139.387C139.566 12.2131 139.881 11.7976 140.333 11.495C140.789 11.1882 141.304 11.0348 141.88 11.0348C141.999 11.0348 142.14 11.0391 142.301 11.0476C142.468 11.0561 142.598 11.0668 142.691 11.0795V12.9077C142.615 12.8864 142.478 12.8629 142.282 12.8374C142.086 12.8075 141.89 12.7926 141.694 12.7926C141.243 12.7926 140.84 12.8885 140.486 13.0803C140.137 13.2678 139.86 13.5298 139.655 13.8665C139.451 14.1989 139.348 14.5781 139.348 15.0043V21H137.437ZM148.129 21.1982C147.179 21.1982 146.361 20.983 145.675 20.5526C144.993 20.1179 144.469 19.5192 144.102 18.7564C143.736 17.9936 143.553 17.12 143.553 16.1357C143.553 15.1385 143.74 14.2585 144.115 13.4957C144.49 12.7287 145.019 12.13 145.7 11.6996C146.382 11.2692 147.186 11.054 148.11 11.054C148.856 11.054 149.521 11.1925 150.105 11.4695C150.688 11.7422 151.159 12.1257 151.517 12.62C151.879 13.1143 152.095 13.6918 152.163 14.3523H150.303C150.2 13.892 149.966 13.4957 149.6 13.1634C149.237 12.831 148.752 12.6648 148.142 12.6648C147.61 12.6648 147.143 12.8054 146.742 13.0866C146.346 13.3636 146.037 13.7599 145.816 14.2756C145.594 14.7869 145.483 15.392 145.483 16.0909C145.483 16.8068 145.592 17.4247 145.809 17.9446C146.026 18.4645 146.333 18.8672 146.73 19.1527C147.13 19.4382 147.601 19.581 148.142 19.581C148.504 19.581 148.833 19.5149 149.127 19.3828C149.425 19.2464 149.674 19.0526 149.874 18.8011C150.079 18.5497 150.222 18.2472 150.303 17.8935H152.163C152.095 18.5284 151.888 19.0952 151.543 19.5938C151.198 20.0923 150.735 20.4844 150.156 20.7699C149.58 21.0554 148.905 21.1982 148.129 21.1982ZM156.118 15.1705V21H154.207V7.90909H156.092V12.7798H156.214C156.444 12.2514 156.795 11.8317 157.268 11.5206C157.741 11.2095 158.359 11.054 159.122 11.054C159.795 11.054 160.384 11.1925 160.886 11.4695C161.393 11.7464 161.786 12.1598 162.062 12.7095C162.344 13.255 162.484 13.9368 162.484 14.755V21H160.573V14.9851C160.573 14.2649 160.388 13.7067 160.017 13.3104C159.646 12.9098 159.131 12.7095 158.47 12.7095C158.018 12.7095 157.614 12.8054 157.256 12.9972C156.902 13.1889 156.623 13.4702 156.418 13.8409C156.218 14.2074 156.118 14.6506 156.118 15.1705ZM169.773 21V19.5682L174.203 14.9787C174.676 14.4801 175.066 14.0433 175.372 13.6683C175.683 13.2891 175.916 12.929 176.069 12.5881C176.222 12.2472 176.299 11.8849 176.299 11.5014C176.299 11.0668 176.197 10.6918 175.992 10.3764C175.788 10.0568 175.509 9.81179 175.155 9.64134C174.801 9.46662 174.403 9.37926 173.96 9.37926C173.491 9.37926 173.082 9.47514 172.732 9.6669C172.383 9.85866 172.115 10.1293 171.927 10.4787C171.74 10.8281 171.646 11.2372 171.646 11.706H169.76C169.76 10.9091 169.943 10.2124 170.31 9.61577C170.676 9.01918 171.179 8.55682 171.818 8.22869C172.458 7.89631 173.184 7.73011 173.998 7.73011C174.82 7.73011 175.545 7.89418 176.171 8.2223C176.802 8.54616 177.294 8.98935 177.648 9.55185C178.002 10.1101 178.178 10.7408 178.178 11.4439C178.178 11.9297 178.087 12.4048 177.904 12.8693C177.725 13.3338 177.411 13.8516 176.964 14.4226C176.517 14.9893 175.894 15.6776 175.097 16.4872L172.496 19.2102V19.3061H178.389V21H169.773ZM185.369 21.2173C184.36 21.2131 183.497 20.9467 182.781 20.4183C182.065 19.8899 181.517 19.1207 181.138 18.1108C180.759 17.1009 180.569 15.8842 180.569 14.4609C180.569 13.0419 180.759 11.8295 181.138 10.8239C181.521 9.81818 182.071 9.05114 182.787 8.52273C183.507 7.99432 184.368 7.73011 185.369 7.73011C186.371 7.73011 187.23 7.99645 187.945 8.52912C188.661 9.05753 189.209 9.82457 189.588 10.8303C189.972 11.8317 190.164 13.0419 190.164 14.4609C190.164 15.8885 189.974 17.1072 189.595 18.1172C189.215 19.1229 188.668 19.892 187.952 20.4247C187.236 20.9531 186.375 21.2173 185.369 21.2173ZM185.369 19.5107C186.256 19.5107 186.948 19.0781 187.447 18.2131C187.95 17.348 188.201 16.0973 188.201 14.4609C188.201 13.3743 188.086 12.456 187.856 11.706C187.63 10.9517 187.304 10.3807 186.878 9.9929C186.456 9.60085 185.953 9.40483 185.369 9.40483C184.487 9.40483 183.795 9.83949 183.292 10.7088C182.789 11.5781 182.536 12.8288 182.531 14.4609C182.531 15.5518 182.644 16.4744 182.87 17.2287C183.1 17.9787 183.426 18.5476 183.848 18.9354C184.27 19.3189 184.777 19.5107 185.369 19.5107ZM192.431 21V19.5682L196.861 14.9787C197.334 14.4801 197.724 14.0433 198.031 13.6683C198.342 13.2891 198.574 12.929 198.727 12.5881C198.881 12.2472 198.957 11.8849 198.957 11.5014C198.957 11.0668 198.855 10.6918 198.651 10.3764C198.446 10.0568 198.167 9.81179 197.813 9.64134C197.46 9.46662 197.061 9.37926 196.618 9.37926C196.149 9.37926 195.74 9.47514 195.391 9.6669C195.041 9.85866 194.773 10.1293 194.585 10.4787C194.398 10.8281 194.304 11.2372 194.304 11.706H192.418C192.418 10.9091 192.602 10.2124 192.968 9.61577C193.335 9.01918 193.837 8.55682 194.477 8.22869C195.116 7.89631 195.842 7.73011 196.656 7.73011C197.479 7.73011 198.203 7.89418 198.83 8.2223C199.46 8.54616 199.952 8.98935 200.306 9.55185C200.66 10.1101 200.837 10.7408 200.837 11.4439C200.837 11.9297 200.745 12.4048 200.562 12.8693C200.383 13.3338 200.07 13.8516 199.622 14.4226C199.175 14.9893 198.553 15.6776 197.756 16.4872L195.154 19.2102V19.3061H201.048V21H192.431ZM203.47 21V19.5682L207.9 14.9787C208.373 14.4801 208.763 14.0433 209.07 13.6683C209.381 13.2891 209.613 12.929 209.766 12.5881C209.92 12.2472 209.996 11.8849 209.996 11.5014C209.996 11.0668 209.894 10.6918 209.69 10.3764C209.485 10.0568 209.206 9.81179 208.852 9.64134C208.499 9.46662 208.1 9.37926 207.657 9.37926C207.188 9.37926 206.779 9.47514 206.43 9.6669C206.08 9.85866 205.812 10.1293 205.624 10.4787C205.437 10.8281 205.343 11.2372 205.343 11.706H203.457C203.457 10.9091 203.641 10.2124 204.007 9.61577C204.374 9.01918 204.876 8.55682 205.516 8.22869C206.155 7.89631 206.881 7.73011 207.695 7.73011C208.518 7.73011 209.242 7.89418 209.869 8.2223C210.499 8.54616 210.991 8.98935 211.345 9.55185C211.699 10.1101 211.876 10.7408 211.876 11.4439C211.876 11.9297 211.784 12.4048 211.601 12.8693C211.422 13.3338 211.109 13.8516 210.661 14.4226C210.214 14.9893 209.592 15.6776 208.795 16.4872L206.193 19.2102V19.3061H212.087V21H203.47Z" fill="black"/>
<path d="M309.75 10.75L313.25 14L309.75 17.25" stroke="black" stroke-width="1.5" stroke-linecap="round" stroke-linejoin="round"/>
<path d="M21.1284 56.6719C21.0886 56.2997 20.921 56.0099 20.6255 55.8026C20.3329 55.5952 19.9522 55.4915 19.4835 55.4915C19.1539 55.4915 18.8712 55.5412 18.6355 55.6406C18.3997 55.7401 18.2193 55.875 18.0943 56.0455C17.9693 56.2159 17.9053 56.4105 17.9025 56.6293C17.9025 56.8111 17.9437 56.9687 18.0261 57.1023C18.1113 57.2358 18.2264 57.3494 18.3712 57.4432C18.5161 57.5341 18.6766 57.6108 18.8528 57.6733C19.0289 57.7358 19.2065 57.7884 19.3855 57.831L20.2036 58.0355C20.5332 58.1122 20.8499 58.2159 21.1539 58.3466C21.4607 58.4773 21.7349 58.642 21.9764 58.8409C22.2207 59.0398 22.4139 59.2798 22.5559 59.5611C22.698 59.8423 22.769 60.1719 22.769 60.5497C22.769 61.0611 22.6383 61.5114 22.3769 61.9006C22.1156 62.2869 21.7377 62.5895 21.2434 62.8082C20.7519 63.0241 20.1568 63.1321 19.4579 63.1321C18.7789 63.1321 18.1894 63.027 17.6894 62.8168C17.1923 62.6065 16.8031 62.2997 16.5218 61.8963C16.2434 61.4929 16.0928 61.0014 16.0701 60.4219H17.6255C17.6482 60.7259 17.742 60.9787 17.9068 61.1804C18.0715 61.3821 18.286 61.5327 18.5502 61.6321C18.8173 61.7315 19.1156 61.7812 19.4451 61.7812C19.7889 61.7812 20.09 61.7301 20.3485 61.6278C20.6099 61.5227 20.8144 61.3778 20.9622 61.1932C21.1099 61.0057 21.1852 60.7869 21.188 60.5369C21.1852 60.3097 21.1184 60.1222 20.9877 59.9744C20.857 59.8239 20.6738 59.6989 20.438 59.5994C20.2051 59.4972 19.9323 59.4062 19.6198 59.3267L18.6269 59.071C17.9082 58.8864 17.34 58.6065 16.9224 58.2315C16.5076 57.8537 16.3002 57.3523 16.3002 56.7273C16.3002 56.2131 16.4394 55.7628 16.7178 55.3764C16.9991 54.9901 17.3812 54.6903 17.8641 54.4773C18.3471 54.2614 18.894 54.1534 19.5048 54.1534C20.1241 54.1534 20.6667 54.2614 21.1326 54.4773C21.6014 54.6903 21.9693 54.9872 22.2363 55.3679C22.5034 55.7457 22.6411 56.1804 22.6497 56.6719H21.1284ZM28.2821 60.2472V56.4545H29.8247V63H28.329V61.8366H28.2608C28.1131 62.2031 27.8702 62.5028 27.5321 62.7358C27.1969 62.9687 26.7835 63.0852 26.2921 63.0852C25.8631 63.0852 25.4838 62.9901 25.1543 62.7997C24.8276 62.6065 24.5719 62.3267 24.3872 61.9602C24.2026 61.5909 24.1102 61.1449 24.1102 60.6222V56.4545H25.6529V60.3835C25.6529 60.7983 25.7665 61.1278 25.9938 61.3722C26.221 61.6165 26.5193 61.7386 26.8886 61.7386C27.1159 61.7386 27.3361 61.6832 27.5492 61.5724C27.7622 61.4616 27.9369 61.2969 28.0733 61.0781C28.2125 60.8565 28.2821 60.5795 28.2821 60.2472Z" fill="#6B7280"/>
<path d="M60.9873 54.2727H62.9219L65.5128 60.5966H65.6151L68.206 54.2727H70.1407V63H68.6236V57.0043H68.5427L66.1307 62.9744H64.9972L62.5853 56.9915H62.5043V63H60.9873V54.2727ZM74.6492 63.1278C74.01 63.1278 73.456 62.9872 72.9873 62.706C72.5185 62.4247 72.1549 62.0312 71.8964 61.5256C71.6407 61.0199 71.5128 60.429 71.5128 59.7528C71.5128 59.0767 71.6407 58.4844 71.8964 57.9759C72.1549 57.4673 72.5185 57.0724 72.9873 56.7912C73.456 56.5099 74.01 56.3693 74.6492 56.3693C75.2884 56.3693 75.8424 56.5099 76.3111 56.7912C76.7799 57.0724 77.1421 57.4673 77.3978 57.9759C77.6563 58.4844 77.7856 59.0767 77.7856 59.7528C77.7856 60.429 77.6563 61.0199 77.3978 61.5256C77.1421 62.0312 76.7799 62.4247 76.3111 62.706C75.8424 62.9872 75.2884 63.1278 74.6492 63.1278ZM74.6577 61.892C75.0043 61.892 75.2941 61.7969 75.527 61.6065C75.76 61.4134 75.9333 61.1548 76.0469 60.831C76.1634 60.5071 76.2216 60.1463 76.2216 59.7486C76.2216 59.348 76.1634 58.9858 76.0469 58.6619C75.9333 58.3352 75.76 58.0753 75.527 57.8821C75.2941 57.6889 75.0043 57.5923 74.6577 57.5923C74.3026 57.5923 74.0071 57.6889 73.7714 57.8821C73.5384 58.0753 73.3637 58.3352 73.2472 58.6619C73.1336 58.9858 73.0767 59.348 73.0767 59.7486C73.0767 60.1463 73.1336 60.5071 73.2472 60.831C73.3637 61.1548 73.5384 61.4134 73.7714 61.6065C74.0071 61.7969 74.3026 61.892 74.6577 61.892Z" fill="#6B7280"/>
<path d="M108.668 55.598V54.2727H115.632V55.598H112.934V63H111.366V55.598H108.668ZM120.187 60.2472V56.4545H121.73V63H120.234V61.8366H120.166C120.018 62.2031 119.775 62.5028 119.437 62.7358C119.102 62.9687 118.688 63.0852 118.197 63.0852C117.768 63.0852 117.389 62.9901 117.059 62.7997C116.732 62.6065 116.477 62.3267 116.292 61.9602C116.107 61.5909 116.015 61.1449 116.015 60.6222V56.4545H117.558V60.3835C117.558 60.7983 117.671 61.1278 117.899 61.3722C118.126 61.6165 118.424 61.7386 118.793 61.7386C119.021 61.7386 119.241 61.6832 119.454 61.5724C119.667 61.4616 119.842 61.2969 119.978 61.0781C120.117 60.8565 120.187 60.5795 120.187 60.2472Z" fill="#6B7280"/>
<path d="M154.934 63L152.471 54.2727H154.171L155.743 60.6861H155.824L157.503 54.2727H159.05L160.733 60.6903H160.81L162.383 54.2727H164.083L161.62 63H160.06L158.313 56.8764H158.245L156.493 63H154.934ZM167.341 63.1278C166.684 63.1278 166.118 62.9915 165.64 62.7188C165.166 62.4432 164.801 62.054 164.545 61.5511C164.29 61.0455 164.162 60.4503 164.162 59.7656C164.162 59.0923 164.29 58.5014 164.545 57.9929C164.804 57.4815 165.165 57.0838 165.628 56.7997C166.091 56.5128 166.635 56.3693 167.26 56.3693C167.663 56.3693 168.044 56.4347 168.402 56.5653C168.763 56.6932 169.081 56.892 169.356 57.1619C169.635 57.4318 169.854 57.7756 170.013 58.1932C170.172 58.608 170.251 59.1023 170.251 59.6761V60.1491H164.886V59.1094H168.773C168.77 58.8139 168.706 58.5511 168.581 58.321C168.456 58.0881 168.281 57.9048 168.057 57.7713C167.835 57.6378 167.577 57.571 167.281 57.571C166.966 57.571 166.689 57.6477 166.45 57.8011C166.211 57.9517 166.025 58.1506 165.892 58.3977C165.761 58.642 165.694 58.9105 165.692 59.2031V60.1108C165.692 60.4915 165.761 60.8182 165.9 61.0909C166.04 61.3608 166.234 61.5682 166.484 61.7131C166.734 61.8551 167.027 61.9261 167.362 61.9261C167.586 61.9261 167.79 61.8949 167.971 61.8324C168.153 61.767 168.311 61.6719 168.444 61.5469C168.578 61.4219 168.679 61.267 168.747 61.0824L170.187 61.2443C170.096 61.625 169.923 61.9574 169.667 62.2415C169.415 62.5227 169.091 62.7415 168.696 62.8977C168.301 63.0511 167.849 63.1278 167.341 63.1278Z" fill="#6B7280"/>
<path d="M200.48 55.598V54.2727H207.443V55.598H204.745V63H203.177V55.598H200.48ZM210.26 59.1648V63H208.717V54.2727H210.225V57.5668H210.302C210.456 57.1974 210.693 56.9062 211.014 56.6932C211.338 56.4773 211.75 56.3693 212.25 56.3693C212.704 56.3693 213.1 56.4645 213.439 56.6548C213.777 56.8452 214.038 57.1236 214.223 57.4901C214.41 57.8565 214.504 58.304 214.504 58.8324V63H212.961V59.071C212.961 58.6307 212.848 58.2884 212.62 58.044C212.396 57.7969 212.081 57.6733 211.674 57.6733C211.402 57.6733 211.157 57.733 210.941 57.8523C210.728 57.9687 210.561 58.1378 210.439 58.3594C210.319 58.581 210.26 58.8494 210.26 59.1648Z" fill="#6B7280"/>
<path d="M248.799 63V54.2727H254.39V55.598H250.38V57.9673H254.006V59.2926H250.38V63H248.799ZM255.668 63V56.4545H257.164V57.5455H257.232C257.352 57.1676 257.556 56.8764 257.846 56.6719C258.139 56.4645 258.472 56.3608 258.847 56.3608C258.933 56.3608 259.028 56.3651 259.133 56.3736C259.241 56.3793 259.33 56.3892 259.401 56.4034V57.8224C259.336 57.7997 259.232 57.7798 259.09 57.7628C258.951 57.7429 258.816 57.733 258.685 57.733C258.404 57.733 258.151 57.794 257.927 57.9162C257.705 58.0355 257.531 58.2017 257.403 58.4148C257.275 58.6278 257.211 58.8736 257.211 59.152V63H255.668Z" fill="#6B7280"/>
<path d="M298.191 56.6719C298.151 56.2997 297.983 56.0099 297.688 55.8026C297.395 55.5952 297.014 55.4915 296.546 55.4915C296.216 55.4915 295.934 55.5412 295.698 55.6406C295.462 55.7401 295.282 55.875 295.157 56.0455C295.032 56.2159 294.968 56.4105 294.965 56.6293C294.965 56.8111 295.006 56.9687 295.088 57.1023C295.174 57.2358 295.289 57.3494 295.434 57.4432C295.578 57.5341 295.739 57.6108 295.915 57.6733C296.091 57.7358 296.269 57.7884 296.448 57.831L297.266 58.0355C297.595 58.1122 297.912 58.2159 298.216 58.3466C298.523 58.4773 298.797 58.642 299.039 58.8409C299.283 59.0398 299.476 59.2798 299.618 59.5611C299.76 59.8423 299.831 60.1719 299.831 60.5497C299.831 61.0611 299.701 61.5114 299.439 61.9006C299.178 62.2869 298.8 62.5895 298.306 62.8082C297.814 63.0241 297.219 63.1321 296.52 63.1321C295.841 63.1321 295.252 63.027 294.752 62.8168C294.255 62.6065 293.865 62.2997 293.584 61.8963C293.306 61.4929 293.155 61.0014 293.132 60.4219H294.688C294.71 60.7259 294.804 60.9787 294.969 61.1804C295.134 61.3821 295.348 61.5327 295.612 61.6321C295.88 61.7315 296.178 61.7812 296.507 61.7812C296.851 61.7812 297.152 61.7301 297.411 61.6278C297.672 61.5227 297.877 61.3778 298.024 61.1932C298.172 61.0057 298.247 60.7869 298.25 60.5369C298.247 60.3097 298.181 60.1222 298.05 59.9744C297.919 59.8239 297.736 59.6989 297.5 59.5994C297.267 59.4972 296.995 59.4062 296.682 59.3267L295.689 59.071C294.97 58.8864 294.402 58.6065 293.985 58.2315C293.57 57.8537 293.362 57.3523 293.362 56.7273C293.362 56.2131 293.502 55.7628 293.78 55.3764C294.061 54.9901 294.443 54.6903 294.926 54.4773C295.409 54.2614 295.956 54.1534 296.567 54.1534C297.186 54.1534 297.729 54.2614 298.195 54.4773C298.664 54.6903 299.032 54.9872 299.299 55.3679C299.566 55.7457 299.703 56.1804 299.712 56.6719H298.191ZM303.056 63.1321C302.641 63.1321 302.268 63.0582 301.935 62.9105C301.606 62.7599 301.344 62.5384 301.151 62.2457C300.961 61.9531 300.866 61.5923 300.866 61.1634C300.866 60.794 300.934 60.4886 301.07 60.2472C301.207 60.0057 301.393 59.8125 301.628 59.6676C301.864 59.5227 302.13 59.4134 302.425 59.3395C302.724 59.2628 303.032 59.2074 303.35 59.1733C303.734 59.1335 304.045 59.098 304.283 59.0668C304.522 59.0327 304.695 58.9815 304.803 58.9134C304.914 58.8423 304.969 58.733 304.969 58.5852V58.5597C304.969 58.2386 304.874 57.9901 304.684 57.8139C304.494 57.6378 304.219 57.5497 303.861 57.5497C303.484 57.5497 303.184 57.6321 302.962 57.7969C302.744 57.9616 302.596 58.1562 302.519 58.3807L301.079 58.1761C301.192 57.7784 301.38 57.446 301.641 57.179C301.903 56.9091 302.222 56.7074 302.6 56.5739C302.978 56.4375 303.396 56.3693 303.853 56.3693C304.168 56.3693 304.482 56.4062 304.795 56.4801C305.107 56.554 305.393 56.6761 305.651 56.8466C305.91 57.0142 306.117 57.2429 306.273 57.5327C306.432 57.8224 306.512 58.1847 306.512 58.6193V63H305.029V62.1009H304.978C304.884 62.2827 304.752 62.4531 304.582 62.6122C304.414 62.7685 304.202 62.8949 303.947 62.9915C303.694 63.0852 303.397 63.1321 303.056 63.1321ZM303.457 61.9986C303.766 61.9986 304.035 61.9375 304.262 61.8153C304.489 61.6903 304.664 61.5256 304.786 61.321C304.911 61.1165 304.974 60.8935 304.974 60.652V59.8807C304.925 59.9205 304.843 59.9574 304.726 59.9915C304.613 60.0256 304.485 60.0554 304.343 60.081C304.201 60.1065 304.06 60.1293 303.921 60.1491C303.782 60.169 303.661 60.1861 303.559 60.2003C303.329 60.2315 303.123 60.2827 302.941 60.3537C302.759 60.4247 302.616 60.5241 302.511 60.652C302.405 60.777 302.353 60.9389 302.353 61.1378C302.353 61.4219 302.457 61.6364 302.664 61.7812C302.871 61.9261 303.136 61.9986 303.457 61.9986Z" fill="#6B7280"/>
<path d="M15.5738 110V109.105L18.9345 105.426C19.329 104.995 19.6538 104.621 19.909 104.303C20.1642 103.981 20.3531 103.679 20.4757 103.398C20.6017 103.113 20.6647 102.814 20.6647 102.503C20.6647 102.145 20.5785 101.835 20.4061 101.573C20.2371 101.311 20.0051 101.109 19.7101 100.967C19.4151 100.824 19.0837 100.753 18.7158 100.753C18.3247 100.753 17.9833 100.834 17.6917 100.996C17.4033 101.156 17.1796 101.379 17.0205 101.668C16.8647 101.956 16.7868 102.294 16.7868 102.682H15.6135C15.6135 102.085 15.7511 101.562 16.0262 101.111C16.3013 100.66 16.6758 100.309 17.1497 100.057C17.627 99.8049 18.1623 99.679 18.7556 99.679C19.3522 99.679 19.8808 99.8049 20.3415 100.057C20.8022 100.309 21.1635 100.648 21.4253 101.076C21.6872 101.504 21.8181 101.979 21.8181 102.503C21.8181 102.877 21.7501 103.244 21.6142 103.602C21.4817 103.956 21.2497 104.352 20.9182 104.79C20.5901 105.224 20.1344 105.754 19.551 106.381L17.2641 108.827V108.906H21.997V110H15.5738ZM27.3117 110.139C26.6289 110.139 26.0257 110.018 25.502 109.776C24.9817 109.531 24.5756 109.195 24.284 108.767C23.9923 108.336 23.8481 107.846 23.8515 107.295C23.8481 106.865 23.9327 106.467 24.105 106.102C24.2774 105.734 24.5127 105.428 24.811 105.183C25.1126 104.934 25.449 104.777 25.8202 104.71V104.651C25.333 104.525 24.9452 104.251 24.6568 103.83C24.3685 103.406 24.226 102.924 24.2293 102.384C24.226 101.866 24.3569 101.404 24.622 100.996C24.8872 100.589 25.2518 100.267 25.7158 100.032C26.1831 99.7966 26.7151 99.679 27.3117 99.679C27.9016 99.679 28.4286 99.7966 28.8926 100.032C29.3567 100.267 29.7212 100.589 29.9864 100.996C30.2549 101.404 30.3908 101.866 30.3941 102.384C30.3908 102.924 30.2433 103.406 29.9516 103.83C29.6632 104.251 29.2804 104.525 28.8032 104.651V104.71C29.1711 104.777 29.5025 104.934 29.7975 105.183C30.0925 105.428 30.3278 105.734 30.5034 106.102C30.6791 106.467 30.7686 106.865 30.7719 107.295C30.7686 107.846 30.6194 108.336 30.3245 108.767C30.0328 109.195 29.6268 109.531 29.1064 109.776C28.5894 110.018 27.9911 110.139 27.3117 110.139ZM27.3117 109.045C27.7724 109.045 28.1701 108.971 28.5049 108.822C28.8396 108.673 29.0981 108.462 29.2804 108.19C29.4627 107.919 29.5555 107.6 29.5588 107.236C29.5555 106.851 29.4561 106.512 29.2605 106.217C29.065 105.922 28.7982 105.69 28.4601 105.521C28.1254 105.352 27.7426 105.267 27.3117 105.267C26.8775 105.267 26.4897 105.352 26.1483 105.521C25.8103 105.69 25.5434 105.922 25.3479 106.217C25.1557 106.512 25.0612 106.851 25.0645 107.236C25.0612 107.6 25.149 107.919 25.328 108.19C25.5103 108.462 25.7705 108.673 26.1086 108.822C26.4466 108.971 26.8477 109.045 27.3117 109.045ZM27.3117 104.213C27.6763 104.213 27.9994 104.14 28.2811 103.994C28.5662 103.848 28.7899 103.645 28.9523 103.383C29.1147 103.121 29.1976 102.814 29.2009 102.463C29.1976 102.118 29.1164 101.818 28.9573 101.563C28.7982 101.305 28.5778 101.106 28.2961 100.967C28.0143 100.824 27.6862 100.753 27.3117 100.753C26.9305 100.753 26.5974 100.824 26.3124 100.967C26.0274 101.106 25.8069 101.305 25.6512 101.563C25.4954 101.818 25.4192 102.118 25.4225 102.463C25.4192 102.814 25.497 103.121 25.6561 103.383C25.8185 103.645 26.0423 103.848 26.3273 103.994C26.6123 104.14 26.9405 104.213 27.3117 104.213Z" fill="#D1D5DB"/>
<path d="M14.5198 105.416H31.627V106.371H14.5198V105.416Z" fill="#D1D5DB"/>
<path d="M61.6619 110V109.105L65.0227 105.426C65.4171 104.995 65.7419 104.621 65.9971 104.303C66.2523 103.981 66.4412 103.679 66.5639 103.398C66.6898 103.113 66.7528 102.814 66.7528 102.503C66.7528 102.145 66.6666 101.835 66.4943 101.573C66.3252 101.311 66.0932 101.109 65.7983 100.967C65.5033 100.824 65.1718 100.753 64.8039 100.753C64.4128 100.753 64.0715 100.834 63.7798 100.996C63.4914 101.156 63.2677 101.379 63.1086 101.668C62.9528 101.956 62.875 102.294 62.875 102.682H61.7017C61.7017 102.085 61.8392 101.562 62.1143 101.111C62.3894 100.66 62.7639 100.309 63.2379 100.057C63.7152 99.8049 64.2504 99.679 64.8437 99.679C65.4403 99.679 65.9689 99.8049 66.4296 100.057C66.8903 100.309 67.2516 100.648 67.5134 101.076C67.7753 101.504 67.9062 101.979 67.9062 102.503C67.9062 102.877 67.8383 103.244 67.7024 103.602C67.5698 103.956 67.3378 104.352 67.0063 104.79C66.6782 105.224 66.2225 105.754 65.6392 106.381L63.3522 108.827V108.906H68.0852V110H61.6619ZM73.3799 99.679C73.7975 99.6823 74.2152 99.7618 74.6328 99.9176C75.0504 100.073 75.4315 100.332 75.7762 100.693C76.1209 101.051 76.3977 101.54 76.6065 102.16C76.8153 102.78 76.9197 103.557 76.9197 104.491C76.9197 105.396 76.8335 106.2 76.6612 106.903C76.4921 107.602 76.2469 108.192 75.9254 108.673C75.6072 109.153 75.2194 109.518 74.762 109.766C74.308 110.015 73.7942 110.139 73.2208 110.139C72.6508 110.139 72.142 110.027 71.6946 109.801C71.2504 109.572 70.8858 109.256 70.6008 108.852C70.3191 108.444 70.1384 107.972 70.0589 107.435H71.272C71.3813 107.902 71.5984 108.288 71.9233 108.593C72.2514 108.895 72.6839 109.045 73.2208 109.045C74.0063 109.045 74.6261 108.702 75.0802 108.016C75.5376 107.33 75.7663 106.361 75.7663 105.108H75.6867C75.5011 105.386 75.2807 105.627 75.0255 105.829C74.7703 106.031 74.4869 106.187 74.1754 106.296C73.8638 106.406 73.5324 106.46 73.1811 106.46C72.5977 106.46 72.0625 106.316 71.5752 106.028C71.0913 105.736 70.7036 105.337 70.4119 104.83C70.1235 104.319 69.9794 103.736 69.9794 103.08C69.9794 102.456 70.1186 101.886 70.397 101.369C70.6787 100.849 71.0731 100.435 71.5802 100.126C72.0906 99.8182 72.6905 99.669 73.3799 99.679ZM73.3799 100.773C72.9623 100.773 72.5861 100.877 72.2514 101.086C71.9199 101.291 71.6564 101.57 71.4609 101.921C71.2687 102.269 71.1725 102.655 71.1725 103.08C71.1725 103.504 71.2653 103.89 71.4509 104.238C71.6399 104.583 71.8967 104.858 72.2215 105.063C72.5497 105.265 72.9225 105.366 73.3402 105.366C73.655 105.366 73.9483 105.305 74.2201 105.183C74.4919 105.057 74.7289 104.886 74.9311 104.67C75.1366 104.452 75.2973 104.205 75.4133 103.93C75.5293 103.651 75.5873 103.361 75.5873 103.06C75.5873 102.662 75.4912 102.289 75.299 101.941C75.11 101.593 74.8482 101.311 74.5134 101.096C74.182 100.88 73.8042 100.773 73.3799 100.773Z" fill="#D1D5DB"/>
<path d="M60.6079 105.416H77.8146V106.371H60.6079V105.416Z" fill="#D1D5DB"/>
<path d="M111.019 110.139C110.363 110.139 109.778 110.027 109.264 109.801C108.754 109.576 108.348 109.263 108.046 108.862C107.748 108.457 107.586 107.988 107.559 107.455H108.812C108.839 107.783 108.951 108.066 109.15 108.305C109.349 108.54 109.609 108.722 109.931 108.852C110.252 108.981 110.608 109.045 111 109.045C111.437 109.045 111.825 108.969 112.163 108.817C112.501 108.664 112.766 108.452 112.958 108.18C113.151 107.909 113.247 107.594 113.247 107.236C113.247 106.861 113.154 106.531 112.968 106.246C112.783 105.958 112.511 105.733 112.153 105.57C111.795 105.408 111.358 105.327 110.84 105.327H110.025V104.233H110.84C111.245 104.233 111.599 104.16 111.904 104.014C112.213 103.868 112.453 103.663 112.625 103.398C112.801 103.133 112.889 102.821 112.889 102.463C112.889 102.118 112.813 101.818 112.66 101.563C112.508 101.308 112.292 101.109 112.014 100.967C111.739 100.824 111.414 100.753 111.039 100.753C110.688 100.753 110.357 100.817 110.045 100.947C109.737 101.073 109.485 101.257 109.289 101.499C109.094 101.737 108.988 102.026 108.971 102.364H107.778C107.798 101.83 107.959 101.363 108.26 100.962C108.562 100.557 108.956 100.242 109.443 100.017C109.934 99.7917 110.473 99.679 111.059 99.679C111.689 99.679 112.229 99.8066 112.68 100.062C113.131 100.314 113.477 100.647 113.719 101.061C113.961 101.475 114.082 101.923 114.082 102.403C114.082 102.977 113.931 103.466 113.63 103.87C113.331 104.274 112.925 104.554 112.412 104.71V104.79C113.055 104.896 113.557 105.169 113.918 105.61C114.279 106.048 114.46 106.589 114.46 107.236C114.46 107.789 114.309 108.286 114.007 108.727C113.709 109.165 113.301 109.509 112.784 109.761C112.267 110.013 111.679 110.139 111.019 110.139ZM119.814 110.139C119.065 110.139 118.427 109.935 117.9 109.528C117.373 109.117 116.97 108.522 116.692 107.743C116.414 106.961 116.274 106.016 116.274 104.909C116.274 103.809 116.414 102.869 116.692 102.09C116.974 101.308 117.378 100.711 117.905 100.3C118.435 99.8861 119.072 99.679 119.814 99.679C120.557 99.679 121.191 99.8861 121.718 100.3C122.249 100.711 122.653 101.308 122.931 102.09C123.213 102.869 123.354 103.809 123.354 104.909C123.354 106.016 123.215 106.961 122.936 107.743C122.658 108.522 122.255 109.117 121.728 109.528C121.201 109.935 120.563 110.139 119.814 110.139ZM119.814 109.045C120.557 109.045 121.133 108.687 121.544 107.972C121.955 107.256 122.161 106.235 122.161 104.909C122.161 104.027 122.066 103.277 121.877 102.657C121.692 102.037 121.423 101.565 121.072 101.24C120.724 100.915 120.305 100.753 119.814 100.753C119.078 100.753 118.503 101.116 118.089 101.842C117.675 102.564 117.468 103.587 117.468 104.909C117.468 105.791 117.56 106.54 117.746 107.156C117.932 107.773 118.198 108.242 118.546 108.563C118.898 108.885 119.32 109.045 119.814 109.045Z" fill="#D1D5DB"/>
<path d="M106.525 105.416H124.189V106.371H106.525V105.416Z" fill="#D1D5DB"/>
<path d="M158.283 110.139C157.627 110.139 157.042 110.027 156.528 109.801C156.018 109.576 155.612 109.263 155.31 108.862C155.012 108.457 154.85 107.988 154.823 107.455H156.076C156.103 107.783 156.215 108.066 156.414 108.305C156.613 108.54 156.873 108.722 157.195 108.852C157.516 108.981 157.872 109.045 158.263 109.045C158.701 109.045 159.089 108.969 159.427 108.817C159.765 108.664 160.03 108.452 160.222 108.18C160.415 107.909 160.511 107.594 160.511 107.236C160.511 106.861 160.418 106.531 160.232 106.246C160.047 105.958 159.775 105.733 159.417 105.57C159.059 105.408 158.621 105.327 158.104 105.327H157.289V104.233H158.104C158.509 104.233 158.863 104.16 159.168 104.014C159.477 103.868 159.717 103.663 159.889 103.398C160.065 103.133 160.153 102.821 160.153 102.463C160.153 102.118 160.076 101.818 159.924 101.563C159.772 101.308 159.556 101.109 159.278 100.967C159.003 100.824 158.678 100.753 158.303 100.753C157.952 100.753 157.621 100.817 157.309 100.947C157.001 101.073 156.749 101.257 156.553 101.499C156.358 101.737 156.252 102.026 156.235 102.364H155.042C155.062 101.83 155.223 101.363 155.524 100.962C155.826 100.557 156.22 100.242 156.707 100.017C157.198 99.7917 157.737 99.679 158.323 99.679C158.953 99.679 159.493 99.8066 159.944 100.062C160.395 100.314 160.741 100.647 160.983 101.061C161.225 101.475 161.346 101.923 161.346 102.403C161.346 102.977 161.195 103.466 160.893 103.87C160.595 104.274 160.189 104.554 159.675 104.71V104.79C160.318 104.896 160.821 105.169 161.182 105.61C161.543 106.048 161.724 106.589 161.724 107.236C161.724 107.789 161.573 108.286 161.271 108.727C160.973 109.165 160.565 109.509 160.048 109.761C159.531 110.013 158.943 110.139 158.283 110.139ZM167.337 99.8182V110H166.104V101.111H166.044L163.558 102.761V101.509L166.104 99.8182H167.337Z" fill="#D1D5DB"/>
<path d="M153.789 105.416H169.206V106.371H153.789V105.416Z" fill="#D1D5DB"/>
<path d="M209.023 99.8182V110H207.79V101.111H207.73L205.244 102.761V101.509L207.79 99.8182H209.023Z" fill="black"/>
<path d="M250.602 110V109.105L253.962 105.426C254.357 104.995 254.682 104.621 254.937 104.303C255.192 103.981 255.381 103.679 255.504 103.398C255.63 103.113 255.692 102.814 255.692 102.503C255.692 102.145 255.606 101.835 255.434 101.573C255.265 101.311 255.033 101.109 254.738 100.967C254.443 100.824 254.112 100.753 253.744 100.753C253.353 100.753 253.011 100.834 252.719 100.996C252.431 101.156 252.207 101.379 252.048 101.668C251.893 101.956 251.815 102.294 251.815 102.682H250.641C250.641 102.085 250.779 101.562 251.054 101.111C251.329 100.66 251.704 100.309 252.178 100.057C252.655 99.8049 253.19 99.679 253.783 99.679C254.38 99.679 254.909 99.8049 255.369 100.057C255.83 100.309 256.191 100.648 256.453 101.076C256.715 101.504 256.846 101.979 256.846 102.503C256.846 102.877 256.778 103.244 256.642 103.602C256.509 103.956 256.277 104.352 255.946 104.79C255.618 105.224 255.162 105.754 254.579 106.381L252.292 108.827V108.906H257.025V110H250.602Z" fill="black"/>
<path d="M299.966 110.139C299.31 110.139 298.725 110.027 298.211 109.801C297.701 109.576 297.295 109.263 296.993 108.862C296.695 108.457 296.532 107.988 296.506 107.455H297.759C297.785 107.783 297.898 108.066 298.097 108.305C298.296 108.54 298.556 108.722 298.877 108.852C299.199 108.981 299.555 109.045 299.946 109.045C300.384 109.045 300.771 108.969 301.109 108.817C301.448 108.664 301.713 108.452 301.905 108.18C302.097 107.909 302.193 107.594 302.193 107.236C302.193 106.861 302.1 106.531 301.915 106.246C301.729 105.958 301.457 105.733 301.1 105.57C300.742 105.408 300.304 105.327 299.787 105.327H298.972V104.233H299.787C300.191 104.233 300.546 104.16 300.851 104.014C301.159 103.868 301.399 103.663 301.572 103.398C301.747 103.133 301.835 102.821 301.835 102.463C301.835 102.118 301.759 101.818 301.607 101.563C301.454 101.308 301.239 101.109 300.96 100.967C300.685 100.824 300.36 100.753 299.986 100.753C299.635 100.753 299.303 100.817 298.992 100.947C298.683 101.073 298.431 101.257 298.236 101.499C298.04 101.737 297.934 102.026 297.918 102.364H296.725C296.744 101.83 296.905 101.363 297.207 100.962C297.508 100.557 297.903 100.242 298.39 100.017C298.881 99.7917 299.419 99.679 300.006 99.679C300.636 99.679 301.176 99.8066 301.627 100.062C302.077 100.314 302.424 100.647 302.666 101.061C302.908 101.475 303.028 101.923 303.028 102.403C303.028 102.977 302.878 103.466 302.576 103.87C302.278 104.274 301.872 104.554 301.358 104.71V104.79C302.001 104.896 302.503 105.169 302.864 105.61C303.226 106.048 303.406 106.589 303.406 107.236C303.406 107.789 303.256 108.286 302.954 108.727C302.656 109.165 302.248 109.509 301.731 109.761C301.214 110.013 300.626 110.139 299.966 110.139Z" fill="black"/>
<path d="M0 151C0 138.297 10.2974 128 23 128H46.1429V174H23C10.2975 174 0 163.703 0 151Z" fill="#F3F4F6"/>
<rect y="128" width="46.1429" height="46" rx="23" fill="black"/>
<path d="M19.3957 153.912V152.898L23.8701 145.818H24.6059V147.389H24.1087L20.728 152.739V152.818H26.7536V153.912H19.3957ZM24.1883 156V153.604V153.131V145.818H25.3616V156H24.1883Z" fill="white"/>
<rect width="46.1429" height="46" transform="translate(46.1428 128)" fill="#F3F4F6"/>
<path d="M69.1914 156.139C68.608 156.139 68.0827 156.023 67.6154 155.791C67.148 155.559 66.7735 155.241 66.4918 154.837C66.2101 154.432 66.0559 153.972 66.0294 153.455H67.2226C67.269 153.915 67.4778 154.296 67.849 154.598C68.2236 154.896 68.671 155.045 69.1914 155.045C69.609 155.045 69.9802 154.948 70.305 154.752C70.6331 154.557 70.89 154.288 71.0756 153.947C71.2645 153.602 71.359 153.213 71.359 152.778C71.359 152.334 71.2612 151.938 71.0657 151.59C70.8734 151.239 70.6083 150.962 70.2702 150.76C69.9321 150.558 69.546 150.455 69.1118 150.452C68.8003 150.448 68.4804 150.496 68.1523 150.596C67.8242 150.692 67.5541 150.816 67.3419 150.969L66.1885 150.83L66.805 145.818H72.0948V146.912H67.8391L67.4811 149.915H67.5408C67.7496 149.749 68.0114 149.612 68.3263 149.502C68.6412 149.393 68.9693 149.338 69.3107 149.338C69.9338 149.338 70.4889 149.487 70.9762 149.786C71.4667 150.08 71.8512 150.485 72.1296 150.999C72.4113 151.512 72.5522 152.099 72.5522 152.759C72.5522 153.408 72.4063 153.988 72.1147 154.499C71.8263 155.006 71.4286 155.407 70.9215 155.702C70.4144 155.993 69.8377 156.139 69.1914 156.139Z" fill="black"/>
<rect width="46.1429" height="46" transform="translate(92.2856 128)" fill="#F3F4F6"/>
<path d="M115.424 156.139C115.006 156.133 114.588 156.053 114.171 155.901C113.753 155.748 113.372 155.491 113.027 155.13C112.683 154.765 112.406 154.273 112.197 153.653C111.988 153.03 111.884 152.248 111.884 151.307C111.884 150.405 111.968 149.607 112.137 148.911C112.306 148.211 112.552 147.623 112.873 147.146C113.195 146.665 113.583 146.3 114.037 146.052C114.494 145.803 115.009 145.679 115.583 145.679C116.153 145.679 116.66 145.793 117.104 146.022C117.552 146.247 117.916 146.562 118.198 146.967C118.48 147.371 118.662 147.837 118.745 148.364H117.532C117.419 147.906 117.2 147.527 116.875 147.225C116.551 146.924 116.12 146.773 115.583 146.773C114.794 146.773 114.172 147.116 113.718 147.802C113.268 148.488 113.041 149.451 113.037 150.69H113.117C113.302 150.409 113.523 150.168 113.778 149.969C114.037 149.767 114.322 149.612 114.633 149.502C114.945 149.393 115.275 149.338 115.623 149.338C116.206 149.338 116.739 149.484 117.223 149.776C117.707 150.064 118.095 150.463 118.387 150.974C118.678 151.481 118.824 152.062 118.824 152.719C118.824 153.348 118.683 153.925 118.402 154.449C118.12 154.969 117.724 155.384 117.213 155.692C116.706 155.997 116.11 156.146 115.424 156.139ZM115.424 155.045C115.841 155.045 116.216 154.941 116.547 154.732C116.882 154.523 117.146 154.243 117.338 153.892C117.533 153.541 117.631 153.15 117.631 152.719C117.631 152.298 117.537 151.915 117.348 151.57C117.162 151.222 116.905 150.946 116.577 150.74C116.252 150.535 115.881 150.432 115.463 150.432C115.149 150.432 114.855 150.495 114.583 150.621C114.312 150.743 114.073 150.912 113.868 151.128C113.665 151.343 113.506 151.59 113.39 151.869C113.274 152.144 113.216 152.434 113.216 152.739C113.216 153.143 113.311 153.521 113.5 153.872C113.692 154.223 113.954 154.507 114.285 154.722C114.62 154.938 114.999 155.045 115.424 155.045Z" fill="black"/>
<rect width="46.1429" height="46" transform="translate(138.428 128)" fill="#F3F4F6"/>
<path d="M158.873 156L163.427 146.991V146.912H158.177V145.818H164.7V146.972L160.166 156H158.873Z" fill="black"/>
<rect width="46.1429" height="46" transform="translate(184.572 128)" fill="#F3F4F6"/>
<path d="M207.645 156.139C206.962 156.139 206.359 156.018 205.835 155.776C205.315 155.531 204.909 155.195 204.617 154.767C204.326 154.336 204.181 153.846 204.185 153.295C204.181 152.865 204.266 152.467 204.438 152.102C204.611 151.734 204.846 151.428 205.144 151.183C205.446 150.934 205.782 150.777 206.153 150.71V150.651C205.666 150.525 205.278 150.251 204.99 149.83C204.702 149.406 204.559 148.924 204.563 148.384C204.559 147.866 204.69 147.404 204.955 146.996C205.22 146.589 205.585 146.267 206.049 146.032C206.516 145.797 207.048 145.679 207.645 145.679C208.235 145.679 208.762 145.797 209.226 146.032C209.69 146.267 210.054 146.589 210.32 146.996C210.588 147.404 210.724 147.866 210.727 148.384C210.724 148.924 210.577 149.406 210.285 149.83C209.996 150.251 209.614 150.525 209.136 150.651V150.71C209.504 150.777 209.836 150.934 210.131 151.183C210.426 151.428 210.661 151.734 210.837 152.102C211.012 152.467 211.102 152.865 211.105 153.295C211.102 153.846 210.953 154.336 210.658 154.767C210.366 155.195 209.96 155.531 209.44 155.776C208.923 156.018 208.324 156.139 207.645 156.139ZM207.645 155.045C208.106 155.045 208.503 154.971 208.838 154.822C209.173 154.673 209.431 154.462 209.614 154.19C209.796 153.919 209.889 153.6 209.892 153.236C209.889 152.851 209.789 152.512 209.594 152.217C209.398 151.922 209.131 151.69 208.793 151.521C208.459 151.352 208.076 151.267 207.645 151.267C207.211 151.267 206.823 151.352 206.482 151.521C206.144 151.69 205.877 151.922 205.681 152.217C205.489 152.512 205.394 152.851 205.398 153.236C205.394 153.6 205.482 153.919 205.661 154.19C205.844 154.462 206.104 154.673 206.442 154.822C206.78 154.971 207.181 155.045 207.645 155.045ZM207.645 150.213C208.01 150.213 208.333 150.14 208.614 149.994C208.899 149.848 209.123 149.645 209.286 149.383C209.448 149.121 209.531 148.814 209.534 148.463C209.531 148.118 209.45 147.818 209.291 147.563C209.131 147.305 208.911 147.106 208.629 146.967C208.348 146.824 208.019 146.753 207.645 146.753C207.264 146.753 206.931 146.824 206.646 146.967C206.361 147.106 206.14 147.305 205.984 147.563C205.829 147.818 205.752 148.118 205.756 148.463C205.752 148.814 205.83 149.121 205.989 149.383C206.152 149.645 206.376 149.848 206.661 149.994C206.946 150.14 207.274 150.213 207.645 150.213Z" fill="black"/>
<rect width="46.1429" height="46" transform="translate(230.714 128)" fill="#F3F4F6"/>
<path d="M253.713 145.679C254.131 145.682 254.548 145.762 254.966 145.918C255.384 146.073 255.765 146.332 256.109 146.693C256.454 147.051 256.731 147.54 256.94 148.16C257.149 148.78 257.253 149.557 257.253 150.491C257.253 151.396 257.167 152.2 256.994 152.903C256.825 153.602 256.58 154.192 256.259 154.673C255.94 155.153 255.553 155.518 255.095 155.766C254.641 156.015 254.127 156.139 253.554 156.139C252.984 156.139 252.475 156.027 252.028 155.801C251.584 155.572 251.219 155.256 250.934 154.852C250.652 154.444 250.472 153.972 250.392 153.435H251.605C251.715 153.902 251.932 154.288 252.257 154.593C252.585 154.895 253.017 155.045 253.554 155.045C254.34 155.045 254.959 154.702 255.413 154.016C255.871 153.33 256.1 152.361 256.1 151.108H256.02C255.834 151.386 255.614 151.627 255.359 151.829C255.104 152.031 254.82 152.187 254.509 152.296C254.197 152.406 253.866 152.46 253.514 152.46C252.931 152.46 252.396 152.316 251.908 152.028C251.425 151.736 251.037 151.337 250.745 150.83C250.457 150.319 250.313 149.736 250.313 149.08C250.313 148.456 250.452 147.886 250.73 147.369C251.012 146.849 251.406 146.435 251.913 146.126C252.424 145.818 253.024 145.669 253.713 145.679ZM253.713 146.773C253.296 146.773 252.919 146.877 252.585 147.086C252.253 147.291 251.99 147.57 251.794 147.921C251.602 148.269 251.506 148.655 251.506 149.08C251.506 149.504 251.599 149.89 251.784 150.238C251.973 150.583 252.23 150.858 252.555 151.063C252.883 151.265 253.256 151.366 253.673 151.366C253.988 151.366 254.282 151.305 254.553 151.183C254.825 151.057 255.062 150.886 255.264 150.67C255.47 150.452 255.631 150.205 255.747 149.93C255.863 149.651 255.921 149.361 255.921 149.06C255.921 148.662 255.824 148.289 255.632 147.941C255.443 147.593 255.181 147.311 254.847 147.096C254.515 146.88 254.137 146.773 253.713 146.773Z" fill="black"/>
<path d="M276.857 128H300C312.703 128 323 138.297 323 151C323 163.703 312.703 174 300 174H276.857V128Z" fill="#F3F4F6"/>
<rect x="276.857" y="128" width="46.1429" height="46" rx="23" fill="black"/>
<path d="M296.933 145.818V156H295.7V147.111H295.641L293.155 148.761V147.509L295.7 145.818H296.933ZM303.183 156.139C302.434 156.139 301.796 155.935 301.269 155.528C300.742 155.117 300.339 154.522 300.06 153.743C299.782 152.961 299.643 152.016 299.643 150.909C299.643 149.809 299.782 148.869 300.06 148.09C300.342 147.308 300.747 146.711 301.274 146.3C301.804 145.886 302.44 145.679 303.183 145.679C303.925 145.679 304.56 145.886 305.087 146.3C305.617 146.711 306.021 147.308 306.3 148.09C306.582 148.869 306.722 149.809 306.722 150.909C306.722 152.016 306.583 152.961 306.305 153.743C306.026 154.522 305.624 155.117 305.097 155.528C304.57 155.935 303.932 156.139 303.183 156.139ZM303.183 155.045C303.925 155.045 304.502 154.687 304.913 153.972C305.324 153.256 305.529 152.235 305.529 150.909C305.529 150.027 305.435 149.277 305.246 148.657C305.06 148.037 304.792 147.565 304.44 147.24C304.092 146.915 303.673 146.753 303.183 146.753C302.447 146.753 301.872 147.116 301.457 147.842C301.043 148.564 300.836 149.587 300.836 150.909C300.836 151.791 300.929 152.54 301.114 153.156C301.3 153.773 301.567 154.242 301.915 154.563C302.266 154.885 302.689 155.045 303.183 155.045Z" fill="white"/>
<path d="M21.1972 191.818V202H19.9643V193.111H19.9046L17.4188 194.761V193.509L19.9643 191.818H21.1972ZM27.7051 191.818V202H26.4721V193.111H26.4124L23.9266 194.761V193.509L26.4721 191.818H27.7051Z" fill="black"/>
<path d="M66.3557 191.818V202H65.1227V193.111H65.0631L62.5773 194.761V193.509L65.1227 191.818H66.3557ZM69.284 202V201.105L72.6448 197.426C73.0392 196.995 73.364 196.621 73.6192 196.303C73.8744 195.981 74.0633 195.679 74.1859 195.398C74.3119 195.113 74.3749 194.814 74.3749 194.503C74.3749 194.145 74.2887 193.835 74.1163 193.573C73.9473 193.311 73.7153 193.109 73.4203 192.967C73.1253 192.824 72.7939 192.753 72.426 192.753C72.0349 192.753 71.6935 192.834 71.4019 192.996C71.1135 193.156 70.8898 193.379 70.7307 193.668C70.5749 193.956 70.497 194.294 70.497 194.682H69.3237C69.3237 194.085 69.4613 193.562 69.7364 193.111C70.0115 192.66 70.386 192.309 70.86 192.057C71.3372 191.805 71.8725 191.679 72.4658 191.679C73.0624 191.679 73.591 191.805 74.0517 192.057C74.5124 192.309 74.8737 192.648 75.1355 193.076C75.3974 193.504 75.5283 193.979 75.5283 194.503C75.5283 194.877 75.4603 195.244 75.3244 195.602C75.1919 195.956 74.9599 196.352 74.6284 196.79C74.3003 197.224 73.8446 197.754 73.2612 198.381L70.9743 200.827V200.906H75.7073V202H69.284Z" fill="black"/>
<path d="M112.28 191.818V202H111.047V193.111H110.987L108.501 194.761V193.509L111.047 191.818H112.28ZM118.648 202.139C117.992 202.139 117.407 202.027 116.893 201.801C116.383 201.576 115.977 201.263 115.675 200.862C115.377 200.457 115.215 199.988 115.188 199.455H116.441C116.467 199.783 116.58 200.066 116.779 200.305C116.978 200.54 117.238 200.722 117.56 200.852C117.881 200.981 118.237 201.045 118.628 201.045C119.066 201.045 119.454 200.969 119.792 200.817C120.13 200.664 120.395 200.452 120.587 200.18C120.78 199.909 120.876 199.594 120.876 199.236C120.876 198.861 120.783 198.531 120.597 198.246C120.412 197.958 120.14 197.733 119.782 197.57C119.424 197.408 118.986 197.327 118.469 197.327H117.654V196.233H118.469C118.874 196.233 119.228 196.16 119.533 196.014C119.842 195.868 120.082 195.663 120.254 195.398C120.43 195.133 120.518 194.821 120.518 194.463C120.518 194.118 120.441 193.818 120.289 193.563C120.137 193.308 119.921 193.109 119.643 192.967C119.368 192.824 119.043 192.753 118.668 192.753C118.317 192.753 117.985 192.817 117.674 192.947C117.366 193.073 117.114 193.257 116.918 193.499C116.723 193.737 116.617 194.026 116.6 194.364H115.407C115.427 193.83 115.588 193.363 115.889 192.962C116.191 192.557 116.585 192.242 117.072 192.017C117.563 191.792 118.101 191.679 118.688 191.679C119.318 191.679 119.858 191.807 120.309 192.062C120.76 192.314 121.106 192.647 121.348 193.061C121.59 193.475 121.711 193.923 121.711 194.403C121.711 194.977 121.56 195.466 121.258 195.87C120.96 196.274 120.554 196.554 120.04 196.71V196.79C120.683 196.896 121.186 197.169 121.547 197.61C121.908 198.048 122.089 198.589 122.089 199.236C122.089 199.789 121.938 200.286 121.636 200.727C121.338 201.165 120.93 201.509 120.413 201.761C119.896 202.013 119.308 202.139 118.648 202.139Z" fill="black"/>
<path d="M158.388 191.818V202H157.155V193.111H157.096L154.61 194.761V193.509L157.155 191.818H158.388ZM161.078 199.912V198.898L165.552 191.818H166.288V193.389H165.791L162.41 198.739V198.818H168.436V199.912H161.078ZM165.871 202V199.604V199.131V191.818H167.044V202H165.871Z" fill="black"/>
<path d="M204.764 191.818V202H203.531V193.111H203.471L200.985 194.761V193.509L203.531 191.818H204.764ZM210.874 202.139C210.291 202.139 209.765 202.023 209.298 201.791C208.831 201.559 208.456 201.241 208.174 200.837C207.893 200.432 207.739 199.972 207.712 199.455H208.905C208.952 199.915 209.16 200.296 209.532 200.598C209.906 200.896 210.354 201.045 210.874 201.045C211.292 201.045 211.663 200.948 211.988 200.752C212.316 200.557 212.573 200.288 212.758 199.947C212.947 199.602 213.042 199.213 213.042 198.778C213.042 198.334 212.944 197.938 212.748 197.59C212.556 197.239 212.291 196.962 211.953 196.76C211.615 196.558 211.229 196.455 210.794 196.452C210.483 196.448 210.163 196.496 209.835 196.596C209.507 196.692 209.237 196.816 209.025 196.969L207.871 196.83L208.488 191.818H213.777V192.912H209.522L209.164 195.915H209.223C209.432 195.749 209.694 195.612 210.009 195.502C210.324 195.393 210.652 195.338 210.993 195.338C211.616 195.338 212.172 195.487 212.659 195.786C213.149 196.08 213.534 196.485 213.812 196.999C214.094 197.512 214.235 198.099 214.235 198.759C214.235 199.408 214.089 199.988 213.797 200.499C213.509 201.006 213.111 201.407 212.604 201.702C212.097 201.993 211.52 202.139 210.874 202.139Z" fill="black"/>
<path d="M250.797 191.818V202H249.564V193.111H249.505L247.019 194.761V193.509L249.564 191.818H250.797ZM257.106 202.139C256.689 202.133 256.271 202.053 255.853 201.901C255.436 201.748 255.055 201.491 254.71 201.13C254.365 200.765 254.089 200.273 253.88 199.653C253.671 199.03 253.567 198.248 253.567 197.307C253.567 196.405 253.651 195.607 253.82 194.911C253.989 194.211 254.234 193.623 254.556 193.146C254.877 192.665 255.265 192.3 255.719 192.052C256.177 191.803 256.692 191.679 257.265 191.679C257.835 191.679 258.343 191.793 258.787 192.022C259.234 192.247 259.599 192.562 259.88 192.967C260.162 193.371 260.344 193.837 260.427 194.364H259.214C259.102 193.906 258.883 193.527 258.558 193.225C258.233 192.924 257.802 192.773 257.265 192.773C256.477 192.773 255.855 193.116 255.401 193.802C254.95 194.488 254.723 195.451 254.72 196.69H254.799C254.985 196.409 255.205 196.168 255.461 195.969C255.719 195.767 256.004 195.612 256.316 195.502C256.627 195.393 256.957 195.338 257.305 195.338C257.888 195.338 258.422 195.484 258.906 195.776C259.39 196.064 259.778 196.463 260.069 196.974C260.361 197.481 260.507 198.062 260.507 198.719C260.507 199.348 260.366 199.925 260.084 200.449C259.803 200.969 259.406 201.384 258.896 201.692C258.389 201.997 257.792 202.146 257.106 202.139ZM257.106 201.045C257.524 201.045 257.898 200.941 258.23 200.732C258.565 200.523 258.828 200.243 259.02 199.892C259.216 199.541 259.314 199.15 259.314 198.719C259.314 198.298 259.219 197.915 259.03 197.57C258.845 197.222 258.588 196.946 258.26 196.74C257.935 196.535 257.564 196.432 257.146 196.432C256.831 196.432 256.538 196.495 256.266 196.621C255.994 196.743 255.756 196.912 255.55 197.128C255.348 197.343 255.189 197.59 255.073 197.869C254.957 198.144 254.899 198.434 254.899 198.739C254.899 199.143 254.993 199.521 255.182 199.872C255.375 200.223 255.636 200.507 255.968 200.722C256.303 200.938 256.682 201.045 257.106 201.045Z" fill="black"/>
<path d="M297.309 191.818V202H296.076V193.111H296.017L293.531 194.761V193.509L296.076 191.818H297.309ZM300.556 202L305.11 192.991V192.912H299.86V191.818H306.382V192.972L301.848 202H300.556Z" fill="black"/>
<path d="M20.1377 237.818V248H18.9047V239.111H18.8451L16.3593 240.761V239.509L18.9047 237.818H20.1377ZM26.3273 248.139C25.6445 248.139 25.0413 248.018 24.5176 247.776C23.9973 247.531 23.5913 247.195 23.2996 246.767C23.0079 246.336 22.8638 245.846 22.8671 245.295C22.8638 244.865 22.9483 244.467 23.1206 244.102C23.293 243.734 23.5283 243.428 23.8266 243.183C24.1282 242.934 24.4646 242.777 24.8358 242.71V242.651C24.3486 242.525 23.9608 242.251 23.6725 241.83C23.3841 241.406 23.2416 240.924 23.2449 240.384C23.2416 239.866 23.3725 239.404 23.6377 238.996C23.9028 238.589 24.2674 238.267 24.7314 238.032C25.1988 237.797 25.7307 237.679 26.3273 237.679C26.9173 237.679 27.4443 237.797 27.9083 238.032C28.3723 238.267 28.7369 238.589 29.002 238.996C29.2705 239.404 29.4064 239.866 29.4097 240.384C29.4064 240.924 29.2589 241.406 28.9672 241.83C28.6789 242.251 28.2961 242.525 27.8188 242.651V242.71C28.1867 242.777 28.5181 242.934 28.8131 243.183C29.1081 243.428 29.3434 243.734 29.5191 244.102C29.6947 244.467 29.7842 244.865 29.7875 245.295C29.7842 245.846 29.6351 246.336 29.3401 246.767C29.0484 247.195 28.6424 247.531 28.122 247.776C27.605 248.018 27.0068 248.139 26.3273 248.139ZM26.3273 247.045C26.788 247.045 27.1857 246.971 27.5205 246.822C27.8552 246.673 28.1138 246.462 28.2961 246.19C28.4783 245.919 28.5711 245.6 28.5745 245.236C28.5711 244.851 28.4717 244.512 28.2762 244.217C28.0806 243.922 27.8138 243.69 27.4757 243.521C27.141 243.352 26.7582 243.267 26.3273 243.267C25.8931 243.267 25.5053 243.352 25.164 243.521C24.8259 243.69 24.5591 243.922 24.3635 244.217C24.1713 244.512 24.0768 244.851 24.0801 245.236C24.0768 245.6 24.1647 245.919 24.3436 246.19C24.5259 246.462 24.7861 246.673 25.1242 246.822C25.4622 246.971 25.8633 247.045 26.3273 247.045ZM26.3273 242.213C26.6919 242.213 27.015 242.14 27.2968 241.994C27.5818 241.848 27.8055 241.645 27.9679 241.383C28.1303 241.121 28.2132 240.814 28.2165 240.463C28.2132 240.118 28.132 239.818 27.9729 239.563C27.8138 239.305 27.5934 239.106 27.3117 238.967C27.03 238.824 26.7018 238.753 26.3273 238.753C25.9461 238.753 25.6131 238.824 25.328 238.967C25.043 239.106 24.8226 239.305 24.6668 239.563C24.511 239.818 24.4348 240.118 24.4381 240.463C24.4348 240.814 24.5127 241.121 24.6718 241.383C24.8342 241.645 25.0579 241.848 25.3429 241.994C25.628 242.14 25.9561 242.213 26.3273 242.213Z" fill="#D1D5DB"/>
<path d="M15.5042 243.416H30.6426V244.371H15.5042V243.416Z" fill="#D1D5DB"/>
<path d="M66.2258 237.818V248H64.9929V239.111H64.9332L62.4474 240.761V239.509L64.9929 237.818H66.2258ZM72.3956 237.679C72.8132 237.682 73.2308 237.762 73.6484 237.918C74.066 238.073 74.4472 238.332 74.7919 238.693C75.1366 239.051 75.4133 239.54 75.6221 240.16C75.8309 240.78 75.9353 241.557 75.9353 242.491C75.9353 243.396 75.8492 244.2 75.6768 244.903C75.5078 245.602 75.2625 246.192 74.941 246.673C74.6228 247.153 74.235 247.518 73.7777 247.766C73.3236 248.015 72.8099 248.139 72.2365 248.139C71.6664 248.139 71.1576 248.027 70.7102 247.801C70.2661 247.572 69.9015 247.256 69.6164 246.852C69.3347 246.444 69.1541 245.972 69.0745 245.435H70.2876C70.397 245.902 70.6141 246.288 70.9389 246.593C71.267 246.895 71.6995 247.045 72.2365 247.045C73.022 247.045 73.6418 246.702 74.0958 246.016C74.5532 245.33 74.7819 244.361 74.7819 243.108H74.7024C74.5168 243.386 74.2964 243.627 74.0411 243.829C73.7859 244.031 73.5026 244.187 73.191 244.296C72.8795 244.406 72.548 244.46 72.1967 244.46C71.6134 244.46 71.0781 244.316 70.5909 244.028C70.107 243.736 69.7192 243.337 69.4275 242.83C69.1392 242.319 68.995 241.736 68.995 241.08C68.995 240.456 69.1342 239.886 69.4126 239.369C69.6943 238.849 70.0887 238.435 70.5958 238.126C71.1063 237.818 71.7062 237.669 72.3956 237.679ZM72.3956 238.773C71.9779 238.773 71.6018 238.877 71.267 239.086C70.9356 239.291 70.6721 239.57 70.4765 239.921C70.2843 240.269 70.1882 240.655 70.1882 241.08C70.1882 241.504 70.281 241.89 70.4666 242.238C70.6555 242.583 70.9124 242.858 71.2372 243.063C71.5653 243.265 71.9382 243.366 72.3558 243.366C72.6706 243.366 72.964 243.305 73.2358 243.183C73.5075 243.057 73.7445 242.886 73.9467 242.67C74.1522 242.452 74.3129 242.205 74.4289 241.93C74.5449 241.651 74.6029 241.361 74.6029 241.06C74.6029 240.662 74.5068 240.289 74.3146 239.941C74.1257 239.593 73.8638 239.311 73.5291 239.096C73.1976 238.88 72.8198 238.773 72.3956 238.773Z" fill="#D1D5DB"/>
<path d="M61.5923 243.416H76.8302V244.371H61.5923V243.416Z" fill="#D1D5DB"/>
<path d="M107.798 248V247.105L111.159 243.426C111.553 242.995 111.878 242.621 112.133 242.303C112.388 241.981 112.577 241.679 112.7 241.398C112.826 241.113 112.889 240.814 112.889 240.503C112.889 240.145 112.803 239.835 112.63 239.573C112.461 239.311 112.229 239.109 111.934 238.967C111.639 238.824 111.308 238.753 110.94 238.753C110.549 238.753 110.207 238.834 109.916 238.996C109.627 239.156 109.404 239.379 109.245 239.668C109.089 239.956 109.011 240.294 109.011 240.682H107.838C107.838 240.085 107.975 239.562 108.25 239.111C108.525 238.66 108.9 238.309 109.374 238.057C109.851 237.805 110.386 237.679 110.98 237.679C111.576 237.679 112.105 237.805 112.566 238.057C113.026 238.309 113.388 238.648 113.649 239.076C113.911 239.504 114.042 239.979 114.042 240.503C114.042 240.877 113.974 241.244 113.838 241.602C113.706 241.956 113.474 242.352 113.142 242.79C112.814 243.224 112.358 243.754 111.775 244.381L109.488 246.827V246.906H114.221V248H107.798ZM119.595 248.139C118.846 248.139 118.208 247.935 117.681 247.528C117.154 247.117 116.752 246.522 116.473 245.743C116.195 244.961 116.056 244.016 116.056 242.909C116.056 241.809 116.195 240.869 116.473 240.09C116.755 239.308 117.159 238.711 117.686 238.3C118.217 237.886 118.853 237.679 119.595 237.679C120.338 237.679 120.973 237.886 121.5 238.3C122.03 238.711 122.434 239.308 122.713 240.09C122.994 240.869 123.135 241.809 123.135 242.909C123.135 244.016 122.996 244.961 122.718 245.743C122.439 246.522 122.037 247.117 121.51 247.528C120.983 247.935 120.345 248.139 119.595 248.139ZM119.595 247.045C120.338 247.045 120.915 246.687 121.326 245.972C121.737 245.256 121.942 244.235 121.942 242.909C121.942 242.027 121.848 241.277 121.659 240.657C121.473 240.037 121.205 239.565 120.853 239.24C120.505 238.915 120.086 238.753 119.595 238.753C118.86 238.753 118.285 239.116 117.87 239.842C117.456 240.564 117.249 241.587 117.249 242.909C117.249 243.791 117.342 244.54 117.527 245.156C117.713 245.773 117.98 246.242 118.328 246.563C118.679 246.885 119.102 247.045 119.595 247.045Z" fill="#D1D5DB"/>
<path d="M106.744 243.416H123.97V244.371H106.744V243.416Z" fill="#D1D5DB"/>
<path d="M155.062 248V247.105L158.423 243.426C158.817 242.995 159.142 242.621 159.397 242.303C159.652 241.981 159.841 241.679 159.964 241.398C160.09 241.113 160.153 240.814 160.153 240.503C160.153 240.145 160.067 239.835 159.894 239.573C159.725 239.311 159.493 239.109 159.198 238.967C158.903 238.824 158.572 238.753 158.204 238.753C157.813 238.753 157.471 238.834 157.18 238.996C156.891 239.156 156.668 239.379 156.509 239.668C156.353 239.956 156.275 240.294 156.275 240.682H155.102C155.102 240.085 155.239 239.562 155.514 239.111C155.789 238.66 156.164 238.309 156.638 238.057C157.115 237.805 157.65 237.679 158.244 237.679C158.84 237.679 159.369 237.805 159.83 238.057C160.29 238.309 160.652 238.648 160.913 239.076C161.175 239.504 161.306 239.979 161.306 240.503C161.306 240.877 161.238 241.244 161.102 241.602C160.97 241.956 160.738 242.352 160.406 242.79C160.078 243.224 159.622 243.754 159.039 244.381L156.752 246.827V246.906H161.485V248H155.062ZM167.118 237.818V248H165.885V239.111H165.825L163.339 240.761V239.509L165.885 237.818H167.118Z" fill="#D1D5DB"/>
<path d="M154.008 243.416H168.987V244.371H154.008V243.416Z" fill="#D1D5DB"/>
<path d="M200.22 248V247.105L203.581 243.426C203.976 242.995 204.301 242.621 204.556 242.303C204.811 241.981 205 241.679 205.122 241.398C205.248 241.113 205.311 240.814 205.311 240.503C205.311 240.145 205.225 239.835 205.053 239.573C204.884 239.311 204.652 239.109 204.357 238.967C204.062 238.824 203.73 238.753 203.363 238.753C202.971 238.753 202.63 238.834 202.338 238.996C202.05 239.156 201.826 239.379 201.667 239.668C201.511 239.956 201.434 240.294 201.434 240.682H200.26C200.26 240.085 200.398 239.562 200.673 239.111C200.948 238.66 201.323 238.309 201.796 238.057C202.274 237.805 202.809 237.679 203.402 237.679C203.999 237.679 204.528 237.805 204.988 238.057C205.449 238.309 205.81 238.648 206.072 239.076C206.334 239.504 206.465 239.979 206.465 240.503C206.465 240.877 206.397 241.244 206.261 241.602C206.128 241.956 205.896 242.352 205.565 242.79C205.237 243.224 204.781 243.754 204.198 244.381L201.911 246.827V246.906H206.644V248H200.22ZM208.697 248V247.105L212.058 243.426C212.452 242.995 212.777 242.621 213.032 242.303C213.287 241.981 213.476 241.679 213.599 241.398C213.725 241.113 213.788 240.814 213.788 240.503C213.788 240.145 213.702 239.835 213.529 239.573C213.36 239.311 213.128 239.109 212.833 238.967C212.538 238.824 212.207 238.753 211.839 238.753C211.448 238.753 211.107 238.834 210.815 238.996C210.527 239.156 210.303 239.379 210.144 239.668C209.988 239.956 209.91 240.294 209.91 240.682H208.737C208.737 240.085 208.874 239.562 209.149 239.111C209.425 238.66 209.799 238.309 210.273 238.057C210.75 237.805 211.286 237.679 211.879 237.679C212.475 237.679 213.004 237.805 213.465 238.057C213.926 238.309 214.287 238.648 214.549 239.076C214.81 239.504 214.941 239.979 214.941 240.503C214.941 240.877 214.873 241.244 214.738 241.602C214.605 241.956 214.373 242.352 214.042 242.79C213.713 243.224 213.258 243.754 212.674 244.381L210.387 246.827V246.906H215.12V248H208.697Z" fill="#D1D5DB"/>
<path d="M199.167 243.416H216.115V244.371H199.167V243.416Z" fill="#D1D5DB"/>
<path d="M246.145 248V247.105L249.505 243.426C249.9 242.995 250.225 242.621 250.48 242.303C250.735 241.981 250.924 241.679 251.047 241.398C251.172 241.113 251.235 240.814 251.235 240.503C251.235 240.145 251.149 239.835 250.977 239.573C250.808 239.311 250.576 239.109 250.281 238.967C249.986 238.824 249.654 238.753 249.287 238.753C248.896 238.753 248.554 238.834 248.262 238.996C247.974 239.156 247.75 239.379 247.591 239.668C247.436 239.956 247.358 240.294 247.358 240.682H246.184C246.184 240.085 246.322 239.562 246.597 239.111C246.872 238.66 247.247 238.309 247.721 238.057C248.198 237.805 248.733 237.679 249.326 237.679C249.923 237.679 250.452 237.805 250.912 238.057C251.373 238.309 251.734 238.648 251.996 239.076C252.258 239.504 252.389 239.979 252.389 240.503C252.389 240.877 252.321 241.244 252.185 241.602C252.052 241.956 251.82 242.352 251.489 242.79C251.161 243.224 250.705 243.754 250.122 244.381L247.835 246.827V246.906H252.568V248H246.145ZM258.061 248.139C257.405 248.139 256.82 248.027 256.306 247.801C255.796 247.576 255.39 247.263 255.088 246.862C254.79 246.457 254.628 245.988 254.601 245.455H255.854C255.881 245.783 255.993 246.066 256.192 246.305C256.391 246.54 256.651 246.722 256.973 246.852C257.294 246.981 257.65 247.045 258.042 247.045C258.479 247.045 258.867 246.969 259.205 246.817C259.543 246.664 259.808 246.452 260 246.18C260.193 245.909 260.289 245.594 260.289 245.236C260.289 244.861 260.196 244.531 260.01 244.246C259.825 243.958 259.553 243.733 259.195 243.57C258.837 243.408 258.4 243.327 257.882 243.327H257.067V242.233H257.882C258.287 242.233 258.641 242.16 258.946 242.014C259.255 241.868 259.495 241.663 259.667 241.398C259.843 241.133 259.931 240.821 259.931 240.463C259.931 240.118 259.855 239.818 259.702 239.563C259.55 239.308 259.334 239.109 259.056 238.967C258.781 238.824 258.456 238.753 258.081 238.753C257.73 238.753 257.399 238.817 257.087 238.947C256.779 239.073 256.527 239.257 256.331 239.499C256.136 239.737 256.03 240.026 256.013 240.364H254.82C254.84 239.83 255.001 239.363 255.302 238.962C255.604 238.557 255.998 238.242 256.485 238.017C256.976 237.792 257.515 237.679 258.101 237.679C258.731 237.679 259.271 237.807 259.722 238.062C260.173 238.314 260.519 238.647 260.761 239.061C261.003 239.475 261.124 239.923 261.124 240.403C261.124 240.977 260.973 241.466 260.672 241.87C260.373 242.274 259.967 242.554 259.454 242.71V242.79C260.096 242.896 260.599 243.169 260.96 243.61C261.321 244.048 261.502 244.589 261.502 245.236C261.502 245.789 261.351 246.286 261.049 246.727C260.751 247.165 260.343 247.509 259.826 247.761C259.309 248.013 258.721 248.139 258.061 248.139Z" fill="#D1D5DB"/>
<path d="M245.091 243.416H262.476V244.371H245.091V243.416Z" fill="#D1D5DB"/>
<path d="M292.363 248V247.105L295.723 243.426C296.118 242.995 296.443 242.621 296.698 242.303C296.953 241.981 297.142 241.679 297.265 241.398C297.391 241.113 297.453 240.814 297.453 240.503C297.453 240.145 297.367 239.835 297.195 239.573C297.026 239.311 296.794 239.109 296.499 238.967C296.204 238.824 295.873 238.753 295.505 238.753C295.114 238.753 294.772 238.834 294.48 238.996C294.192 239.156 293.968 239.379 293.809 239.668C293.654 239.956 293.576 240.294 293.576 240.682H292.402C292.402 240.085 292.54 239.562 292.815 239.111C293.09 238.66 293.465 238.309 293.939 238.057C294.416 237.805 294.951 237.679 295.544 237.679C296.141 237.679 296.67 237.805 297.13 238.057C297.591 238.309 297.952 238.648 298.214 239.076C298.476 239.504 298.607 239.979 298.607 240.503C298.607 240.877 298.539 241.244 298.403 241.602C298.27 241.956 298.038 242.352 297.707 242.79C297.379 243.224 296.923 243.754 296.34 244.381L294.053 246.827V246.906H298.786V248H292.363ZM300.382 245.912V244.898L304.856 237.818H305.592V239.389H305.095L301.714 244.739V244.818H307.74V245.912H300.382ZM305.174 248V245.604V245.131V237.818H306.348V248H305.174Z" fill="#D1D5DB"/>
<path d="M291.309 243.416H308.555V244.371H291.309V243.416Z" fill="#D1D5DB"/>
<path d="M15.6284 294V293.105L18.9892 289.426C19.3836 288.995 19.7085 288.621 19.9637 288.303C20.2189 287.981 20.4078 287.679 20.5304 287.398C20.6564 287.113 20.7193 286.814 20.7193 286.503C20.7193 286.145 20.6332 285.835 20.4608 285.573C20.2918 285.311 20.0598 285.109 19.7648 284.967C19.4698 284.824 19.1384 284.753 18.7705 284.753C18.3794 284.753 18.038 284.834 17.7463 284.996C17.458 285.156 17.2343 285.379 17.0752 285.668C16.9194 285.956 16.8415 286.294 16.8415 286.682H15.6682C15.6682 286.085 15.8058 285.562 16.0809 285.111C16.3559 284.66 16.7305 284.309 17.2044 284.057C17.6817 283.805 18.217 283.679 18.8103 283.679C19.4068 283.679 19.9355 283.805 20.3962 284.057C20.8569 284.309 21.2182 284.648 21.48 285.076C21.7418 285.504 21.8728 285.979 21.8728 286.503C21.8728 286.877 21.8048 287.244 21.6689 287.602C21.5363 287.956 21.3043 288.352 20.9729 288.79C20.6448 289.224 20.189 289.754 19.6057 290.381L17.3188 292.827V292.906H22.0517V294H15.6284ZM27.2868 294.139C26.7035 294.139 26.1782 294.023 25.7108 293.791C25.2435 293.559 24.869 293.241 24.5872 292.837C24.3055 292.432 24.1514 291.972 24.1249 291.455H25.3181C25.3645 291.915 25.5733 292.296 25.9445 292.598C26.319 292.896 26.7665 293.045 27.2868 293.045C27.7044 293.045 28.0756 292.948 28.4005 292.752C28.7286 292.557 28.9854 292.288 29.1711 291.947C29.36 291.602 29.4544 291.213 29.4544 290.778C29.4544 290.334 29.3567 289.938 29.1611 289.59C28.9689 289.239 28.7037 288.962 28.3657 288.76C28.0276 288.558 27.6415 288.455 27.2073 288.452C26.8957 288.448 26.5759 288.496 26.2478 288.596C25.9196 288.692 25.6495 288.816 25.4374 288.969L24.284 288.83L24.9005 283.818H30.1902V284.912H25.9345L25.5766 287.915H25.6363C25.8451 287.749 26.1069 287.612 26.4218 287.502C26.7366 287.393 27.0648 287.338 27.4061 287.338C28.0292 287.338 28.5844 287.487 29.0716 287.786C29.5622 288.08 29.9466 288.485 30.225 288.999C30.5068 289.512 30.6476 290.099 30.6476 290.759C30.6476 291.408 30.5018 291.988 30.2101 292.499C29.9218 293.006 29.524 293.407 29.0169 293.702C28.5098 293.993 27.9331 294.139 27.2868 294.139Z" fill="black"/>
<path d="M61.6619 294V293.105L65.0227 289.426C65.4171 288.995 65.7419 288.621 65.9971 288.303C66.2523 287.981 66.4412 287.679 66.5639 287.398C66.6898 287.113 66.7528 286.814 66.7528 286.503C66.7528 286.145 66.6666 285.835 66.4943 285.573C66.3252 285.311 66.0932 285.109 65.7983 284.967C65.5033 284.824 65.1718 284.753 64.8039 284.753C64.4128 284.753 64.0715 284.834 63.7798 284.996C63.4914 285.156 63.2677 285.379 63.1086 285.668C62.9528 285.956 62.875 286.294 62.875 286.682H61.7017C61.7017 286.085 61.8392 285.562 62.1143 285.111C62.3894 284.66 62.7639 284.309 63.2379 284.057C63.7152 283.805 64.2504 283.679 64.8437 283.679C65.4403 283.679 65.9689 283.805 66.4296 284.057C66.8903 284.309 67.2516 284.648 67.5134 285.076C67.7753 285.504 67.9062 285.979 67.9062 286.503C67.9062 286.877 67.8383 287.244 67.7024 287.602C67.5698 287.956 67.3378 288.352 67.0063 288.79C66.6782 289.224 66.2225 289.754 65.6392 290.381L63.3522 292.827V292.906H68.0852V294H61.6619ZM73.5191 294.139C73.1015 294.133 72.6839 294.053 72.2663 293.901C71.8487 293.748 71.4675 293.491 71.1228 293.13C70.7781 292.765 70.5014 292.273 70.2926 291.653C70.0838 291.03 69.9794 290.248 69.9794 289.307C69.9794 288.405 70.0639 287.607 70.2329 286.911C70.4019 286.211 70.6472 285.623 70.9687 285.146C71.2902 284.665 71.678 284.3 72.1321 284.052C72.5894 283.803 73.1048 283.679 73.6782 283.679C74.2483 283.679 74.7554 283.793 75.1995 284.022C75.647 284.247 76.0116 284.562 76.2933 284.967C76.575 285.371 76.7573 285.837 76.8402 286.364H75.6271C75.5144 285.906 75.2956 285.527 74.9708 285.225C74.646 284.924 74.2152 284.773 73.6782 284.773C72.8894 284.773 72.2679 285.116 71.8139 285.802C71.3631 286.488 71.1361 287.451 71.1328 288.69H71.2123C71.3979 288.409 71.6183 288.168 71.8735 287.969C72.1321 287.767 72.4171 287.612 72.7286 287.502C73.0402 287.393 73.37 287.338 73.718 287.338C74.3013 287.338 74.8349 287.484 75.3188 287.776C75.8027 288.064 76.1905 288.463 76.4822 288.974C76.7739 289.481 76.9197 290.062 76.9197 290.719C76.9197 291.348 76.7788 291.925 76.4971 292.449C76.2154 292.969 75.8193 293.384 75.3089 293.692C74.8018 293.997 74.2052 294.146 73.5191 294.139ZM73.5191 293.045C73.9367 293.045 74.3113 292.941 74.6427 292.732C74.9775 292.523 75.241 292.243 75.4332 291.892C75.6287 291.541 75.7265 291.15 75.7265 290.719C75.7265 290.298 75.6321 289.915 75.4431 289.57C75.2575 289.222 75.0007 288.946 74.6725 288.74C74.3477 288.535 73.9765 288.432 73.5589 288.432C73.244 288.432 72.9507 288.495 72.6789 288.621C72.4072 288.743 72.1685 288.912 71.963 289.128C71.7608 289.343 71.6018 289.59 71.4858 289.869C71.3697 290.144 71.3117 290.434 71.3117 290.739C71.3117 291.143 71.4062 291.521 71.5951 291.872C71.7874 292.223 72.0492 292.507 72.3806 292.722C72.7154 292.938 73.0949 293.045 73.5191 293.045Z" fill="black"/>
<path d="M108.174 294V293.105L111.535 289.426C111.929 288.995 112.254 288.621 112.509 288.303C112.764 287.981 112.953 287.679 113.076 287.398C113.202 287.113 113.265 286.814 113.265 286.503C113.265 286.145 113.179 285.835 113.006 285.573C112.837 285.311 112.605 285.109 112.31 284.967C112.015 284.824 111.684 284.753 111.316 284.753C110.925 284.753 110.583 284.834 110.292 284.996C110.003 285.156 109.78 285.379 109.621 285.668C109.465 285.956 109.387 286.294 109.387 286.682H108.214C108.214 286.085 108.351 285.562 108.626 285.111C108.901 284.66 109.276 284.309 109.75 284.057C110.227 283.805 110.762 283.679 111.356 283.679C111.952 283.679 112.481 283.805 112.942 284.057C113.402 284.309 113.764 284.648 114.025 285.076C114.287 285.504 114.418 285.979 114.418 286.503C114.418 286.877 114.35 287.244 114.214 287.602C114.082 287.956 113.85 288.352 113.518 288.79C113.19 289.224 112.734 289.754 112.151 290.381L109.864 292.827V292.906H114.597V294H108.174ZM116.969 294L121.523 284.991V284.912H116.273V283.818H122.795V284.972L118.261 294H116.969Z" fill="black"/>
<path d="M154.002 294V293.105L157.363 289.426C157.757 288.995 158.082 288.621 158.337 288.303C158.593 287.981 158.782 287.679 158.904 287.398C159.03 287.113 159.093 286.814 159.093 286.503C159.093 286.145 159.007 285.835 158.835 285.573C158.666 285.311 158.434 285.109 158.139 284.967C157.844 284.824 157.512 284.753 157.144 284.753C156.753 284.753 156.412 284.834 156.12 284.996C155.832 285.156 155.608 285.379 155.449 285.668C155.293 285.956 155.215 286.294 155.215 286.682H154.042C154.042 286.085 154.18 285.562 154.455 285.111C154.73 284.66 155.104 284.309 155.578 284.057C156.055 283.805 156.591 283.679 157.184 283.679C157.781 283.679 158.309 283.805 158.77 284.057C159.231 284.309 159.592 284.648 159.854 285.076C160.116 285.504 160.247 285.979 160.247 286.503C160.247 286.877 160.179 287.244 160.043 287.602C159.91 287.956 159.678 288.352 159.347 288.79C159.019 289.224 158.563 289.754 157.979 290.381L155.693 292.827V292.906H160.426V294H154.002ZM165.74 294.139C165.057 294.139 164.454 294.018 163.93 293.776C163.41 293.531 163.004 293.195 162.712 292.767C162.421 292.336 162.277 291.846 162.28 291.295C162.277 290.865 162.361 290.467 162.533 290.102C162.706 289.734 162.941 289.428 163.239 289.183C163.541 288.934 163.877 288.777 164.249 288.71V288.651C163.761 288.525 163.374 288.251 163.085 287.83C162.797 287.406 162.654 286.924 162.658 286.384C162.654 285.866 162.785 285.404 163.051 284.996C163.316 284.589 163.68 284.267 164.144 284.032C164.612 283.797 165.144 283.679 165.74 283.679C166.33 283.679 166.857 283.797 167.321 284.032C167.785 284.267 168.15 284.589 168.415 284.996C168.683 285.404 168.819 285.866 168.823 286.384C168.819 286.924 168.672 287.406 168.38 287.83C168.092 288.251 167.709 288.525 167.232 288.651V288.71C167.6 288.777 167.931 288.934 168.226 289.183C168.521 289.428 168.756 289.734 168.932 290.102C169.108 290.467 169.197 290.865 169.2 291.295C169.197 291.846 169.048 292.336 168.753 292.767C168.461 293.195 168.055 293.531 167.535 293.776C167.018 294.018 166.42 294.139 165.74 294.139ZM165.74 293.045C166.201 293.045 166.599 292.971 166.933 292.822C167.268 292.673 167.527 292.462 167.709 292.19C167.891 291.919 167.984 291.6 167.987 291.236C167.984 290.851 167.885 290.512 167.689 290.217C167.493 289.922 167.227 289.69 166.889 289.521C166.554 289.352 166.171 289.267 165.74 289.267C165.306 289.267 164.918 289.352 164.577 289.521C164.239 289.69 163.972 289.922 163.776 290.217C163.584 290.512 163.49 290.851 163.493 291.236C163.49 291.6 163.578 291.919 163.756 292.19C163.939 292.462 164.199 292.673 164.537 292.822C164.875 292.971 165.276 293.045 165.74 293.045ZM165.74 288.213C166.105 288.213 166.428 288.14 166.71 287.994C166.995 287.848 167.218 287.645 167.381 287.383C167.543 287.121 167.626 286.814 167.629 286.463C167.626 286.118 167.545 285.818 167.386 285.563C167.227 285.305 167.006 285.106 166.725 284.967C166.443 284.824 166.115 284.753 165.74 284.753C165.359 284.753 165.026 284.824 164.741 284.967C164.456 285.106 164.235 285.305 164.08 285.563C163.924 285.818 163.848 286.118 163.851 286.463C163.848 286.814 163.926 287.121 164.085 287.383C164.247 287.645 164.471 287.848 164.756 287.994C165.041 288.14 165.369 288.213 165.74 288.213Z" fill="black"/>
<path d="M200.091 294V293.105L203.451 289.426C203.846 288.995 204.171 288.621 204.426 288.303C204.681 287.981 204.87 287.679 204.993 287.398C205.119 287.113 205.182 286.814 205.182 286.503C205.182 286.145 205.095 285.835 204.923 285.573C204.754 285.311 204.522 285.109 204.227 284.967C203.932 284.824 203.601 284.753 203.233 284.753C202.842 284.753 202.5 284.834 202.208 284.996C201.92 285.156 201.696 285.379 201.537 285.668C201.382 285.956 201.304 286.294 201.304 286.682H200.13C200.13 286.085 200.268 285.562 200.543 285.111C200.818 284.66 201.193 284.309 201.667 284.057C202.144 283.805 202.679 283.679 203.272 283.679C203.869 283.679 204.398 283.805 204.858 284.057C205.319 284.309 205.68 284.648 205.942 285.076C206.204 285.504 206.335 285.979 206.335 286.503C206.335 286.877 206.267 287.244 206.131 287.602C205.999 287.956 205.766 288.352 205.435 288.79C205.107 289.224 204.651 289.754 204.068 290.381L201.781 292.827V292.906H206.514V294H200.091ZM211.809 283.679C212.226 283.682 212.644 283.762 213.061 283.918C213.479 284.073 213.86 284.332 214.205 284.693C214.55 285.051 214.826 285.54 215.035 286.16C215.244 286.78 215.348 287.557 215.348 288.491C215.348 289.396 215.262 290.2 215.09 290.903C214.921 291.602 214.676 292.192 214.354 292.673C214.036 293.153 213.648 293.518 213.191 293.766C212.737 294.015 212.223 294.139 211.65 294.139C211.079 294.139 210.571 294.027 210.123 293.801C209.679 293.572 209.315 293.256 209.03 292.852C208.748 292.444 208.567 291.972 208.488 291.435H209.701C209.81 291.902 210.027 292.288 210.352 292.593C210.68 292.895 211.113 293.045 211.65 293.045C212.435 293.045 213.055 292.702 213.509 292.016C213.966 291.33 214.195 290.361 214.195 289.108H214.115C213.93 289.386 213.709 289.627 213.454 289.829C213.199 290.031 212.916 290.187 212.604 290.296C212.293 290.406 211.961 290.46 211.61 290.46C211.026 290.46 210.491 290.316 210.004 290.028C209.52 289.736 209.132 289.337 208.841 288.83C208.552 288.319 208.408 287.736 208.408 287.08C208.408 286.456 208.547 285.886 208.826 285.369C209.107 284.849 209.502 284.435 210.009 284.126C210.519 283.818 211.119 283.669 211.809 283.679ZM211.809 284.773C211.391 284.773 211.015 284.877 210.68 285.086C210.349 285.291 210.085 285.57 209.89 285.921C209.697 286.269 209.601 286.655 209.601 287.08C209.601 287.504 209.694 287.89 209.88 288.238C210.069 288.583 210.325 288.858 210.65 289.063C210.978 289.265 211.351 289.366 211.769 289.366C212.084 289.366 212.377 289.305 212.649 289.183C212.921 289.057 213.158 288.886 213.36 288.67C213.565 288.452 213.726 288.205 213.842 287.93C213.958 287.651 214.016 287.361 214.016 287.06C214.016 286.662 213.92 286.289 213.728 285.941C213.539 285.593 213.277 285.311 212.942 285.096C212.611 284.88 212.233 284.773 211.809 284.773Z" fill="black"/>
<path d="M249.448 294.139C248.792 294.139 248.207 294.027 247.693 293.801C247.183 293.576 246.777 293.263 246.475 292.862C246.177 292.457 246.014 291.988 245.988 291.455H247.241C247.267 291.783 247.38 292.066 247.579 292.305C247.778 292.54 248.038 292.722 248.359 292.852C248.681 292.981 249.037 293.045 249.428 293.045C249.866 293.045 250.254 292.969 250.592 292.817C250.93 292.664 251.195 292.452 251.387 292.18C251.579 291.909 251.675 291.594 251.675 291.236C251.675 290.861 251.583 290.531 251.397 290.246C251.211 289.958 250.94 289.733 250.582 289.57C250.224 289.408 249.786 289.327 249.269 289.327H248.454V288.233H249.269C249.674 288.233 250.028 288.16 250.333 288.014C250.641 287.868 250.882 287.663 251.054 287.398C251.23 287.133 251.317 286.821 251.317 286.463C251.317 286.118 251.241 285.818 251.089 285.563C250.936 285.308 250.721 285.109 250.442 284.967C250.167 284.824 249.843 284.753 249.468 284.753C249.117 284.753 248.785 284.817 248.474 284.947C248.166 285.073 247.914 285.257 247.718 285.499C247.523 285.737 247.416 286.026 247.4 286.364H246.207C246.227 285.83 246.387 285.363 246.689 284.962C246.991 284.557 247.385 284.242 247.872 284.017C248.363 283.792 248.901 283.679 249.488 283.679C250.118 283.679 250.658 283.807 251.109 284.062C251.559 284.314 251.906 284.647 252.148 285.061C252.39 285.475 252.511 285.923 252.511 286.403C252.511 286.977 252.36 287.466 252.058 287.87C251.76 288.274 251.354 288.554 250.84 288.71V288.79C251.483 288.896 251.985 289.169 252.347 289.61C252.708 290.048 252.889 290.589 252.889 291.236C252.889 291.789 252.738 292.286 252.436 292.727C252.138 293.165 251.73 293.509 251.213 293.761C250.696 294.013 250.108 294.139 249.448 294.139ZM258.243 294.139C257.494 294.139 256.856 293.935 256.329 293.528C255.802 293.117 255.399 292.522 255.121 291.743C254.842 290.961 254.703 290.016 254.703 288.909C254.703 287.809 254.842 286.869 255.121 286.09C255.402 285.308 255.807 284.711 256.334 284.3C256.864 283.886 257.5 283.679 258.243 283.679C258.985 283.679 259.62 283.886 260.147 284.3C260.677 284.711 261.082 285.308 261.36 286.09C261.642 286.869 261.783 287.809 261.783 288.909C261.783 290.016 261.643 290.961 261.365 291.743C261.087 292.522 260.684 293.117 260.157 293.528C259.63 293.935 258.992 294.139 258.243 294.139ZM258.243 293.045C258.985 293.045 259.562 292.687 259.973 291.972C260.384 291.256 260.59 290.235 260.59 288.909C260.59 288.027 260.495 287.277 260.306 286.657C260.121 286.037 259.852 285.565 259.501 285.24C259.153 284.915 258.733 284.753 258.243 284.753C257.507 284.753 256.932 285.116 256.518 285.842C256.103 286.564 255.896 287.587 255.896 288.909C255.896 289.791 255.989 290.54 256.175 291.156C256.36 291.773 256.627 292.242 256.975 292.563C257.326 292.885 257.749 293.045 258.243 293.045Z" fill="black"/>
<path d="M301.308 283.818V294H300.075V285.111H300.016L297.53 286.761V285.509L300.075 283.818H301.308Z" fill="#D1D5DB"/>
</svg>
