<svg width="323" height="312" viewBox="0 0 323 312" fill="none" xmlns="http://www.w3.org/2000/svg">
<path d="M13.25 10.75L9.75 14L13.25 17.25" stroke="black" stroke-width="1.5" stroke-linecap="round" stroke-linejoin="round"/>
<path d="M99.7273 21V7.90909H107.845V9.60938H101.702V13.598H107.263V15.2919H101.702V21H99.7273ZM113.632 21.1982C112.664 21.1982 111.831 20.9915 111.132 20.5781C110.438 20.1605 109.901 19.5746 109.521 18.8203C109.146 18.0618 108.959 17.1733 108.959 16.1548C108.959 15.1491 109.146 14.2628 109.521 13.4957C109.901 12.7287 110.429 12.13 111.107 11.6996C111.789 11.2692 112.585 11.054 113.497 11.054C114.051 11.054 114.588 11.1456 115.108 11.3288C115.628 11.5121 116.095 11.7997 116.508 12.1918C116.921 12.5838 117.247 13.093 117.486 13.7195C117.725 14.3416 117.844 15.098 117.844 15.9886V16.6662H110.039V15.2344H115.971C115.971 14.7315 115.869 14.2862 115.664 13.8984C115.46 13.5064 115.172 13.1974 114.801 12.9716C114.435 12.7457 114.004 12.6328 113.51 12.6328C112.973 12.6328 112.504 12.7649 112.104 13.0291C111.708 13.2891 111.401 13.63 111.183 14.0518C110.97 14.4695 110.864 14.9233 110.864 15.4134V16.532C110.864 17.1882 110.979 17.7464 111.209 18.2067C111.443 18.6669 111.769 19.0185 112.187 19.2614C112.605 19.5 113.093 19.6193 113.651 19.6193C114.013 19.6193 114.343 19.5682 114.642 19.4659C114.94 19.3594 115.198 19.2017 115.415 18.9929C115.632 18.7841 115.798 18.5263 115.914 18.2195L117.722 18.5455C117.578 19.0781 117.318 19.5447 116.943 19.9453C116.572 20.3416 116.105 20.6506 115.543 20.8722C114.985 21.0895 114.347 21.1982 113.632 21.1982ZM120.118 21V7.90909H122.029V12.7734H122.144C122.255 12.5689 122.415 12.3324 122.624 12.0639C122.832 11.7955 123.122 11.5611 123.493 11.3608C123.864 11.1562 124.354 11.054 124.963 11.054C125.756 11.054 126.463 11.2543 127.085 11.6548C127.707 12.0554 128.195 12.6328 128.549 13.3871C128.907 14.1413 129.086 15.049 129.086 16.1101C129.086 17.1712 128.909 18.081 128.555 18.8395C128.202 19.5937 127.716 20.1754 127.098 20.5845C126.48 20.9893 125.775 21.1918 124.982 21.1918C124.386 21.1918 123.898 21.0916 123.518 20.8913C123.143 20.6911 122.849 20.4567 122.636 20.1882C122.423 19.9197 122.259 19.6811 122.144 19.4723H121.984V21H120.118ZM121.991 16.0909C121.991 16.7812 122.091 17.3864 122.291 17.9062C122.491 18.4261 122.781 18.8331 123.161 19.1271C123.54 19.4169 124.004 19.5618 124.554 19.5618C125.125 19.5618 125.602 19.4105 125.986 19.108C126.369 18.8011 126.659 18.3857 126.855 17.8615C127.055 17.3374 127.156 16.7472 127.156 16.0909C127.156 15.4432 127.058 14.8615 126.862 14.3459C126.67 13.8303 126.38 13.4233 125.992 13.125C125.609 12.8267 125.129 12.6776 124.554 12.6776C124 12.6776 123.531 12.8203 123.148 13.1058C122.768 13.3913 122.481 13.7898 122.285 14.3011C122.089 14.8125 121.991 15.4091 121.991 16.0909ZM131.232 21V11.1818H133.079V12.7415H133.182C133.361 12.2131 133.676 11.7976 134.128 11.495C134.584 11.1882 135.099 11.0348 135.675 11.0348C135.794 11.0348 135.934 11.0391 136.096 11.0476C136.263 11.0561 136.393 11.0668 136.486 11.0795V12.9077C136.41 12.8864 136.273 12.8629 136.077 12.8374C135.881 12.8075 135.685 12.7926 135.489 12.7926C135.037 12.7926 134.635 12.8885 134.281 13.0803C133.932 13.2678 133.655 13.5298 133.45 13.8665C133.246 14.1989 133.143 14.5781 133.143 15.0043V21H131.232ZM144.36 16.9283V11.1818H146.277V21H144.398V19.2997H144.296C144.07 19.8239 143.708 20.2607 143.209 20.6101C142.715 20.9553 142.099 21.1278 141.362 21.1278C140.731 21.1278 140.173 20.9893 139.687 20.7124C139.206 20.4311 138.826 20.0156 138.549 19.4659C138.277 18.9162 138.14 18.2365 138.14 17.4268V11.1818H140.051V17.1967C140.051 17.8658 140.237 18.3984 140.608 18.7947C140.978 19.1911 141.46 19.3892 142.052 19.3892C142.41 19.3892 142.766 19.2997 143.12 19.1207C143.478 18.9418 143.774 18.6712 144.008 18.3089C144.247 17.9467 144.364 17.4865 144.36 16.9283ZM151.703 21.2173C151.08 21.2173 150.518 21.1023 150.015 20.8722C149.512 20.6378 149.114 20.299 148.82 19.8558C148.53 19.4126 148.385 18.8693 148.385 18.2259C148.385 17.6719 148.492 17.2159 148.705 16.858C148.918 16.5 149.205 16.2166 149.568 16.0078C149.93 15.799 150.335 15.6413 150.782 15.5348C151.23 15.4283 151.686 15.3473 152.15 15.2919C152.738 15.2237 153.215 15.1683 153.582 15.1257C153.948 15.0788 154.215 15.0043 154.381 14.902C154.547 14.7997 154.63 14.6335 154.63 14.4034V14.3587C154.63 13.8004 154.472 13.3679 154.157 13.0611C153.846 12.7543 153.382 12.6009 152.764 12.6009C152.12 12.6009 151.613 12.7436 151.242 13.0291C150.876 13.3104 150.622 13.6236 150.482 13.9688L148.686 13.5597C148.899 12.9631 149.21 12.4815 149.619 12.1151C150.032 11.7443 150.507 11.4759 151.044 11.3097C151.581 11.1392 152.146 11.054 152.738 11.054C153.13 11.054 153.546 11.1009 153.985 11.1946C154.428 11.2841 154.841 11.4503 155.225 11.6932C155.612 11.9361 155.93 12.2834 156.177 12.7351C156.424 13.1825 156.548 13.7642 156.548 14.4801V21H154.681V19.6577H154.605C154.481 19.9048 154.296 20.1477 154.048 20.3864C153.801 20.625 153.484 20.8232 153.096 20.9808C152.708 21.1385 152.244 21.2173 151.703 21.2173ZM152.118 19.6832C152.646 19.6832 153.098 19.5788 153.473 19.37C153.852 19.1612 154.14 18.8885 154.336 18.5518C154.536 18.2109 154.637 17.8466 154.637 17.4588V16.1932C154.568 16.2614 154.436 16.3253 154.24 16.3849C154.048 16.4403 153.829 16.4893 153.582 16.532C153.335 16.5703 153.094 16.6065 152.86 16.6406C152.625 16.6705 152.429 16.696 152.271 16.7173C151.901 16.7642 151.562 16.843 151.255 16.9538C150.953 17.0646 150.71 17.2244 150.526 17.4332C150.347 17.6378 150.258 17.9105 150.258 18.2514C150.258 18.7244 150.433 19.0824 150.782 19.3253C151.132 19.5639 151.577 19.6832 152.118 19.6832ZM159.093 21V11.1818H160.941V12.7415H161.043C161.222 12.2131 161.537 11.7976 161.989 11.495C162.445 11.1882 162.961 11.0348 163.536 11.0348C163.655 11.0348 163.796 11.0391 163.958 11.0476C164.124 11.0561 164.254 11.0668 164.348 11.0795V12.9077C164.271 12.8864 164.135 12.8629 163.939 12.8374C163.743 12.8075 163.547 12.7926 163.35 12.7926C162.899 12.7926 162.496 12.8885 162.142 13.0803C161.793 13.2678 161.516 13.5298 161.311 13.8665C161.107 14.1989 161.005 14.5781 161.005 15.0043V21H159.093ZM167.509 24.6818C167.223 24.6818 166.963 24.6584 166.729 24.6115C166.494 24.5689 166.32 24.522 166.205 24.4709L166.665 22.9048C167.014 22.9986 167.325 23.0391 167.598 23.0263C167.871 23.0135 168.112 22.9112 168.32 22.7195C168.533 22.5277 168.721 22.2145 168.883 21.7798L169.119 21.1278L165.527 11.1818H167.572L170.059 18.8011H170.161L172.648 11.1818H174.7L170.653 22.3104C170.466 22.8217 170.227 23.2543 169.938 23.608C169.648 23.9659 169.303 24.2344 168.902 24.4134C168.501 24.5923 168.037 24.6818 167.509 24.6818ZM181.234 21V19.5682L185.664 14.9787C186.137 14.4801 186.526 14.0433 186.833 13.6683C187.144 13.2891 187.377 12.929 187.53 12.5881C187.683 12.2472 187.76 11.8849 187.76 11.5014C187.76 11.0668 187.658 10.6918 187.453 10.3764C187.249 10.0568 186.97 9.81179 186.616 9.64134C186.262 9.46662 185.864 9.37926 185.421 9.37926C184.952 9.37926 184.543 9.47514 184.193 9.6669C183.844 9.85866 183.575 10.1293 183.388 10.4787C183.2 10.8281 183.107 11.2372 183.107 11.706H181.221C181.221 10.9091 181.404 10.2124 181.771 9.61577C182.137 9.01918 182.64 8.55682 183.279 8.22869C183.919 7.89631 184.645 7.73011 185.459 7.73011C186.281 7.73011 187.006 7.89418 187.632 8.2223C188.263 8.54616 188.755 8.98935 189.109 9.55185C189.463 10.1101 189.639 10.7408 189.639 11.4439C189.639 11.9297 189.548 12.4048 189.365 12.8693C189.186 13.3338 188.872 13.8516 188.425 14.4226C187.977 14.9893 187.355 15.6776 186.558 16.4872L183.957 19.2102V19.3061H189.85V21H181.234ZM196.83 21.2173C195.82 21.2131 194.958 20.9467 194.242 20.4183C193.526 19.8899 192.978 19.1207 192.599 18.1108C192.22 17.1009 192.03 15.8842 192.03 14.4609C192.03 13.0419 192.22 11.8295 192.599 10.8239C192.982 9.81818 193.532 9.05114 194.248 8.52273C194.968 7.99432 195.829 7.73011 196.83 7.73011C197.832 7.73011 198.691 7.99645 199.406 8.52912C200.122 9.05753 200.67 9.82457 201.049 10.8303C201.433 11.8317 201.624 13.0419 201.624 14.4609C201.624 15.8885 201.435 17.1072 201.056 18.1172C200.676 19.1229 200.129 19.892 199.413 20.4247C198.697 20.9531 197.836 21.2173 196.83 21.2173ZM196.83 19.5107C197.717 19.5107 198.409 19.0781 198.908 18.2131C199.411 17.348 199.662 16.0973 199.662 14.4609C199.662 13.3743 199.547 12.456 199.317 11.706C199.091 10.9517 198.765 10.3807 198.339 9.9929C197.917 9.60085 197.414 9.40483 196.83 9.40483C195.948 9.40483 195.256 9.83949 194.753 10.7088C194.25 11.5781 193.997 12.8288 193.992 14.4609C193.992 15.5518 194.105 16.4744 194.331 17.2287C194.561 17.9787 194.887 18.5476 195.309 18.9354C195.731 19.3189 196.238 19.5107 196.83 19.5107ZM203.892 21V19.5682L208.322 14.9787C208.795 14.4801 209.185 14.0433 209.491 13.6683C209.803 13.2891 210.035 12.929 210.188 12.5881C210.342 12.2472 210.418 11.8849 210.418 11.5014C210.418 11.0668 210.316 10.6918 210.112 10.3764C209.907 10.0568 209.628 9.81179 209.274 9.64134C208.92 9.46662 208.522 9.37926 208.079 9.37926C207.61 9.37926 207.201 9.47514 206.852 9.6669C206.502 9.85866 206.234 10.1293 206.046 10.4787C205.859 10.8281 205.765 11.2372 205.765 11.706H203.879C203.879 10.9091 204.063 10.2124 204.429 9.61577C204.795 9.01918 205.298 8.55682 205.938 8.22869C206.577 7.89631 207.303 7.73011 208.117 7.73011C208.94 7.73011 209.664 7.89418 210.29 8.2223C210.921 8.54616 211.413 8.98935 211.767 9.55185C212.121 10.1101 212.298 10.7408 212.298 11.4439C212.298 11.9297 212.206 12.4048 212.023 12.8693C211.844 13.3338 211.531 13.8516 211.083 14.4226C210.636 14.9893 210.013 15.6776 209.217 16.4872L206.615 19.2102V19.3061H212.509V21H203.892ZM214.931 21V19.5682L219.361 14.9787C219.834 14.4801 220.224 14.0433 220.531 13.6683C220.842 13.2891 221.074 12.929 221.227 12.5881C221.381 12.2472 221.457 11.8849 221.457 11.5014C221.457 11.0668 221.355 10.6918 221.151 10.3764C220.946 10.0568 220.667 9.81179 220.313 9.64134C219.96 9.46662 219.561 9.37926 219.118 9.37926C218.649 9.37926 218.24 9.47514 217.891 9.6669C217.541 9.85866 217.273 10.1293 217.085 10.4787C216.898 10.8281 216.804 11.2372 216.804 11.706H214.918C214.918 10.9091 215.102 10.2124 215.468 9.61577C215.835 9.01918 216.337 8.55682 216.977 8.22869C217.616 7.89631 218.342 7.73011 219.156 7.73011C219.979 7.73011 220.703 7.89418 221.33 8.2223C221.96 8.54616 222.452 8.98935 222.806 9.55185C223.16 10.1101 223.337 10.7408 223.337 11.4439C223.337 11.9297 223.245 12.4048 223.062 12.8693C222.883 13.3338 222.57 13.8516 222.122 14.4226C221.675 14.9893 221.053 15.6776 220.256 16.4872L217.654 19.2102V19.3061H223.548V21H214.931Z" fill="black"/>
<path d="M21.1282 56.6719C21.0885 56.2997 20.9208 56.0099 20.6254 55.8026C20.3328 55.5952 19.9521 55.4915 19.4833 55.4915C19.1538 55.4915 18.8711 55.5412 18.6353 55.6406C18.3995 55.7401 18.2191 55.875 18.0941 56.0455C17.9691 56.2159 17.9052 56.4105 17.9024 56.6293C17.9024 56.8111 17.9436 56.9687 18.026 57.1023C18.1112 57.2358 18.2262 57.3494 18.3711 57.4432C18.516 57.5341 18.6765 57.6108 18.8527 57.6733C19.0288 57.7358 19.2064 57.7884 19.3853 57.831L20.2035 58.0355C20.5331 58.1122 20.8498 58.2159 21.1538 58.3466C21.4606 58.4773 21.7348 58.642 21.9762 58.8409C22.2206 59.0398 22.4137 59.2798 22.5558 59.5611C22.6978 59.8423 22.7689 60.1719 22.7689 60.5497C22.7689 61.0611 22.6382 61.5114 22.3768 61.9006C22.1154 62.2869 21.7376 62.5895 21.2433 62.8082C20.7518 63.0241 20.1566 63.1321 19.4578 63.1321C18.7788 63.1321 18.1893 63.027 17.6893 62.8168C17.1921 62.6065 16.8029 62.2997 16.5217 61.8963C16.2433 61.4929 16.0927 61.0014 16.07 60.4219H17.6254C17.6481 60.7259 17.7419 60.9787 17.9066 61.1804C18.0714 61.3821 18.2859 61.5327 18.5501 61.6321C18.8171 61.7315 19.1154 61.7812 19.445 61.7812C19.7887 61.7812 20.0899 61.7301 20.3484 61.6278C20.6098 61.5227 20.8143 61.3778 20.962 61.1932C21.1098 61.0057 21.185 60.7869 21.1879 60.5369C21.185 60.3097 21.1183 60.1222 20.9876 59.9744C20.8569 59.8239 20.6737 59.6989 20.4379 59.5994C20.2049 59.4972 19.9322 59.4062 19.6197 59.3267L18.6268 59.071C17.9081 58.8864 17.3399 58.6065 16.9223 58.2315C16.5075 57.8537 16.3001 57.3523 16.3001 56.7273C16.3001 56.2131 16.4393 55.7628 16.7177 55.3764C16.999 54.9901 17.3811 54.6903 17.864 54.4773C18.347 54.2614 18.8939 54.1534 19.5046 54.1534C20.124 54.1534 20.6666 54.2614 21.1325 54.4773C21.6012 54.6903 21.9691 54.9872 22.2362 55.3679C22.5032 55.7457 22.641 56.1804 22.6495 56.6719H21.1282ZM28.282 60.2472V56.4545H29.8246V63H28.3289V61.8366H28.2607C28.113 62.2031 27.8701 62.5028 27.532 62.7358C27.1968 62.9687 26.7834 63.0852 26.2919 63.0852C25.863 63.0852 25.4837 62.9901 25.1542 62.7997C24.8274 62.6065 24.5718 62.3267 24.3871 61.9602C24.2024 61.5909 24.1101 61.1449 24.1101 60.6222V56.4545H25.6527V60.3835C25.6527 60.7983 25.7664 61.1278 25.9936 61.3722C26.2209 61.6165 26.5192 61.7386 26.8885 61.7386C27.1158 61.7386 27.336 61.6832 27.549 61.5724C27.7621 61.4616 27.9368 61.2969 28.0732 61.0781C28.2124 60.8565 28.282 60.5795 28.282 60.2472Z" fill="#6B7280"/>
<path d="M60.9871 54.2727H62.9218L65.5127 60.5966H65.615L68.2059 54.2727H70.1405V63H68.6235V57.0043H68.5425L66.1306 62.9744H64.9971L62.5851 56.9915H62.5042V63H60.9871V54.2727ZM74.6491 63.1278C74.0099 63.1278 73.4559 62.9872 72.9871 62.706C72.5184 62.4247 72.1548 62.0312 71.8962 61.5256C71.6405 61.0199 71.5127 60.429 71.5127 59.7528C71.5127 59.0767 71.6405 58.4844 71.8962 57.9759C72.1548 57.4673 72.5184 57.0724 72.9871 56.7912C73.4559 56.5099 74.0099 56.3693 74.6491 56.3693C75.2883 56.3693 75.8423 56.5099 76.311 56.7912C76.7798 57.0724 77.142 57.4673 77.3976 57.9759C77.6562 58.4844 77.7854 59.0767 77.7854 59.7528C77.7854 60.429 77.6562 61.0199 77.3976 61.5256C77.142 62.0312 76.7798 62.4247 76.311 62.706C75.8423 62.9872 75.2883 63.1278 74.6491 63.1278ZM74.6576 61.892C75.0042 61.892 75.294 61.7969 75.5269 61.6065C75.7599 61.4134 75.9332 61.1548 76.0468 60.831C76.1633 60.5071 76.2215 60.1463 76.2215 59.7486C76.2215 59.348 76.1633 58.9858 76.0468 58.6619C75.9332 58.3352 75.7599 58.0753 75.5269 57.8821C75.294 57.6889 75.0042 57.5923 74.6576 57.5923C74.3025 57.5923 74.007 57.6889 73.7712 57.8821C73.5383 58.0753 73.3636 58.3352 73.2471 58.6619C73.1334 58.9858 73.0766 59.348 73.0766 59.7486C73.0766 60.1463 73.1334 60.5071 73.2471 60.831C73.3636 61.1548 73.5383 61.4134 73.7712 61.6065C74.007 61.7969 74.3025 61.892 74.6576 61.892Z" fill="#6B7280"/>
<path d="M108.668 55.598V54.2727H115.632V55.598H112.934V63H111.366V55.598H108.668ZM120.187 60.2472V56.4545H121.73V63H120.234V61.8366H120.166C120.018 62.2031 119.775 62.5028 119.437 62.7358C119.102 62.9687 118.688 63.0852 118.197 63.0852C117.768 63.0852 117.389 62.9901 117.059 62.7997C116.732 62.6065 116.477 62.3267 116.292 61.9602C116.107 61.5909 116.015 61.1449 116.015 60.6222V56.4545H117.558V60.3835C117.558 60.7983 117.671 61.1278 117.899 61.3722C118.126 61.6165 118.424 61.7386 118.793 61.7386C119.021 61.7386 119.241 61.6832 119.454 61.5724C119.667 61.4616 119.842 61.2969 119.978 61.0781C120.117 60.8565 120.187 60.5795 120.187 60.2472Z" fill="#6B7280"/>
<path d="M154.934 63L152.471 54.2727H154.171L155.743 60.6861H155.824L157.503 54.2727H159.05L160.733 60.6903H160.81L162.383 54.2727H164.083L161.62 63H160.06L158.313 56.8764H158.245L156.493 63H154.934ZM167.341 63.1278C166.684 63.1278 166.118 62.9915 165.64 62.7188C165.166 62.4432 164.801 62.054 164.545 61.5511C164.29 61.0455 164.162 60.4503 164.162 59.7656C164.162 59.0923 164.29 58.5014 164.545 57.9929C164.804 57.4815 165.165 57.0838 165.628 56.7997C166.091 56.5128 166.635 56.3693 167.26 56.3693C167.663 56.3693 168.044 56.4347 168.402 56.5653C168.763 56.6932 169.081 56.892 169.356 57.1619C169.635 57.4318 169.854 57.7756 170.013 58.1932C170.172 58.608 170.251 59.1023 170.251 59.6761V60.1491H164.886V59.1094H168.773C168.77 58.8139 168.706 58.5511 168.581 58.321C168.456 58.0881 168.281 57.9048 168.057 57.7713C167.835 57.6378 167.577 57.571 167.281 57.571C166.966 57.571 166.689 57.6477 166.45 57.8011C166.211 57.9517 166.025 58.1506 165.892 58.3977C165.761 58.642 165.694 58.9105 165.692 59.2031V60.1108C165.692 60.4915 165.761 60.8182 165.9 61.0909C166.04 61.3608 166.234 61.5682 166.484 61.7131C166.734 61.8551 167.027 61.9261 167.362 61.9261C167.586 61.9261 167.79 61.8949 167.971 61.8324C168.153 61.767 168.311 61.6719 168.444 61.5469C168.578 61.4219 168.679 61.267 168.747 61.0824L170.187 61.2443C170.096 61.625 169.923 61.9574 169.667 62.2415C169.415 62.5227 169.091 62.7415 168.696 62.8977C168.301 63.0511 167.849 63.1278 167.341 63.1278Z" fill="#6B7280"/>
<path d="M200.479 55.598V54.2727H207.443V55.598H204.745V63H203.177V55.598H200.479ZM210.259 59.1648V63H208.717V54.2727H210.225V57.5668H210.302C210.455 57.1974 210.693 56.9062 211.014 56.6932C211.337 56.4773 211.749 56.3693 212.249 56.3693C212.704 56.3693 213.1 56.4645 213.438 56.6548C213.776 56.8452 214.038 57.1236 214.222 57.4901C214.41 57.8565 214.504 58.304 214.504 58.8324V63H212.961V59.071C212.961 58.6307 212.847 58.2884 212.62 58.044C212.396 57.7969 212.08 57.6733 211.674 57.6733C211.401 57.6733 211.157 57.733 210.941 57.8523C210.728 57.9687 210.56 58.1378 210.438 58.3594C210.319 58.581 210.259 58.8494 210.259 59.1648Z" fill="#6B7280"/>
<path d="M248.799 63V54.2727H254.39V55.598H250.38V57.9673H254.006V59.2926H250.38V63H248.799ZM255.668 63V56.4545H257.164V57.5455H257.232C257.351 57.1676 257.556 56.8764 257.846 56.6719C258.138 56.4645 258.472 56.3608 258.847 56.3608C258.932 56.3608 259.027 56.3651 259.133 56.3736C259.241 56.3793 259.33 56.3892 259.401 56.4034V57.8224C259.336 57.7997 259.232 57.7798 259.09 57.7628C258.951 57.7429 258.816 57.733 258.685 57.733C258.404 57.733 258.151 57.794 257.927 57.9162C257.705 58.0355 257.53 58.2017 257.402 58.4148C257.275 58.6278 257.211 58.8736 257.211 59.152V63H255.668Z" fill="#6B7280"/>
<path d="M298.19 56.6719C298.151 56.2997 297.983 56.0099 297.688 55.8026C297.395 55.5952 297.014 55.4915 296.546 55.4915C296.216 55.4915 295.933 55.5412 295.698 55.6406C295.462 55.7401 295.281 55.875 295.156 56.0455C295.031 56.2159 294.967 56.4105 294.965 56.6293C294.965 56.8111 295.006 56.9687 295.088 57.1023C295.173 57.2358 295.288 57.3494 295.433 57.4432C295.578 57.5341 295.739 57.6108 295.915 57.6733C296.091 57.7358 296.269 57.7884 296.448 57.831L297.266 58.0355C297.595 58.1122 297.912 58.2159 298.216 58.3466C298.523 58.4773 298.797 58.642 299.038 58.8409C299.283 59.0398 299.476 59.2798 299.618 59.5611C299.76 59.8423 299.831 60.1719 299.831 60.5497C299.831 61.0611 299.7 61.5114 299.439 61.9006C299.178 62.2869 298.8 62.5895 298.306 62.8082C297.814 63.0241 297.219 63.1321 296.52 63.1321C295.841 63.1321 295.252 63.027 294.752 62.8168C294.254 62.6065 293.865 62.2997 293.584 61.8963C293.306 61.4929 293.155 61.0014 293.132 60.4219H294.688C294.71 60.7259 294.804 60.9787 294.969 61.1804C295.134 61.3821 295.348 61.5327 295.612 61.6321C295.879 61.7315 296.178 61.7812 296.507 61.7812C296.851 61.7812 297.152 61.7301 297.411 61.6278C297.672 61.5227 297.877 61.3778 298.024 61.1932C298.172 61.0057 298.247 60.7869 298.25 60.5369C298.247 60.3097 298.181 60.1222 298.05 59.9744C297.919 59.8239 297.736 59.6989 297.5 59.5994C297.267 59.4972 296.994 59.4062 296.682 59.3267L295.689 59.071C294.97 58.8864 294.402 58.6065 293.985 58.2315C293.57 57.8537 293.362 57.3523 293.362 56.7273C293.362 56.2131 293.502 55.7628 293.78 55.3764C294.061 54.9901 294.443 54.6903 294.926 54.4773C295.409 54.2614 295.956 54.1534 296.567 54.1534C297.186 54.1534 297.729 54.2614 298.195 54.4773C298.663 54.6903 299.031 54.9872 299.298 55.3679C299.565 55.7457 299.703 56.1804 299.712 56.6719H298.19ZM303.056 63.1321C302.641 63.1321 302.268 63.0582 301.935 62.9105C301.606 62.7599 301.344 62.5384 301.151 62.2457C300.961 61.9531 300.866 61.5923 300.866 61.1634C300.866 60.794 300.934 60.4886 301.07 60.2472C301.206 60.0057 301.393 59.8125 301.628 59.6676C301.864 59.5227 302.13 59.4134 302.425 59.3395C302.724 59.2628 303.032 59.2074 303.35 59.1733C303.733 59.1335 304.045 59.098 304.283 59.0668C304.522 59.0327 304.695 58.9815 304.803 58.9134C304.914 58.8423 304.969 58.733 304.969 58.5852V58.5597C304.969 58.2386 304.874 57.9901 304.684 57.8139C304.493 57.6378 304.219 57.5497 303.861 57.5497C303.483 57.5497 303.184 57.6321 302.962 57.7969C302.743 57.9616 302.596 58.1562 302.519 58.3807L301.079 58.1761C301.192 57.7784 301.38 57.446 301.641 57.179C301.902 56.9091 302.222 56.7074 302.6 56.5739C302.978 56.4375 303.395 56.3693 303.853 56.3693C304.168 56.3693 304.482 56.4062 304.795 56.4801C305.107 56.554 305.393 56.6761 305.651 56.8466C305.91 57.0142 306.117 57.2429 306.273 57.5327C306.432 57.8224 306.512 58.1847 306.512 58.6193V63H305.029V62.1009H304.978C304.884 62.2827 304.752 62.4531 304.581 62.6122C304.414 62.7685 304.202 62.8949 303.947 62.9915C303.694 63.0852 303.397 63.1321 303.056 63.1321ZM303.456 61.9986C303.766 61.9986 304.035 61.9375 304.262 61.8153C304.489 61.6903 304.664 61.5256 304.786 61.321C304.911 61.1165 304.974 60.8935 304.974 60.652V59.8807C304.925 59.9205 304.843 59.9574 304.726 59.9915C304.613 60.0256 304.485 60.0554 304.343 60.081C304.201 60.1065 304.06 60.1293 303.921 60.1491C303.782 60.169 303.661 60.1861 303.559 60.2003C303.329 60.2315 303.123 60.2827 302.941 60.3537C302.759 60.4247 302.616 60.5241 302.51 60.652C302.405 60.777 302.353 60.9389 302.353 61.1378C302.353 61.4219 302.456 61.6364 302.664 61.7812C302.871 61.9261 303.135 61.9986 303.456 61.9986Z" fill="#6B7280"/>
<path d="M15.5736 110V109.105L18.9344 105.426C19.3288 104.995 19.6536 104.621 19.9089 104.303C20.1641 103.981 20.353 103.679 20.4756 103.398C20.6016 103.113 20.6645 102.814 20.6645 102.503C20.6645 102.145 20.5784 101.835 20.406 101.573C20.237 101.311 20.005 101.109 19.71 100.967C19.415 100.824 19.0836 100.753 18.7157 100.753C18.3246 100.753 17.9832 100.834 17.6915 100.996C17.4032 101.156 17.1795 101.379 17.0204 101.668C16.8646 101.956 16.7867 102.294 16.7867 102.682H15.6134C15.6134 102.085 15.751 101.562 16.026 101.111C16.3011 100.66 16.6757 100.309 17.1496 100.057C17.6269 99.8049 18.1622 99.679 18.7554 99.679C19.352 99.679 19.8807 99.8049 20.3414 100.057C20.8021 100.309 21.1634 100.648 21.4252 101.076C21.687 101.504 21.8179 101.979 21.8179 102.503C21.8179 102.877 21.75 103.244 21.6141 103.602C21.4815 103.956 21.2495 104.352 20.9181 104.79C20.59 105.224 20.1342 105.754 19.5509 106.381L17.264 108.827V108.906H21.9969V110H15.5736ZM27.3116 110.139C26.6288 110.139 26.0256 110.018 25.5019 109.776C24.9815 109.531 24.5755 109.195 24.2839 108.767C23.9922 108.336 23.848 107.846 23.8513 107.295C23.848 106.865 23.9325 106.467 24.1049 106.102C24.2772 105.734 24.5126 105.428 24.8108 105.183C25.1125 104.934 25.4489 104.777 25.8201 104.71V104.651C25.3329 104.525 24.9451 104.251 24.6567 103.83C24.3684 103.406 24.2259 102.924 24.2292 102.384C24.2259 101.866 24.3568 101.404 24.6219 100.996C24.8871 100.589 25.2517 100.267 25.7157 100.032C26.183 99.7966 26.715 99.679 27.3116 99.679C27.9015 99.679 28.4285 99.7966 28.8925 100.032C29.3565 100.267 29.7211 100.589 29.9863 100.996C30.2547 101.404 30.3906 101.866 30.3939 102.384C30.3906 102.924 30.2431 103.406 29.9515 103.83C29.6631 104.251 29.2803 104.525 28.803 104.651V104.71C29.1709 104.777 29.5024 104.934 29.7974 105.183C30.0923 105.428 30.3277 105.734 30.5033 106.102C30.679 106.467 30.7685 106.865 30.7718 107.295C30.7685 107.846 30.6193 108.336 30.3243 108.767C30.0327 109.195 29.6267 109.531 29.1063 109.776C28.5893 110.018 27.991 110.139 27.3116 110.139ZM27.3116 109.045C27.7723 109.045 28.17 108.971 28.5047 108.822C28.8395 108.673 29.098 108.462 29.2803 108.19C29.4626 107.919 29.5554 107.6 29.5587 107.236C29.5554 106.851 29.456 106.512 29.2604 106.217C29.0649 105.922 28.7981 105.69 28.46 105.521C28.1252 105.352 27.7424 105.267 27.3116 105.267C26.8774 105.267 26.4896 105.352 26.1482 105.521C25.8101 105.69 25.5433 105.922 25.3478 106.217C25.1555 106.512 25.0611 106.851 25.0644 107.236C25.0611 107.6 25.1489 107.919 25.3279 108.19C25.5102 108.462 25.7704 108.673 26.1084 108.822C26.4465 108.971 26.8475 109.045 27.3116 109.045ZM27.3116 104.213C27.6761 104.213 27.9993 104.14 28.281 103.994C28.5661 103.848 28.7898 103.645 28.9522 103.383C29.1146 103.121 29.1974 102.814 29.2008 102.463C29.1974 102.118 29.1162 101.818 28.9572 101.563C28.7981 101.305 28.5777 101.106 28.2959 100.967C28.0142 100.824 27.6861 100.753 27.3116 100.753C26.9304 100.753 26.5973 100.824 26.3123 100.967C26.0272 101.106 25.8068 101.305 25.651 101.563C25.4953 101.818 25.419 102.118 25.4224 102.463C25.419 102.814 25.4969 103.121 25.656 103.383C25.8184 103.645 26.0421 103.848 26.3272 103.994C26.6122 104.14 26.9403 104.213 27.3116 104.213Z" fill="#D1D5DB"/>
<path d="M14.5197 105.416H31.6269V106.371H14.5197V105.416Z" fill="#D1D5DB"/>
<path d="M61.6618 110V109.105L65.0226 105.426C65.417 104.995 65.7418 104.621 65.997 104.303C66.2522 103.981 66.4411 103.679 66.5638 103.398C66.6897 103.113 66.7527 102.814 66.7527 102.503C66.7527 102.145 66.6665 101.835 66.4942 101.573C66.3251 101.311 66.0931 101.109 65.7981 100.967C65.5031 100.824 65.1717 100.753 64.8038 100.753C64.4127 100.753 64.0713 100.834 63.7797 100.996C63.4913 101.156 63.2676 101.379 63.1085 101.668C62.9527 101.956 62.8748 102.294 62.8748 102.682H61.7015C61.7015 102.085 61.8391 101.562 62.1142 101.111C62.3893 100.66 62.7638 100.309 63.2378 100.057C63.715 99.8049 64.2503 99.679 64.8436 99.679C65.4402 99.679 65.9688 99.8049 66.4295 100.057C66.8902 100.309 67.2515 100.648 67.5133 101.076C67.7752 101.504 67.9061 101.979 67.9061 102.503C67.9061 102.877 67.8381 103.244 67.7022 103.602C67.5697 103.956 67.3377 104.352 67.0062 104.79C66.6781 105.224 66.2224 105.754 65.639 106.381L63.3521 108.827V108.906H68.0851V110H61.6618ZM73.3798 99.679C73.7974 99.6823 74.215 99.7618 74.6326 99.9176C75.0503 100.073 75.4314 100.332 75.7761 100.693C76.1208 101.051 76.3976 101.54 76.6064 102.16C76.8152 102.78 76.9196 103.557 76.9196 104.491C76.9196 105.396 76.8334 106.2 76.6611 106.903C76.492 107.602 76.2468 108.192 75.9253 108.673C75.6071 109.153 75.2193 109.518 74.7619 109.766C74.3078 110.015 73.7941 110.139 73.2207 110.139C72.6506 110.139 72.1419 110.027 71.6944 109.801C71.2503 109.572 70.8857 109.256 70.6007 108.852C70.319 108.444 70.1383 107.972 70.0588 107.435H71.2719C71.3812 107.902 71.5983 108.288 71.9231 108.593C72.2513 108.895 72.6838 109.045 73.2207 109.045C74.0062 109.045 74.626 108.702 75.0801 108.016C75.5375 107.33 75.7662 106.361 75.7662 105.108H75.6866C75.501 105.386 75.2806 105.627 75.0254 105.829C74.7702 106.031 74.4868 106.187 74.1753 106.296C73.8637 106.406 73.5323 106.46 73.1809 106.46C72.5976 106.46 72.0623 106.316 71.5751 106.028C71.0912 105.736 70.7034 105.337 70.4118 104.83C70.1234 104.319 69.9792 103.736 69.9792 103.08C69.9792 102.456 70.1184 101.886 70.3969 101.369C70.6786 100.849 71.073 100.435 71.5801 100.126C72.0905 99.8182 72.6904 99.669 73.3798 99.679ZM73.3798 100.773C72.9622 100.773 72.586 100.877 72.2513 101.086C71.9198 101.291 71.6563 101.57 71.4608 101.921C71.2685 102.269 71.1724 102.655 71.1724 103.08C71.1724 103.504 71.2652 103.89 71.4508 104.238C71.6397 104.583 71.8966 104.858 72.2214 105.063C72.5495 105.265 72.9224 105.366 73.34 105.366C73.6549 105.366 73.9482 105.305 74.22 105.183C74.4918 105.057 74.7288 104.886 74.9309 104.67C75.1364 104.452 75.2972 104.205 75.4132 103.93C75.5292 103.651 75.5872 103.361 75.5872 103.06C75.5872 102.662 75.4911 102.289 75.2988 101.941C75.1099 101.593 74.8481 101.311 74.5133 101.096C74.1819 100.88 73.804 100.773 73.3798 100.773Z" fill="#D1D5DB"/>
<path d="M60.6078 105.416H77.8145V106.371H60.6078V105.416Z" fill="#D1D5DB"/>
<path d="M111.019 110.139C110.363 110.139 109.778 110.027 109.264 109.801C108.754 109.576 108.348 109.263 108.046 108.862C107.748 108.457 107.586 107.988 107.559 107.455H108.812C108.839 107.783 108.951 108.066 109.15 108.305C109.349 108.54 109.609 108.722 109.931 108.852C110.252 108.981 110.608 109.045 111 109.045C111.437 109.045 111.825 108.969 112.163 108.817C112.501 108.664 112.766 108.452 112.958 108.18C113.151 107.909 113.247 107.594 113.247 107.236C113.247 106.861 113.154 106.531 112.968 106.246C112.783 105.958 112.511 105.733 112.153 105.57C111.795 105.408 111.358 105.327 110.84 105.327H110.025V104.233H110.84C111.245 104.233 111.599 104.16 111.904 104.014C112.213 103.868 112.453 103.663 112.625 103.398C112.801 103.133 112.889 102.821 112.889 102.463C112.889 102.118 112.813 101.818 112.66 101.563C112.508 101.308 112.292 101.109 112.014 100.967C111.739 100.824 111.414 100.753 111.039 100.753C110.688 100.753 110.357 100.817 110.045 100.947C109.737 101.073 109.485 101.257 109.289 101.499C109.094 101.737 108.988 102.026 108.971 102.364H107.778C107.798 101.83 107.959 101.363 108.26 100.962C108.562 100.557 108.956 100.242 109.443 100.017C109.934 99.7917 110.473 99.679 111.059 99.679C111.689 99.679 112.229 99.8066 112.68 100.062C113.131 100.314 113.477 100.647 113.719 101.061C113.961 101.475 114.082 101.923 114.082 102.403C114.082 102.977 113.931 103.466 113.63 103.87C113.331 104.274 112.925 104.554 112.412 104.71V104.79C113.055 104.896 113.557 105.169 113.918 105.61C114.279 106.048 114.46 106.589 114.46 107.236C114.46 107.789 114.309 108.286 114.007 108.727C113.709 109.165 113.301 109.509 112.784 109.761C112.267 110.013 111.679 110.139 111.019 110.139ZM119.814 110.139C119.065 110.139 118.427 109.935 117.9 109.528C117.373 109.117 116.97 108.522 116.692 107.743C116.414 106.961 116.274 106.016 116.274 104.909C116.274 103.809 116.414 102.869 116.692 102.09C116.974 101.308 117.378 100.711 117.905 100.3C118.435 99.8861 119.072 99.679 119.814 99.679C120.557 99.679 121.191 99.8861 121.718 100.3C122.249 100.711 122.653 101.308 122.931 102.09C123.213 102.869 123.354 103.809 123.354 104.909C123.354 106.016 123.215 106.961 122.936 107.743C122.658 108.522 122.255 109.117 121.728 109.528C121.201 109.935 120.563 110.139 119.814 110.139ZM119.814 109.045C120.557 109.045 121.133 108.687 121.544 107.972C121.955 107.256 122.161 106.235 122.161 104.909C122.161 104.027 122.066 103.277 121.877 102.657C121.692 102.037 121.423 101.565 121.072 101.24C120.724 100.915 120.305 100.753 119.814 100.753C119.078 100.753 118.503 101.116 118.089 101.842C117.675 102.564 117.468 103.587 117.468 104.909C117.468 105.791 117.56 106.54 117.746 107.156C117.932 107.773 118.198 108.242 118.546 108.563C118.898 108.885 119.32 109.045 119.814 109.045Z" fill="#D1D5DB"/>
<path d="M106.525 105.416H124.189V106.371H106.525V105.416Z" fill="#D1D5DB"/>
<path d="M158.283 110.139C157.627 110.139 157.042 110.027 156.528 109.801C156.018 109.576 155.612 109.263 155.31 108.862C155.012 108.457 154.85 107.988 154.823 107.455H156.076C156.103 107.783 156.215 108.066 156.414 108.305C156.613 108.54 156.873 108.722 157.195 108.852C157.516 108.981 157.872 109.045 158.263 109.045C158.701 109.045 159.089 108.969 159.427 108.817C159.765 108.664 160.03 108.452 160.222 108.18C160.415 107.909 160.511 107.594 160.511 107.236C160.511 106.861 160.418 106.531 160.232 106.246C160.047 105.958 159.775 105.733 159.417 105.57C159.059 105.408 158.621 105.327 158.104 105.327H157.289V104.233H158.104C158.509 104.233 158.863 104.16 159.168 104.014C159.477 103.868 159.717 103.663 159.889 103.398C160.065 103.133 160.153 102.821 160.153 102.463C160.153 102.118 160.076 101.818 159.924 101.563C159.772 101.308 159.556 101.109 159.278 100.967C159.003 100.824 158.678 100.753 158.303 100.753C157.952 100.753 157.621 100.817 157.309 100.947C157.001 101.073 156.749 101.257 156.553 101.499C156.358 101.737 156.252 102.026 156.235 102.364H155.042C155.062 101.83 155.223 101.363 155.524 100.962C155.826 100.557 156.22 100.242 156.707 100.017C157.198 99.7917 157.737 99.679 158.323 99.679C158.953 99.679 159.493 99.8066 159.944 100.062C160.395 100.314 160.741 100.647 160.983 101.061C161.225 101.475 161.346 101.923 161.346 102.403C161.346 102.977 161.195 103.466 160.893 103.87C160.595 104.274 160.189 104.554 159.675 104.71V104.79C160.318 104.896 160.821 105.169 161.182 105.61C161.543 106.048 161.724 106.589 161.724 107.236C161.724 107.789 161.573 108.286 161.271 108.727C160.973 109.165 160.565 109.509 160.048 109.761C159.531 110.013 158.943 110.139 158.283 110.139ZM167.337 99.8182V110H166.104V101.111H166.044L163.558 102.761V101.509L166.104 99.8182H167.337Z" fill="#D1D5DB"/>
<path d="M153.789 105.416H169.206V106.371H153.789V105.416Z" fill="#D1D5DB"/>
<path d="M209.022 99.8182V110H207.789V101.111H207.73L205.244 102.761V101.509L207.789 99.8182H209.022Z" fill="#D1D5DB"/>
<path d="M204.389 105.416H210.892V106.371H204.389V105.416Z" fill="#D1D5DB"/>
<path d="M250.601 110V109.105L253.962 105.426C254.357 104.995 254.681 104.621 254.937 104.303C255.192 103.981 255.381 103.679 255.503 103.398C255.629 103.113 255.692 102.814 255.692 102.503C255.692 102.145 255.606 101.835 255.434 101.573C255.265 101.311 255.033 101.109 254.738 100.967C254.443 100.824 254.111 100.753 253.743 100.753C253.352 100.753 253.011 100.834 252.719 100.996C252.431 101.156 252.207 101.379 252.048 101.668C251.892 101.956 251.814 102.294 251.814 102.682H250.641C250.641 102.085 250.779 101.562 251.054 101.111C251.329 100.66 251.703 100.309 252.177 100.057C252.655 99.8049 253.19 99.679 253.783 99.679C254.38 99.679 254.908 99.8049 255.369 100.057C255.83 100.309 256.191 100.648 256.453 101.076C256.715 101.504 256.846 101.979 256.846 102.503C256.846 102.877 256.778 103.244 256.642 103.602C256.509 103.956 256.277 104.352 255.946 104.79C255.618 105.224 255.162 105.754 254.579 106.381L252.292 108.827V108.906H257.025V110H250.601Z" fill="#D1D5DB"/>
<path d="M249.547 105.416H258.019V106.371H249.547V105.416Z" fill="#D1D5DB"/>
<path d="M299.966 110.139C299.31 110.139 298.725 110.027 298.211 109.801C297.7 109.576 297.294 109.263 296.993 108.862C296.695 108.457 296.532 107.988 296.506 107.455H297.758C297.785 107.783 297.898 108.066 298.097 108.305C298.295 108.54 298.556 108.722 298.877 108.852C299.199 108.981 299.555 109.045 299.946 109.045C300.383 109.045 300.771 108.969 301.109 108.817C301.447 108.664 301.713 108.452 301.905 108.18C302.097 107.909 302.193 107.594 302.193 107.236C302.193 106.861 302.1 106.531 301.915 106.246C301.729 105.958 301.457 105.733 301.099 105.57C300.741 105.408 300.304 105.327 299.787 105.327H298.972V104.233H299.787C300.191 104.233 300.546 104.16 300.851 104.014C301.159 103.868 301.399 103.663 301.572 103.398C301.747 103.133 301.835 102.821 301.835 102.463C301.835 102.118 301.759 101.818 301.607 101.563C301.454 101.308 301.239 101.109 300.96 100.967C300.685 100.824 300.36 100.753 299.986 100.753C299.634 100.753 299.303 100.817 298.991 100.947C298.683 101.073 298.431 101.257 298.236 101.499C298.04 101.737 297.934 102.026 297.918 102.364H296.724C296.744 101.83 296.905 101.363 297.207 100.962C297.508 100.557 297.903 100.242 298.39 100.017C298.88 99.7917 299.419 99.679 300.006 99.679C300.635 99.679 301.176 99.8066 301.626 100.062C302.077 100.314 302.423 100.647 302.665 101.061C302.907 101.475 303.028 101.923 303.028 102.403C303.028 102.977 302.878 103.466 302.576 103.87C302.278 104.274 301.872 104.554 301.358 104.71V104.79C302.001 104.896 302.503 105.169 302.864 105.61C303.226 106.048 303.406 106.589 303.406 107.236C303.406 107.789 303.255 108.286 302.954 108.727C302.656 109.165 302.248 109.509 301.731 109.761C301.214 110.013 300.625 110.139 299.966 110.139Z" fill="#D1D5DB"/>
<path d="M295.472 105.416H304.381V106.371H295.472V105.416Z" fill="#D1D5DB"/>
<path d="M19.3955 153.912V152.898L23.87 145.818H24.6058V147.389H24.1086L20.7279 152.739V152.818H26.7535V153.912H19.3955ZM24.1882 156V153.604V153.131V145.818H25.3615V156H24.1882Z" fill="#D1D5DB"/>
<path d="M18.5802 151.416H27.5688V152.371H18.5802V151.416Z" fill="#D1D5DB"/>
<path d="M69.1912 156.139C68.6079 156.139 68.0826 156.023 67.6152 155.791C67.1479 155.559 66.7734 155.241 66.4917 154.837C66.2099 154.432 66.0558 153.972 66.0293 153.455H67.2225C67.2689 153.915 67.4777 154.296 67.8489 154.598C68.2234 154.896 68.6709 155.045 69.1912 155.045C69.6089 155.045 69.9801 154.948 70.3049 154.752C70.633 154.557 70.8899 154.288 71.0755 153.947C71.2644 153.602 71.3589 153.213 71.3589 152.778C71.3589 152.334 71.2611 151.938 71.0655 151.59C70.8733 151.239 70.6081 150.962 70.2701 150.76C69.932 150.558 69.5459 150.455 69.1117 150.452C68.8001 150.448 68.4803 150.496 68.1522 150.596C67.8241 150.692 67.5539 150.816 67.3418 150.969L66.1884 150.83L66.8049 145.818H72.0946V146.912H67.839L67.481 149.915H67.5407C67.7495 149.749 68.0113 149.612 68.3262 149.502C68.6411 149.393 68.9692 149.338 69.3106 149.338C69.9337 149.338 70.4888 149.487 70.976 149.786C71.4666 150.08 71.851 150.485 72.1295 150.999C72.4112 151.512 72.552 152.099 72.552 152.759C72.552 153.408 72.4062 153.988 72.1145 154.499C71.8262 155.006 71.4285 155.407 70.9214 155.702C70.4143 155.993 69.8375 156.139 69.1912 156.139Z" fill="#D1D5DB"/>
<path d="M64.9554 151.416H73.4668V152.371H64.9554V151.416Z" fill="#D1D5DB"/>
<path d="M115.424 156.139C115.006 156.133 114.588 156.053 114.171 155.901C113.753 155.748 113.372 155.491 113.027 155.13C112.683 154.765 112.406 154.273 112.197 153.653C111.988 153.03 111.884 152.248 111.884 151.307C111.884 150.405 111.968 149.607 112.137 148.911C112.306 148.211 112.552 147.623 112.873 147.146C113.195 146.665 113.583 146.3 114.037 146.052C114.494 145.803 115.009 145.679 115.583 145.679C116.153 145.679 116.66 145.793 117.104 146.022C117.552 146.247 117.916 146.562 118.198 146.967C118.48 147.371 118.662 147.837 118.745 148.364H117.532C117.419 147.906 117.2 147.527 116.875 147.225C116.551 146.924 116.12 146.773 115.583 146.773C114.794 146.773 114.172 147.116 113.718 147.802C113.268 148.488 113.041 149.451 113.037 150.69H113.117C113.302 150.409 113.523 150.168 113.778 149.969C114.037 149.767 114.322 149.612 114.633 149.502C114.945 149.393 115.275 149.338 115.623 149.338C116.206 149.338 116.739 149.484 117.223 149.776C117.707 150.064 118.095 150.463 118.387 150.974C118.678 151.481 118.824 152.062 118.824 152.719C118.824 153.348 118.683 153.925 118.402 154.449C118.12 154.969 117.724 155.384 117.213 155.692C116.706 155.997 116.11 156.146 115.424 156.139ZM115.424 155.045C115.841 155.045 116.216 154.941 116.547 154.732C116.882 154.523 117.146 154.243 117.338 153.892C117.533 153.541 117.631 153.15 117.631 152.719C117.631 152.298 117.537 151.915 117.348 151.57C117.162 151.222 116.905 150.946 116.577 150.74C116.252 150.535 115.881 150.432 115.463 150.432C115.149 150.432 114.855 150.495 114.583 150.621C114.312 150.743 114.073 150.912 113.868 151.128C113.665 151.343 113.506 151.59 113.39 151.869C113.274 152.144 113.216 152.434 113.216 152.739C113.216 153.143 113.311 153.521 113.5 153.872C113.692 154.223 113.954 154.507 114.285 154.722C114.62 154.938 114.999 155.045 115.424 155.045Z" fill="#D1D5DB"/>
<path d="M110.989 151.416H119.719V152.371H110.989V151.416Z" fill="#D1D5DB"/>
<path d="M158.873 156L163.427 146.991V146.912H158.177V145.818H164.7V146.972L160.166 156H158.873Z" fill="#D1D5DB"/>
<path d="M157.501 151.416H165.495V152.371H157.501V151.416Z" fill="#D1D5DB"/>
<path d="M207.645 156.139C206.962 156.139 206.359 156.018 205.835 155.776C205.315 155.531 204.909 155.195 204.617 154.767C204.325 154.336 204.181 153.846 204.184 153.295C204.181 152.865 204.266 152.467 204.438 152.102C204.61 151.734 204.846 151.428 205.144 151.183C205.446 150.934 205.782 150.777 206.153 150.71V150.651C205.666 150.525 205.278 150.251 204.99 149.83C204.702 149.406 204.559 148.924 204.562 148.384C204.559 147.866 204.69 147.404 204.955 146.996C205.22 146.589 205.585 146.267 206.049 146.032C206.516 145.797 207.048 145.679 207.645 145.679C208.235 145.679 208.762 145.797 209.226 146.032C209.69 146.267 210.054 146.589 210.319 146.996C210.588 147.404 210.724 147.866 210.727 148.384C210.724 148.924 210.576 149.406 210.285 149.83C209.996 150.251 209.613 150.525 209.136 150.651V150.71C209.504 150.777 209.836 150.934 210.13 151.183C210.425 151.428 210.661 151.734 210.836 152.102C211.012 152.467 211.102 152.865 211.105 153.295C211.102 153.846 210.952 154.336 210.657 154.767C210.366 155.195 209.96 155.531 209.439 155.776C208.922 156.018 208.324 156.139 207.645 156.139ZM207.645 155.045C208.105 155.045 208.503 154.971 208.838 154.822C209.173 154.673 209.431 154.462 209.613 154.19C209.796 153.919 209.889 153.6 209.892 153.236C209.889 152.851 209.789 152.512 209.594 152.217C209.398 151.922 209.131 151.69 208.793 151.521C208.458 151.352 208.076 151.267 207.645 151.267C207.211 151.267 206.823 151.352 206.481 151.521C206.143 151.69 205.876 151.922 205.681 152.217C205.489 152.512 205.394 152.851 205.398 153.236C205.394 153.6 205.482 153.919 205.661 154.19C205.843 154.462 206.103 154.673 206.442 154.822C206.78 154.971 207.181 155.045 207.645 155.045ZM207.645 150.213C208.009 150.213 208.332 150.14 208.614 149.994C208.899 149.848 209.123 149.645 209.285 149.383C209.448 149.121 209.531 148.814 209.534 148.463C209.531 148.118 209.449 147.818 209.29 147.563C209.131 147.305 208.911 147.106 208.629 146.967C208.347 146.824 208.019 146.753 207.645 146.753C207.264 146.753 206.93 146.824 206.645 146.967C206.36 147.106 206.14 147.305 205.984 147.563C205.828 147.818 205.752 148.118 205.755 148.463C205.752 148.814 205.83 149.121 205.989 149.383C206.152 149.645 206.375 149.848 206.66 149.994C206.945 150.14 207.273 150.213 207.645 150.213Z" fill="#D1D5DB"/>
<path d="M203.329 151.416H211.96V152.371H203.329V151.416Z" fill="#D1D5DB"/>
<path d="M253.713 145.679C254.131 145.682 254.548 145.762 254.966 145.918C255.383 146.073 255.765 146.332 256.109 146.693C256.454 147.051 256.731 147.54 256.939 148.16C257.148 148.78 257.253 149.557 257.253 150.491C257.253 151.396 257.167 152.2 256.994 152.903C256.825 153.602 256.58 154.192 256.258 154.673C255.94 155.153 255.552 155.518 255.095 155.766C254.641 156.015 254.127 156.139 253.554 156.139C252.984 156.139 252.475 156.027 252.028 155.801C251.583 155.572 251.219 155.256 250.934 154.852C250.652 154.444 250.471 153.972 250.392 153.435H251.605C251.714 153.902 251.931 154.288 252.256 154.593C252.584 154.895 253.017 155.045 253.554 155.045C254.339 155.045 254.959 154.702 255.413 154.016C255.871 153.33 256.099 152.361 256.099 151.108H256.02C255.834 151.386 255.614 151.627 255.359 151.829C255.103 152.031 254.82 152.187 254.508 152.296C254.197 152.406 253.865 152.46 253.514 152.46C252.931 152.46 252.395 152.316 251.908 152.028C251.424 151.736 251.037 151.337 250.745 150.83C250.457 150.319 250.312 149.736 250.312 149.08C250.312 148.456 250.452 147.886 250.73 147.369C251.012 146.849 251.406 146.435 251.913 146.126C252.424 145.818 253.024 145.669 253.713 145.679ZM253.713 146.773C253.295 146.773 252.919 146.877 252.584 147.086C252.253 147.291 251.989 147.57 251.794 147.921C251.602 148.269 251.506 148.655 251.506 149.08C251.506 149.504 251.598 149.89 251.784 150.238C251.973 150.583 252.23 150.858 252.555 151.063C252.883 151.265 253.256 151.366 253.673 151.366C253.988 151.366 254.281 151.305 254.553 151.183C254.825 151.057 255.062 150.886 255.264 150.67C255.47 150.452 255.63 150.205 255.746 149.93C255.862 149.651 255.92 149.361 255.92 149.06C255.92 148.662 255.824 148.289 255.632 147.941C255.443 147.593 255.181 147.311 254.846 147.096C254.515 146.88 254.137 146.773 253.713 146.773Z" fill="#D1D5DB"/>
<path d="M249.417 151.416H258.148V152.371H249.417V151.416Z" fill="#D1D5DB"/>
<path d="M296.933 145.818V156H295.7V147.111H295.641L293.155 148.761V147.509L295.7 145.818H296.933ZM303.182 156.139C302.433 156.139 301.795 155.935 301.268 155.528C300.741 155.117 300.339 154.522 300.06 153.743C299.782 152.961 299.643 152.016 299.643 150.909C299.643 149.809 299.782 148.869 300.06 148.09C300.342 147.308 300.746 146.711 301.273 146.3C301.804 145.886 302.44 145.679 303.182 145.679C303.925 145.679 304.56 145.886 305.087 146.3C305.617 146.711 306.021 147.308 306.3 148.09C306.581 148.869 306.722 149.809 306.722 150.909C306.722 152.016 306.583 152.961 306.305 153.743C306.026 154.522 305.624 155.117 305.097 155.528C304.57 155.935 303.932 156.139 303.182 156.139ZM303.182 155.045C303.925 155.045 304.502 154.687 304.913 153.972C305.324 153.256 305.529 152.235 305.529 150.909C305.529 150.027 305.435 149.277 305.246 148.657C305.06 148.037 304.792 147.565 304.44 147.24C304.092 146.915 303.673 146.753 303.182 146.753C302.447 146.753 301.872 147.116 301.457 147.842C301.043 148.564 300.836 149.587 300.836 150.909C300.836 151.791 300.929 152.54 301.114 153.156C301.3 153.773 301.567 154.242 301.915 154.563C302.266 154.885 302.689 155.045 303.182 155.045Z" fill="#D1D5DB"/>
<path d="M292.3 151.416H307.557V152.371H292.3V151.416Z" fill="#D1D5DB"/>
<path d="M21.1971 191.818V202H19.9642V193.111H19.9045L17.4187 194.761V193.509L19.9642 191.818H21.1971ZM27.7049 191.818V202H26.472V193.111H26.4123L23.9265 194.761V193.509L26.472 191.818H27.7049Z" fill="#D1D5DB"/>
<path d="M16.5636 197.416H29.5743V198.371H16.5636V197.416Z" fill="#D1D5DB"/>
<path d="M66.3556 191.818V202H65.1226V193.111H65.063L62.5772 194.761V193.509L65.1226 191.818H66.3556ZM69.2838 202V201.105L72.6446 197.426C73.039 196.995 73.3639 196.621 73.6191 196.303C73.8743 195.981 74.0632 195.679 74.1858 195.398C74.3118 195.113 74.3747 194.814 74.3747 194.503C74.3747 194.145 74.2886 193.835 74.1162 193.573C73.9472 193.311 73.7152 193.109 73.4202 192.967C73.1252 192.824 72.7938 192.753 72.4259 192.753C72.0348 192.753 71.6934 192.834 71.4017 192.996C71.1134 193.156 70.8897 193.379 70.7306 193.668C70.5748 193.956 70.4969 194.294 70.4969 194.682H69.3236C69.3236 194.085 69.4612 193.562 69.7363 193.111C70.0113 192.66 70.3859 192.309 70.8598 192.057C71.3371 191.805 71.8724 191.679 72.4657 191.679C73.0622 191.679 73.5909 191.805 74.0516 192.057C74.5123 192.309 74.8736 192.648 75.1354 193.076C75.3972 193.504 75.5282 193.979 75.5282 194.503C75.5282 194.877 75.4602 195.244 75.3243 195.602C75.1917 195.956 74.9597 196.352 74.6283 196.79C74.3002 197.224 73.8444 197.754 73.2611 198.381L70.9742 200.827V200.906H75.7071V202H69.2838Z" fill="#D1D5DB"/>
<path d="M61.722 197.416H76.7014V198.371H61.722V197.416Z" fill="#D1D5DB"/>
<path d="M112.28 191.818V202H111.047V193.111H110.987L108.501 194.761V193.509L111.047 191.818H112.28ZM118.648 202.139C117.992 202.139 117.407 202.027 116.893 201.801C116.383 201.576 115.977 201.263 115.675 200.862C115.377 200.457 115.215 199.988 115.188 199.455H116.441C116.467 199.783 116.58 200.066 116.779 200.305C116.978 200.54 117.238 200.722 117.56 200.852C117.881 200.981 118.237 201.045 118.628 201.045C119.066 201.045 119.454 200.969 119.792 200.817C120.13 200.664 120.395 200.452 120.587 200.18C120.78 199.909 120.876 199.594 120.876 199.236C120.876 198.861 120.783 198.531 120.597 198.246C120.412 197.958 120.14 197.733 119.782 197.57C119.424 197.408 118.986 197.327 118.469 197.327H117.654V196.233H118.469C118.874 196.233 119.228 196.16 119.533 196.014C119.842 195.868 120.082 195.663 120.254 195.398C120.43 195.133 120.518 194.821 120.518 194.463C120.518 194.118 120.441 193.818 120.289 193.563C120.137 193.308 119.921 193.109 119.643 192.967C119.368 192.824 119.043 192.753 118.668 192.753C118.317 192.753 117.985 192.817 117.674 192.947C117.366 193.073 117.114 193.257 116.918 193.499C116.723 193.737 116.617 194.026 116.6 194.364H115.407C115.427 193.83 115.588 193.363 115.889 192.962C116.191 192.557 116.585 192.242 117.072 192.017C117.563 191.792 118.101 191.679 118.688 191.679C119.318 191.679 119.858 191.807 120.309 192.062C120.76 192.314 121.106 192.647 121.348 193.061C121.59 193.475 121.711 193.923 121.711 194.403C121.711 194.977 121.56 195.466 121.258 195.87C120.96 196.274 120.554 196.554 120.04 196.71V196.79C120.683 196.896 121.186 197.169 121.547 197.61C121.908 198.048 122.089 198.589 122.089 199.236C122.089 199.789 121.938 200.286 121.636 200.727C121.338 201.165 120.93 201.509 120.413 201.761C119.896 202.013 119.308 202.139 118.648 202.139Z" fill="#D1D5DB"/>
<path d="M107.646 197.416H123.063V198.371H107.646V197.416Z" fill="#D1D5DB"/>
<path d="M158.388 191.818V202H157.155V193.111H157.096L154.61 194.761V193.509L157.155 191.818H158.388ZM161.078 199.912V198.898L165.552 191.818H166.288V193.389H165.791L162.41 198.739V198.818H168.436V199.912H161.078ZM165.871 202V199.604V199.131V191.818H167.044V202H165.871Z" fill="#D1D5DB"/>
<path d="M153.755 197.416H169.251V198.371H153.755V197.416Z" fill="#D1D5DB"/>
<path d="M204.764 191.818V202H203.531V193.111H203.471L200.985 194.761V193.509L203.531 191.818H204.764ZM210.874 202.139C210.29 202.139 209.765 202.023 209.298 201.791C208.83 201.559 208.456 201.241 208.174 200.837C207.892 200.432 207.738 199.972 207.712 199.455H208.905C208.951 199.915 209.16 200.296 209.531 200.598C209.906 200.896 210.353 201.045 210.874 201.045C211.291 201.045 211.663 200.948 211.987 200.752C212.315 200.557 212.572 200.288 212.758 199.947C212.947 199.602 213.041 199.213 213.041 198.778C213.041 198.334 212.944 197.938 212.748 197.59C212.556 197.239 212.291 196.962 211.953 196.76C211.615 196.558 211.228 196.455 210.794 196.452C210.483 196.448 210.163 196.496 209.835 196.596C209.507 196.692 209.236 196.816 209.024 196.969L207.871 196.83L208.487 191.818H213.777V192.912H209.521L209.164 195.915H209.223C209.432 195.749 209.694 195.612 210.009 195.502C210.324 195.393 210.652 195.338 210.993 195.338C211.616 195.338 212.171 195.487 212.659 195.786C213.149 196.08 213.534 196.485 213.812 196.999C214.094 197.512 214.235 198.099 214.235 198.759C214.235 199.408 214.089 199.988 213.797 200.499C213.509 201.006 213.111 201.407 212.604 201.702C212.097 201.993 211.52 202.139 210.874 202.139Z" fill="#D1D5DB"/>
<path d="M200.13 197.416H215.149V198.371H200.13V197.416Z" fill="#D1D5DB"/>
<path d="M250.797 191.818V202H249.564V193.111H249.504L247.019 194.761V193.509L249.564 191.818H250.797ZM257.106 202.139C256.688 202.133 256.271 202.053 255.853 201.901C255.436 201.748 255.054 201.491 254.71 201.13C254.365 200.765 254.088 200.273 253.879 199.653C253.671 199.03 253.566 198.248 253.566 197.307C253.566 196.405 253.651 195.607 253.82 194.911C253.989 194.211 254.234 193.623 254.556 193.146C254.877 192.665 255.265 192.3 255.719 192.052C256.176 191.803 256.692 191.679 257.265 191.679C257.835 191.679 258.342 191.793 258.786 192.022C259.234 192.247 259.598 192.562 259.88 192.967C260.162 193.371 260.344 193.837 260.427 194.364H259.214C259.101 193.906 258.883 193.527 258.558 193.225C258.233 192.924 257.802 192.773 257.265 192.773C256.476 192.773 255.855 193.116 255.401 193.802C254.95 194.488 254.723 195.451 254.72 196.69H254.799C254.985 196.409 255.205 196.168 255.46 195.969C255.719 195.767 256.004 195.612 256.316 195.502C256.627 195.393 256.957 195.338 257.305 195.338C257.888 195.338 258.422 195.484 258.906 195.776C259.39 196.064 259.777 196.463 260.069 196.974C260.361 197.481 260.507 198.062 260.507 198.719C260.507 199.348 260.366 199.925 260.084 200.449C259.802 200.969 259.406 201.384 258.896 201.692C258.389 201.997 257.792 202.146 257.106 202.139ZM257.106 201.045C257.524 201.045 257.898 200.941 258.23 200.732C258.564 200.523 258.828 200.243 259.02 199.892C259.216 199.541 259.313 199.15 259.313 198.719C259.313 198.298 259.219 197.915 259.03 197.57C258.844 197.222 258.588 196.946 258.259 196.74C257.935 196.535 257.563 196.432 257.146 196.432C256.831 196.432 256.538 196.495 256.266 196.621C255.994 196.743 255.755 196.912 255.55 197.128C255.348 197.343 255.189 197.59 255.073 197.869C254.957 198.144 254.899 198.434 254.899 198.739C254.899 199.143 254.993 199.521 255.182 199.872C255.374 200.223 255.636 200.507 255.968 200.722C256.302 200.938 256.682 201.045 257.106 201.045Z" fill="#D1D5DB"/>
<path d="M246.164 197.416H261.402V198.371H246.164V197.416Z" fill="#D1D5DB"/>
<path d="M297.309 191.818V202H296.076V193.111H296.017L293.531 194.761V193.509L296.076 191.818H297.309ZM300.556 202L305.11 192.991V192.912H299.86V191.818H306.382V192.972L301.848 202H300.556Z" fill="#D1D5DB"/>
<path d="M292.676 197.416H307.178V198.371H292.676V197.416Z" fill="#D1D5DB"/>
<path d="M20.1376 237.818V248H18.9046V239.111H18.8449L16.3591 240.761V239.509L18.9046 237.818H20.1376ZM26.3272 248.139C25.6444 248.139 25.0412 248.018 24.5175 247.776C23.9972 247.531 23.5911 247.195 23.2995 246.767C23.0078 246.336 22.8636 245.846 22.867 245.295C22.8636 244.865 22.9482 244.467 23.1205 244.102C23.2929 243.734 23.5282 243.428 23.8265 243.183C24.1281 242.934 24.4645 242.777 24.8357 242.71V242.651C24.3485 242.525 23.9607 242.251 23.6724 241.83C23.384 241.406 23.2415 240.924 23.2448 240.384C23.2415 239.866 23.3724 239.404 23.6376 238.996C23.9027 238.589 24.2673 238.267 24.7313 238.032C25.1986 237.797 25.7306 237.679 26.3272 237.679C26.9171 237.679 27.4441 237.797 27.9081 238.032C28.3722 238.267 28.7367 238.589 29.0019 238.996C29.2704 239.404 29.4063 239.866 29.4096 240.384C29.4063 240.924 29.2588 241.406 28.9671 241.83C28.6787 242.251 28.2959 242.525 27.8187 242.651V242.71C28.1866 242.777 28.518 242.934 28.813 243.183C29.108 243.428 29.3433 243.734 29.5189 244.102C29.6946 244.467 29.7841 244.865 29.7874 245.295C29.7841 245.846 29.6349 246.336 29.34 246.767C29.0483 247.195 28.6423 247.531 28.1219 247.776C27.6049 248.018 27.0066 248.139 26.3272 248.139ZM26.3272 247.045C26.7879 247.045 27.1856 246.971 27.5204 246.822C27.8551 246.673 28.1136 246.462 28.2959 246.19C28.4782 245.919 28.571 245.6 28.5743 245.236C28.571 244.851 28.4716 244.512 28.276 244.217C28.0805 243.922 27.8137 243.69 27.4756 243.521C27.1409 243.352 26.7581 243.267 26.3272 243.267C25.893 243.267 25.5052 243.352 25.1638 243.521C24.8258 243.69 24.559 243.922 24.3634 244.217C24.1712 244.512 24.0767 244.851 24.08 245.236C24.0767 245.6 24.1645 245.919 24.3435 246.19C24.5258 246.462 24.786 246.673 25.1241 246.822C25.4621 246.971 25.8632 247.045 26.3272 247.045ZM26.3272 242.213C26.6918 242.213 27.0149 242.14 27.2966 241.994C27.5817 241.848 27.8054 241.645 27.9678 241.383C28.1302 241.121 28.2131 240.814 28.2164 240.463C28.2131 240.118 28.1319 239.818 27.9728 239.563C27.8137 239.305 27.5933 239.106 27.3116 238.967C27.0298 238.824 26.7017 238.753 26.3272 238.753C25.946 238.753 25.6129 238.824 25.3279 238.967C25.0429 239.106 24.8224 239.305 24.6667 239.563C24.5109 239.818 24.4347 240.118 24.438 240.463C24.4347 240.814 24.5126 241.121 24.6716 241.383C24.834 241.645 25.0578 241.848 25.3428 241.994C25.6278 242.14 25.956 242.213 26.3272 242.213Z" fill="#D1D5DB"/>
<path d="M15.504 243.416H30.6425V244.371H15.504V243.416Z" fill="#D1D5DB"/>
<path d="M66.2257 237.818V248H64.9927V239.111H64.9331L62.4473 240.761V239.509L64.9927 237.818H66.2257ZM72.3954 237.679C72.813 237.682 73.2307 237.762 73.6483 237.918C74.0659 238.073 74.447 238.332 74.7917 238.693C75.1364 239.051 75.4132 239.54 75.622 240.16C75.8308 240.78 75.9352 241.557 75.9352 242.491C75.9352 243.396 75.849 244.2 75.6767 244.903C75.5076 245.602 75.2624 246.192 74.9409 246.673C74.6227 247.153 74.2349 247.518 73.7775 247.766C73.3235 248.015 72.8097 248.139 72.2363 248.139C71.6663 248.139 71.1575 248.027 70.7101 247.801C70.2659 247.572 69.9013 247.256 69.6163 246.852C69.3346 246.444 69.154 245.972 69.0744 245.435H70.2875C70.3969 245.902 70.6139 246.288 70.9388 246.593C71.2669 246.895 71.6994 247.045 72.2363 247.045C73.0219 247.045 73.6416 246.702 74.0957 246.016C74.5531 245.33 74.7818 244.361 74.7818 243.108H74.7022C74.5166 243.386 74.2962 243.627 74.041 243.829C73.7858 244.031 73.5024 244.187 73.1909 244.296C72.8793 244.406 72.5479 244.46 72.1966 244.46C71.6132 244.46 71.078 244.316 70.5907 244.028C70.1068 243.736 69.7191 243.337 69.4274 242.83C69.139 242.319 68.9949 241.736 68.9949 241.08C68.9949 240.456 69.1341 239.886 69.4125 239.369C69.6942 238.849 70.0886 238.435 70.5957 238.126C71.1061 237.818 71.706 237.669 72.3954 237.679ZM72.3954 238.773C71.9778 238.773 71.6016 238.877 71.2669 239.086C70.9354 239.291 70.6719 239.57 70.4764 239.921C70.2842 240.269 70.188 240.655 70.188 241.08C70.188 241.504 70.2808 241.89 70.4665 242.238C70.6554 242.583 70.9122 242.858 71.237 243.063C71.5652 243.265 71.938 243.366 72.3557 243.366C72.6705 243.366 72.9638 243.305 73.2356 243.183C73.5074 243.057 73.7444 242.886 73.9466 242.67C74.1521 242.452 74.3128 242.205 74.4288 241.93C74.5448 241.651 74.6028 241.361 74.6028 241.06C74.6028 240.662 74.5067 240.289 74.3145 239.941C74.1255 239.593 73.8637 239.311 73.529 239.096C73.1975 238.88 72.8197 238.773 72.3954 238.773Z" fill="#D1D5DB"/>
<path d="M61.5922 243.416H76.8301V244.371H61.5922V243.416Z" fill="#D1D5DB"/>
<path d="M107.798 248V247.105L111.159 243.426C111.553 242.995 111.878 242.621 112.133 242.303C112.388 241.981 112.577 241.679 112.7 241.398C112.826 241.113 112.889 240.814 112.889 240.503C112.889 240.145 112.803 239.835 112.63 239.573C112.461 239.311 112.229 239.109 111.934 238.967C111.639 238.824 111.308 238.753 110.94 238.753C110.549 238.753 110.207 238.834 109.916 238.996C109.627 239.156 109.404 239.379 109.245 239.668C109.089 239.956 109.011 240.294 109.011 240.682H107.838C107.838 240.085 107.975 239.562 108.25 239.111C108.525 238.66 108.9 238.309 109.374 238.057C109.851 237.805 110.386 237.679 110.98 237.679C111.576 237.679 112.105 237.805 112.566 238.057C113.026 238.309 113.388 238.648 113.649 239.076C113.911 239.504 114.042 239.979 114.042 240.503C114.042 240.877 113.974 241.244 113.838 241.602C113.706 241.956 113.474 242.352 113.142 242.79C112.814 243.224 112.358 243.754 111.775 244.381L109.488 246.827V246.906H114.221V248H107.798ZM119.595 248.139C118.846 248.139 118.208 247.935 117.681 247.528C117.154 247.117 116.752 246.522 116.473 245.743C116.195 244.961 116.056 244.016 116.056 242.909C116.056 241.809 116.195 240.869 116.473 240.09C116.755 239.308 117.159 238.711 117.686 238.3C118.217 237.886 118.853 237.679 119.595 237.679C120.338 237.679 120.973 237.886 121.5 238.3C122.03 238.711 122.434 239.308 122.713 240.09C122.994 240.869 123.135 241.809 123.135 242.909C123.135 244.016 122.996 244.961 122.718 245.743C122.439 246.522 122.037 247.117 121.51 247.528C120.983 247.935 120.345 248.139 119.595 248.139ZM119.595 247.045C120.338 247.045 120.915 246.687 121.326 245.972C121.737 245.256 121.942 244.235 121.942 242.909C121.942 242.027 121.848 241.277 121.659 240.657C121.473 240.037 121.205 239.565 120.853 239.24C120.505 238.915 120.086 238.753 119.595 238.753C118.86 238.753 118.285 239.116 117.87 239.842C117.456 240.564 117.249 241.587 117.249 242.909C117.249 243.791 117.342 244.54 117.527 245.156C117.713 245.773 117.98 246.242 118.328 246.563C118.679 246.885 119.102 247.045 119.595 247.045Z" fill="#D1D5DB"/>
<path d="M106.744 243.416H123.97V244.371H106.744V243.416Z" fill="#D1D5DB"/>
<path d="M155.062 248V247.105L158.423 243.426C158.817 242.995 159.142 242.621 159.397 242.303C159.652 241.981 159.841 241.679 159.964 241.398C160.09 241.113 160.153 240.814 160.153 240.503C160.153 240.145 160.067 239.835 159.894 239.573C159.725 239.311 159.493 239.109 159.198 238.967C158.903 238.824 158.572 238.753 158.204 238.753C157.813 238.753 157.471 238.834 157.18 238.996C156.891 239.156 156.668 239.379 156.509 239.668C156.353 239.956 156.275 240.294 156.275 240.682H155.102C155.102 240.085 155.239 239.562 155.514 239.111C155.789 238.66 156.164 238.309 156.638 238.057C157.115 237.805 157.65 237.679 158.244 237.679C158.84 237.679 159.369 237.805 159.83 238.057C160.29 238.309 160.652 238.648 160.913 239.076C161.175 239.504 161.306 239.979 161.306 240.503C161.306 240.877 161.238 241.244 161.102 241.602C160.97 241.956 160.738 242.352 160.406 242.79C160.078 243.224 159.622 243.754 159.039 244.381L156.752 246.827V246.906H161.485V248H155.062ZM167.118 237.818V248H165.885V239.111H165.825L163.339 240.761V239.509L165.885 237.818H167.118Z" fill="#D1D5DB"/>
<path d="M154.008 243.416H168.987V244.371H154.008V243.416Z" fill="#D1D5DB"/>
<path d="M200.22 248V247.105L203.581 243.426C203.975 242.995 204.3 242.621 204.555 242.303C204.811 241.981 205 241.679 205.122 241.398C205.248 241.113 205.311 240.814 205.311 240.503C205.311 240.145 205.225 239.835 205.053 239.573C204.884 239.311 204.652 239.109 204.357 238.967C204.062 238.824 203.73 238.753 203.362 238.753C202.971 238.753 202.63 238.834 202.338 238.996C202.05 239.156 201.826 239.379 201.667 239.668C201.511 239.956 201.433 240.294 201.433 240.682H200.26C200.26 240.085 200.398 239.562 200.673 239.111C200.948 238.66 201.322 238.309 201.796 238.057C202.274 237.805 202.809 237.679 203.402 237.679C203.999 237.679 204.527 237.805 204.988 238.057C205.449 238.309 205.81 238.648 206.072 239.076C206.334 239.504 206.465 239.979 206.465 240.503C206.465 240.877 206.397 241.244 206.261 241.602C206.128 241.956 205.896 242.352 205.565 242.79C205.237 243.224 204.781 243.754 204.198 244.381L201.911 246.827V246.906H206.644V248H200.22ZM208.697 248V247.105L212.058 243.426C212.452 242.995 212.777 242.621 213.032 242.303C213.287 241.981 213.476 241.679 213.599 241.398C213.725 241.113 213.788 240.814 213.788 240.503C213.788 240.145 213.702 239.835 213.529 239.573C213.36 239.311 213.128 239.109 212.833 238.967C212.538 238.824 212.207 238.753 211.839 238.753C211.448 238.753 211.106 238.834 210.815 238.996C210.526 239.156 210.303 239.379 210.144 239.668C209.988 239.956 209.91 240.294 209.91 240.682H208.737C208.737 240.085 208.874 239.562 209.149 239.111C209.424 238.66 209.799 238.309 210.273 238.057C210.75 237.805 211.285 237.679 211.879 237.679C212.475 237.679 213.004 237.805 213.465 238.057C213.925 238.309 214.287 238.648 214.548 239.076C214.81 239.504 214.941 239.979 214.941 240.503C214.941 240.877 214.873 241.244 214.737 241.602C214.605 241.956 214.373 242.352 214.041 242.79C213.713 243.224 213.257 243.754 212.674 244.381L210.387 246.827V246.906H215.12V248H208.697Z" fill="#D1D5DB"/>
<path d="M199.166 243.416H216.114V244.371H199.166V243.416Z" fill="#D1D5DB"/>
<path d="M246.144 248V247.105L249.505 243.426C249.9 242.995 250.224 242.621 250.48 242.303C250.735 241.981 250.924 241.679 251.046 241.398C251.172 241.113 251.235 240.814 251.235 240.503C251.235 240.145 251.149 239.835 250.977 239.573C250.808 239.311 250.576 239.109 250.281 238.967C249.986 238.824 249.654 238.753 249.286 238.753C248.895 238.753 248.554 238.834 248.262 238.996C247.974 239.156 247.75 239.379 247.591 239.668C247.435 239.956 247.357 240.294 247.357 240.682H246.184C246.184 240.085 246.322 239.562 246.597 239.111C246.872 238.66 247.246 238.309 247.72 238.057C248.198 237.805 248.733 237.679 249.326 237.679C249.923 237.679 250.451 237.805 250.912 238.057C251.373 238.309 251.734 238.648 251.996 239.076C252.258 239.504 252.389 239.979 252.389 240.503C252.389 240.877 252.321 241.244 252.185 241.602C252.052 241.956 251.82 242.352 251.489 242.79C251.161 243.224 250.705 243.754 250.122 244.381L247.835 246.827V246.906H252.568V248H246.144ZM258.061 248.139C257.405 248.139 256.82 248.027 256.306 247.801C255.796 247.576 255.39 247.263 255.088 246.862C254.79 246.457 254.628 245.988 254.601 245.455H255.854C255.88 245.783 255.993 246.066 256.192 246.305C256.391 246.54 256.651 246.722 256.972 246.852C257.294 246.981 257.65 247.045 258.041 247.045C258.479 247.045 258.867 246.969 259.205 246.817C259.543 246.664 259.808 246.452 260 246.18C260.192 245.909 260.288 245.594 260.288 245.236C260.288 244.861 260.196 244.531 260.01 244.246C259.824 243.958 259.553 243.733 259.195 243.57C258.837 243.408 258.399 243.327 257.882 243.327H257.067V242.233H257.882C258.287 242.233 258.641 242.16 258.946 242.014C259.254 241.868 259.495 241.663 259.667 241.398C259.843 241.133 259.931 240.821 259.931 240.463C259.931 240.118 259.854 239.818 259.702 239.563C259.549 239.308 259.334 239.109 259.056 238.967C258.78 238.824 258.456 238.753 258.081 238.753C257.73 238.753 257.398 238.817 257.087 238.947C256.779 239.073 256.527 239.257 256.331 239.499C256.136 239.737 256.029 240.026 256.013 240.364H254.82C254.84 239.83 255 239.363 255.302 238.962C255.604 238.557 255.998 238.242 256.485 238.017C256.976 237.792 257.514 237.679 258.101 237.679C258.731 237.679 259.271 237.807 259.722 238.062C260.172 238.314 260.519 238.647 260.761 239.061C261.003 239.475 261.124 239.923 261.124 240.403C261.124 240.977 260.973 241.466 260.671 241.87C260.373 242.274 259.967 242.554 259.453 242.71V242.79C260.096 242.896 260.598 243.169 260.96 243.61C261.321 244.048 261.502 244.589 261.502 245.236C261.502 245.789 261.351 246.286 261.049 246.727C260.751 247.165 260.343 247.509 259.826 247.761C259.309 248.013 258.721 248.139 258.061 248.139Z" fill="#D1D5DB"/>
<path d="M245.09 243.416H262.476V244.371H245.09V243.416Z" fill="#D1D5DB"/>
<path d="M292.362 248V247.105L295.723 243.426C296.118 242.995 296.442 242.621 296.698 242.303C296.953 241.981 297.142 241.679 297.264 241.398C297.39 241.113 297.453 240.814 297.453 240.503C297.453 240.145 297.367 239.835 297.195 239.573C297.026 239.311 296.794 239.109 296.499 238.967C296.204 238.824 295.872 238.753 295.504 238.753C295.113 238.753 294.772 238.834 294.48 238.996C294.192 239.156 293.968 239.379 293.809 239.668C293.653 239.956 293.576 240.294 293.576 240.682H292.402C292.402 240.085 292.54 239.562 292.815 239.111C293.09 238.66 293.464 238.309 293.938 238.057C294.416 237.805 294.951 237.679 295.544 237.679C296.141 237.679 296.67 237.805 297.13 238.057C297.591 238.309 297.952 238.648 298.214 239.076C298.476 239.504 298.607 239.979 298.607 240.503C298.607 240.877 298.539 241.244 298.403 241.602C298.27 241.956 298.038 242.352 297.707 242.79C297.379 243.224 296.923 243.754 296.34 244.381L294.053 246.827V246.906H298.786V248H292.362ZM300.382 245.912V244.898L304.856 237.818H305.592V239.389H305.095L301.714 244.739V244.818H307.74V245.912H300.382ZM305.174 248V245.604V245.131V237.818H306.348V248H305.174Z" fill="#D1D5DB"/>
<path d="M291.308 243.416H308.555V244.371H291.308V243.416Z" fill="#D1D5DB"/>
<path d="M15.6283 294V293.105L18.9891 289.426C19.3835 288.995 19.7083 288.621 19.9635 288.303C20.2188 287.981 20.4077 287.679 20.5303 287.398C20.6563 287.113 20.7192 286.814 20.7192 286.503C20.7192 286.145 20.6331 285.835 20.4607 285.573C20.2917 285.311 20.0597 285.109 19.7647 284.967C19.4697 284.824 19.1383 284.753 18.7704 284.753C18.3793 284.753 18.0379 284.834 17.7462 284.996C17.4579 285.156 17.2341 285.379 17.0751 285.668C16.9193 285.956 16.8414 286.294 16.8414 286.682H15.6681C15.6681 286.085 15.8056 285.562 16.0807 285.111C16.3558 284.66 16.7304 284.309 17.2043 284.057C17.6816 283.805 18.2169 283.679 18.8101 283.679C19.4067 283.679 19.9354 283.805 20.3961 284.057C20.8568 284.309 21.218 284.648 21.4799 285.076C21.7417 285.504 21.8726 285.979 21.8726 286.503C21.8726 286.877 21.8047 287.244 21.6688 287.602C21.5362 287.956 21.3042 288.352 20.9728 288.79C20.6447 289.224 20.1889 289.754 19.6056 290.381L17.3187 292.827V292.906H22.0516V294H15.6283ZM27.2867 294.139C26.7034 294.139 26.178 294.023 25.7107 293.791C25.2434 293.559 24.8688 293.241 24.5871 292.837C24.3054 292.432 24.1513 291.972 24.1248 291.455H25.3179C25.3644 291.915 25.5732 292.296 25.9444 292.598C26.3189 292.896 26.7663 293.045 27.2867 293.045C27.7043 293.045 28.0755 292.948 28.4003 292.752C28.7285 292.557 28.9853 292.288 29.1709 291.947C29.3599 291.602 29.4543 291.213 29.4543 290.778C29.4543 290.334 29.3565 289.938 29.161 289.59C28.9688 289.239 28.7036 288.962 28.3655 288.76C28.0275 288.558 27.6413 288.455 27.2072 288.452C26.8956 288.448 26.5758 288.496 26.2476 288.596C25.9195 288.692 25.6494 288.816 25.4373 288.969L24.2839 288.83L24.9003 283.818H30.1901V284.912H25.9344L25.5765 287.915H25.6361C25.8449 287.749 26.1068 287.612 26.4216 287.502C26.7365 287.393 27.0646 287.338 27.406 287.338C28.0291 287.338 28.5843 287.487 29.0715 287.786C29.562 288.08 29.9465 288.485 30.2249 288.999C30.5066 289.512 30.6475 290.099 30.6475 290.759C30.6475 291.408 30.5017 291.988 30.21 292.499C29.9216 293.006 29.5239 293.407 29.0168 293.702C28.5097 293.993 27.933 294.139 27.2867 294.139Z" fill="black"/>
<path d="M61.6618 294V293.105L65.0226 289.426C65.417 288.995 65.7418 288.621 65.997 288.303C66.2522 287.981 66.4411 287.679 66.5638 287.398C66.6897 287.113 66.7527 286.814 66.7527 286.503C66.7527 286.145 66.6665 285.835 66.4942 285.573C66.3251 285.311 66.0931 285.109 65.7981 284.967C65.5031 284.824 65.1717 284.753 64.8038 284.753C64.4127 284.753 64.0713 284.834 63.7797 284.996C63.4913 285.156 63.2676 285.379 63.1085 285.668C62.9527 285.956 62.8748 286.294 62.8748 286.682H61.7015C61.7015 286.085 61.8391 285.562 62.1142 285.111C62.3893 284.66 62.7638 284.309 63.2378 284.057C63.715 283.805 64.2503 283.679 64.8436 283.679C65.4402 283.679 65.9688 283.805 66.4295 284.057C66.8902 284.309 67.2515 284.648 67.5133 285.076C67.7752 285.504 67.9061 285.979 67.9061 286.503C67.9061 286.877 67.8381 287.244 67.7022 287.602C67.5697 287.956 67.3377 288.352 67.0062 288.79C66.6781 289.224 66.2224 289.754 65.639 290.381L63.3521 292.827V292.906H68.0851V294H61.6618ZM73.519 294.139C73.1014 294.133 72.6838 294.053 72.2662 293.901C71.8486 293.748 71.4674 293.491 71.1227 293.13C70.778 292.765 70.5013 292.273 70.2924 291.653C70.0836 291.03 69.9792 290.248 69.9792 289.307C69.9792 288.405 70.0638 287.607 70.2328 286.911C70.4018 286.211 70.6471 285.623 70.9686 285.146C71.2901 284.665 71.6779 284.3 72.1319 284.052C72.5893 283.803 73.1047 283.679 73.6781 283.679C74.2482 283.679 74.7553 283.793 75.1994 284.022C75.6469 284.247 76.0114 284.562 76.2932 284.967C76.5749 285.371 76.7572 285.837 76.84 286.364H75.627C75.5143 285.906 75.2955 285.527 74.9707 285.225C74.6459 284.924 74.215 284.773 73.6781 284.773C72.8893 284.773 72.2678 285.116 71.8138 285.802C71.363 286.488 71.136 287.451 71.1326 288.69H71.2122C71.3978 288.409 71.6182 288.168 71.8734 287.969C72.1319 287.767 72.417 287.612 72.7285 287.502C73.0401 287.393 73.3699 287.338 73.7179 287.338C74.3012 287.338 74.8348 287.484 75.3187 287.776C75.8026 288.064 76.1904 288.463 76.4821 288.974C76.7737 289.481 76.9196 290.062 76.9196 290.719C76.9196 291.348 76.7787 291.925 76.497 292.449C76.2153 292.969 75.8192 293.384 75.3088 293.692C74.8017 293.997 74.2051 294.146 73.519 294.139ZM73.519 293.045C73.9366 293.045 74.3111 292.941 74.6426 292.732C74.9773 292.523 75.2408 292.243 75.4331 291.892C75.6286 291.541 75.7264 291.15 75.7264 290.719C75.7264 290.298 75.6319 289.915 75.443 289.57C75.2574 289.222 75.0005 288.946 74.6724 288.74C74.3476 288.535 73.9764 288.432 73.5588 288.432C73.2439 288.432 72.9506 288.495 72.6788 288.621C72.407 288.743 72.1684 288.912 71.9629 289.128C71.7607 289.343 71.6016 289.59 71.4856 289.869C71.3696 290.144 71.3116 290.434 71.3116 290.739C71.3116 291.143 71.4061 291.521 71.595 291.872C71.7872 292.223 72.0491 292.507 72.3805 292.722C72.7153 292.938 73.0948 293.045 73.519 293.045Z" fill="black"/>
<path d="M108.174 294V293.105L111.535 289.426C111.929 288.995 112.254 288.621 112.509 288.303C112.764 287.981 112.953 287.679 113.076 287.398C113.202 287.113 113.265 286.814 113.265 286.503C113.265 286.145 113.179 285.835 113.006 285.573C112.837 285.311 112.605 285.109 112.31 284.967C112.015 284.824 111.684 284.753 111.316 284.753C110.925 284.753 110.583 284.834 110.292 284.996C110.003 285.156 109.78 285.379 109.621 285.668C109.465 285.956 109.387 286.294 109.387 286.682H108.214C108.214 286.085 108.351 285.562 108.626 285.111C108.901 284.66 109.276 284.309 109.75 284.057C110.227 283.805 110.762 283.679 111.356 283.679C111.952 283.679 112.481 283.805 112.942 284.057C113.402 284.309 113.764 284.648 114.025 285.076C114.287 285.504 114.418 285.979 114.418 286.503C114.418 286.877 114.35 287.244 114.214 287.602C114.082 287.956 113.85 288.352 113.518 288.79C113.19 289.224 112.734 289.754 112.151 290.381L109.864 292.827V292.906H114.597V294H108.174ZM116.969 294L121.523 284.991V284.912H116.273V283.818H122.795V284.972L118.261 294H116.969Z" fill="black"/>
<path d="M154.002 294V293.105L157.363 289.426C157.757 288.995 158.082 288.621 158.337 288.303C158.593 287.981 158.782 287.679 158.904 287.398C159.03 287.113 159.093 286.814 159.093 286.503C159.093 286.145 159.007 285.835 158.835 285.573C158.666 285.311 158.434 285.109 158.139 284.967C157.844 284.824 157.512 284.753 157.144 284.753C156.753 284.753 156.412 284.834 156.12 284.996C155.832 285.156 155.608 285.379 155.449 285.668C155.293 285.956 155.215 286.294 155.215 286.682H154.042C154.042 286.085 154.18 285.562 154.455 285.111C154.73 284.66 155.104 284.309 155.578 284.057C156.055 283.805 156.591 283.679 157.184 283.679C157.781 283.679 158.309 283.805 158.77 284.057C159.231 284.309 159.592 284.648 159.854 285.076C160.116 285.504 160.247 285.979 160.247 286.503C160.247 286.877 160.179 287.244 160.043 287.602C159.91 287.956 159.678 288.352 159.347 288.79C159.019 289.224 158.563 289.754 157.979 290.381L155.693 292.827V292.906H160.426V294H154.002ZM165.74 294.139C165.057 294.139 164.454 294.018 163.93 293.776C163.41 293.531 163.004 293.195 162.712 292.767C162.421 292.336 162.277 291.846 162.28 291.295C162.277 290.865 162.361 290.467 162.533 290.102C162.706 289.734 162.941 289.428 163.239 289.183C163.541 288.934 163.877 288.777 164.249 288.71V288.651C163.761 288.525 163.374 288.251 163.085 287.83C162.797 287.406 162.654 286.924 162.658 286.384C162.654 285.866 162.785 285.404 163.051 284.996C163.316 284.589 163.68 284.267 164.144 284.032C164.612 283.797 165.144 283.679 165.74 283.679C166.33 283.679 166.857 283.797 167.321 284.032C167.785 284.267 168.15 284.589 168.415 284.996C168.683 285.404 168.819 285.866 168.823 286.384C168.819 286.924 168.672 287.406 168.38 287.83C168.092 288.251 167.709 288.525 167.232 288.651V288.71C167.6 288.777 167.931 288.934 168.226 289.183C168.521 289.428 168.756 289.734 168.932 290.102C169.108 290.467 169.197 290.865 169.2 291.295C169.197 291.846 169.048 292.336 168.753 292.767C168.461 293.195 168.055 293.531 167.535 293.776C167.018 294.018 166.42 294.139 165.74 294.139ZM165.74 293.045C166.201 293.045 166.599 292.971 166.933 292.822C167.268 292.673 167.527 292.462 167.709 292.19C167.891 291.919 167.984 291.6 167.987 291.236C167.984 290.851 167.885 290.512 167.689 290.217C167.493 289.922 167.227 289.69 166.889 289.521C166.554 289.352 166.171 289.267 165.74 289.267C165.306 289.267 164.918 289.352 164.577 289.521C164.239 289.69 163.972 289.922 163.776 290.217C163.584 290.512 163.49 290.851 163.493 291.236C163.49 291.6 163.578 291.919 163.756 292.19C163.939 292.462 164.199 292.673 164.537 292.822C164.875 292.971 165.276 293.045 165.74 293.045ZM165.74 288.213C166.105 288.213 166.428 288.14 166.71 287.994C166.995 287.848 167.218 287.645 167.381 287.383C167.543 287.121 167.626 286.814 167.629 286.463C167.626 286.118 167.545 285.818 167.386 285.563C167.227 285.305 167.006 285.106 166.725 284.967C166.443 284.824 166.115 284.753 165.74 284.753C165.359 284.753 165.026 284.824 164.741 284.967C164.456 285.106 164.235 285.305 164.08 285.563C163.924 285.818 163.848 286.118 163.851 286.463C163.848 286.814 163.926 287.121 164.085 287.383C164.247 287.645 164.471 287.848 164.756 287.994C165.041 288.14 165.369 288.213 165.74 288.213Z" fill="black"/>
<path d="M200.09 294V293.105L203.451 289.426C203.846 288.995 204.17 288.621 204.426 288.303C204.681 287.981 204.87 287.679 204.992 287.398C205.118 287.113 205.181 286.814 205.181 286.503C205.181 286.145 205.095 285.835 204.923 285.573C204.754 285.311 204.522 285.109 204.227 284.967C203.932 284.824 203.6 284.753 203.232 284.753C202.841 284.753 202.5 284.834 202.208 284.996C201.92 285.156 201.696 285.379 201.537 285.668C201.381 285.956 201.303 286.294 201.303 286.682H200.13C200.13 286.085 200.268 285.562 200.543 285.111C200.818 284.66 201.192 284.309 201.666 284.057C202.144 283.805 202.679 283.679 203.272 283.679C203.869 283.679 204.397 283.805 204.858 284.057C205.319 284.309 205.68 284.648 205.942 285.076C206.204 285.504 206.335 285.979 206.335 286.503C206.335 286.877 206.267 287.244 206.131 287.602C205.998 287.956 205.766 288.352 205.435 288.79C205.107 289.224 204.651 289.754 204.068 290.381L201.781 292.827V292.906H206.514V294H200.09ZM211.808 283.679C212.226 283.682 212.644 283.762 213.061 283.918C213.479 284.073 213.86 284.332 214.205 284.693C214.549 285.051 214.826 285.54 215.035 286.16C215.244 286.78 215.348 287.557 215.348 288.491C215.348 289.396 215.262 290.2 215.09 290.903C214.921 291.602 214.675 292.192 214.354 292.673C214.036 293.153 213.648 293.518 213.19 293.766C212.736 294.015 212.223 294.139 211.649 294.139C211.079 294.139 210.57 294.027 210.123 293.801C209.679 293.572 209.314 293.256 209.029 292.852C208.748 292.444 208.567 291.972 208.487 291.435H209.7C209.81 291.902 210.027 292.288 210.352 292.593C210.68 292.895 211.112 293.045 211.649 293.045C212.435 293.045 213.055 292.702 213.509 292.016C213.966 291.33 214.195 290.361 214.195 289.108H214.115C213.93 289.386 213.709 289.627 213.454 289.829C213.199 290.031 212.915 290.187 212.604 290.296C212.292 290.406 211.961 290.46 211.61 290.46C211.026 290.46 210.491 290.316 210.004 290.028C209.52 289.736 209.132 289.337 208.84 288.83C208.552 288.319 208.408 287.736 208.408 287.08C208.408 286.456 208.547 285.886 208.825 285.369C209.107 284.849 209.502 284.435 210.009 284.126C210.519 283.818 211.119 283.669 211.808 283.679ZM211.808 284.773C211.391 284.773 211.015 284.877 210.68 285.086C210.348 285.291 210.085 285.57 209.889 285.921C209.697 286.269 209.601 286.655 209.601 287.08C209.601 287.504 209.694 287.89 209.879 288.238C210.068 288.583 210.325 288.858 210.65 289.063C210.978 289.265 211.351 289.366 211.769 289.366C212.083 289.366 212.377 289.305 212.649 289.183C212.92 289.057 213.157 288.886 213.36 288.67C213.565 288.452 213.726 288.205 213.842 287.93C213.958 287.651 214.016 287.361 214.016 287.06C214.016 286.662 213.92 286.289 213.727 285.941C213.539 285.593 213.277 285.311 212.942 285.096C212.61 284.88 212.233 284.773 211.808 284.773Z" fill="black"/>
<path d="M249.448 294.139C248.792 294.139 248.207 294.027 247.693 293.801C247.183 293.576 246.777 293.263 246.475 292.862C246.177 292.457 246.014 291.988 245.988 291.455H247.241C247.267 291.783 247.38 292.066 247.579 292.305C247.777 292.54 248.038 292.722 248.359 292.852C248.681 292.981 249.037 293.045 249.428 293.045C249.866 293.045 250.253 292.969 250.591 292.817C250.929 292.664 251.195 292.452 251.387 292.18C251.579 291.909 251.675 291.594 251.675 291.236C251.675 290.861 251.582 290.531 251.397 290.246C251.211 289.958 250.939 289.733 250.581 289.57C250.223 289.408 249.786 289.327 249.269 289.327H248.454V288.233H249.269C249.673 288.233 250.028 288.16 250.333 288.014C250.641 287.868 250.881 287.663 251.054 287.398C251.229 287.133 251.317 286.821 251.317 286.463C251.317 286.118 251.241 285.818 251.089 285.563C250.936 285.308 250.721 285.109 250.442 284.967C250.167 284.824 249.842 284.753 249.468 284.753C249.116 284.753 248.785 284.817 248.473 284.947C248.165 285.073 247.913 285.257 247.718 285.499C247.522 285.737 247.416 286.026 247.4 286.364H246.206C246.226 285.83 246.387 285.363 246.689 284.962C246.99 284.557 247.385 284.242 247.872 284.017C248.362 283.792 248.901 283.679 249.488 283.679C250.117 283.679 250.658 283.807 251.108 284.062C251.559 284.314 251.906 284.647 252.148 285.061C252.389 285.475 252.51 285.923 252.51 286.403C252.51 286.977 252.36 287.466 252.058 287.87C251.76 288.274 251.354 288.554 250.84 288.71V288.79C251.483 288.896 251.985 289.169 252.346 289.61C252.708 290.048 252.888 290.589 252.888 291.236C252.888 291.789 252.737 292.286 252.436 292.727C252.138 293.165 251.73 293.509 251.213 293.761C250.696 294.013 250.107 294.139 249.448 294.139ZM258.243 294.139C257.494 294.139 256.856 293.935 256.329 293.528C255.802 293.117 255.399 292.522 255.121 291.743C254.842 290.961 254.703 290.016 254.703 288.909C254.703 287.809 254.842 286.869 255.121 286.09C255.402 285.308 255.807 284.711 256.334 284.3C256.864 283.886 257.5 283.679 258.243 283.679C258.985 283.679 259.62 283.886 260.147 284.3C260.677 284.711 261.081 285.308 261.36 286.09C261.642 286.869 261.782 287.809 261.782 288.909C261.782 290.016 261.643 290.961 261.365 291.743C261.086 292.522 260.684 293.117 260.157 293.528C259.63 293.935 258.992 294.139 258.243 294.139ZM258.243 293.045C258.985 293.045 259.562 292.687 259.973 291.972C260.384 291.256 260.589 290.235 260.589 288.909C260.589 288.027 260.495 287.277 260.306 286.657C260.12 286.037 259.852 285.565 259.5 285.24C259.152 284.915 258.733 284.753 258.243 284.753C257.507 284.753 256.932 285.116 256.518 285.842C256.103 286.564 255.896 287.587 255.896 288.909C255.896 289.791 255.989 290.54 256.174 291.156C256.36 291.773 256.627 292.242 256.975 292.563C257.326 292.885 257.749 293.045 258.243 293.045Z" fill="black"/>
<path d="M301.308 283.818V294H300.075V285.111H300.016L297.53 286.761V285.509L300.075 283.818H301.308Z" fill="#D1D5DB"/>
</svg>
